0
SECTION
2
HEADER
9
$INSUNITS
70
4
9
$ACADVER
1
AC1014
9
$HANDSEED
5
FFFF
0
ENDSEC
0
SECTION
2
TABLES
0
TABLE
2
VPORT
5
8
100
AcDbSymbolTable
0
ENDTAB
0
TABLE
2
LTYPE
5
5
100
AcDbSymbolTable
0
LTYPE
5
14
100
AcDbSymbolTableRecord
100
AcDbLinetypeTableRecord
2
BYBLOCK
70
0
0
LTYPE
5
15
100
AcDbSymbolTableRecord
100
AcDbLinetypeTableRecord
2
BYLAYER
70
0
0
ENDTAB
0
TABLE
2
LAYER
5
2
100
AcDbSymbolTable
70
2
0
LAYER
5
50
100
AcDbSymbolTableRecord
100
AcDbLayerTableRecord
2
0
70
0
6
CONTINUOUS
0
ENDTAB
0
TABLE
2
STYLE
5
3
100
AcDbSymbolTable
70
1
0
STYLE
5
11
100
AcDbSymbolTableRecord
100
AcDbTextStyleTableRecord
2
STANDARD
70
0
0
ENDTAB
0
TABLE
2
VIEW
5
6
100
AcDbSymbolTable
70
0
0
ENDTAB
0
TABLE
2
UCS
5
7
100
AcDbSymbolTable
70
0
0
ENDTAB
0
TABLE
2
APPID
5
9
100
AcDbSymbolTable
70
2
0
APPID
5
12
100
AcDbSymbolTableRecord
100
AcDbRegAppTableRecord
2
ACAD
70
0
0
ENDTAB
0
TABLE
2
DIMSTYLE
5
A
100
AcDbSymbolTable
70
1
0
ENDTAB
0
TABLE
2
BLOCK_RECORD
5
1
100
AcDbSymbolTable
70
1
0
BLOCK_RECORD
5
1F
100
AcDbSymbolTableRecord
100
AcDbBlockTableRecord
2
*MODEL_SPACE
0
BLOCK_RECORD
5
1B
100
AcDbSymbolTableRecord
100
AcDbBlockTableRecord
2
*PAPER_SPACE
0
ENDTAB
0
ENDSEC
0
SECTION
2
BLOCKS
0
BLOCK
5
20
100
AcDbEntity
100
AcDbBlockBegin
2
*MODEL_SPACE
0
ENDBLK
5
21
100
AcDbEntity
100
AcDbBlockEnd
0
BLOCK
5
1C
100
AcDbEntity
100
AcDbBlockBegin
2
*PAPER_SPACE
0
ENDBLK
5
1D
100
AcDbEntity
100
AcDbBlockEnd
0
ENDSEC
0
SECTION
2
ENTITIES
0
LWPOLYLINE
5
100
100
AcDbEntity
8
0
100
AcDbPolyline
90
8
70
1
43
0.0
10
-912.04750000000001
20
498.40499999999997
42
0.41421356237326151
10
-911.04750000000013
20
499.40499999999992
10
-911.0474999999999
20
511.40500000000009
42
0.41421356237321988
10
-912.04750000000001
20
512.4050000000002
10
-924.04750000000013
20
512.4050000000002
42
0.41421356237313667
10
-925.04750000000001
20
511.40500000000009
10
-925.04750000000001
20
499.40499999999992
42
0.4142135623730534
10
-924.04750000000013
20
498.40499999999992
0
LWPOLYLINE
5
101
100
AcDbEntity
8
0
100
AcDbPolyline
90
8
70
1
43
0.0
10
-966.88075000000026
20
440.26250000000005
42
-0.41421356237328233
10
-967.88075000000003
20
439.2625000000001
10
-972.88075000000026
20
439.26249999999987
42
-0.41421356237307422
10
-973.88075000000015
20
440.26250000000005
10
-973.88075000000015
20
453.26250000000016
42
-0.41421356237307422
10
-972.88075000000026
20
454.26250000000027
10
-967.88075000000003
20
454.26250000000027
42
-0.41421356237330315
10
-966.88075000000015
20
453.26250000000016
0
LWPOLYLINE
5
102
100
AcDbEntity
8
0
100
AcDbPolyline
90
8
70
1
43
0.0
10
-905.99749999999995
20
499.40499999999992
42
0.4142135623730534
10
-904.99750000000006
20
498.40499999999992
10
-892.99749999999995
20
498.40499999999986
42
0.41421356237313667
10
-891.99749999999995
20
499.40499999999992
10
-891.99749999999995
20
511.40500000000009
42
0.41421356237309503
10
-892.99749999999995
20
512.4050000000002
10
-904.99750000000006
20
512.4050000000002
42
0.41421356237313667
10
-905.99749999999995
20
511.40500000000009
0
LWPOLYLINE
5
103
100
AcDbEntity
8
0
100
AcDbPolyline
90
8
70
1
43
0.0
10
-991.77925000000016
20
454.25500000000005
42
-0.4142135623732407
10
-990.77925000000005
20
453.25500000000005
10
-990.77925000000005
20
440.25500000000011
42
-0.41421356237340717
10
-991.77925000000016
20
439.25500000000005
10
-996.77925000000016
20
439.255
42
-0.41421356237313667
10
-997.77925000000005
20
440.25500000000011
10
-997.77925000000005
20
453.25500000000005
42
-0.41421356237313667
10
-996.77925000000016
20
454.25500000000005
0
LWPOLYLINE
5
104
100
AcDbEntity
8
0
100
AcDbPolyline
90
8
70
1
43
0.0
10
-988.34124999999995
20
455.25500000000022
10
-976.34125000000017
20
455.25500000000022
42
-0.41421356237328233
10
-975.34125000000006
20
454.25500000000022
10
-975.34124999999995
20
442.25500000000011
42
-0.41421356237334478
10
-976.34124999999995
20
441.25500000000011
10
-988.34124999999995
20
441.25499999999994
42
-0.41421356237307422
10
-989.34124999999995
20
442.25500000000011
10
-989.34124999999995
20
454.25500000000022
42
-0.4142135623730534
0
LWPOLYLINE
5
105
100
AcDbEntity
8
0
100
AcDbPolyline
90
8
70
1
43
0.0
10
-996.46250000000032
20
492.36250000000013
42
-0.41421356237319906
10
-995.46250000000043
20
493.36250000000007
10
-983.46250000000032
20
493.36250000000001
42
-0.41421356237315748
10
-982.46250000000032
20
492.36250000000013
10
-982.46250000000032
20
480.36250000000001
42
-0.41421356237313667
10
-983.46250000000043
20
479.36250000000001
10
-995.46250000000043
20
479.36249999999995
42
-0.41421356237313667
10
-996.46250000000032
20
480.36250000000001
0
LWPOLYLINE
5
106
100
AcDbEntity
8
0
100
AcDbPolyline
90
8
70
1
43
0.0
10
-1000.2475000000004
20
512.40500000000009
10
-988.24749999999995
20
512.4050000000002
42
-0.41421356237313667
10
-987.24749999999995
20
511.40500000000009
10
-987.24749999999995
20
499.40499999999992
42
-0.4142135623730534
10
-988.24749999999995
20
498.40499999999992
10
-1000.2475000000004
20
498.40499999999992
42
-0.41421356237319906
10
-1001.2475000000001
20
499.40499999999992
10
-1001.2475000000001
20
511.40500000000009
42
-0.41421356237309503
0
LWPOLYLINE
5
107
100
AcDbEntity
8
0
100
AcDbPolyline
90
8
70
1
43
0.0
10
-911.02262499999995
20
432.20500000000015
10
-871.37762500000008
20
432.2050000000001
42
-0.41421356237319906
10
-870.37762499999985
20
431.20500000000021
10
-870.37762499999985
20
427.20500000000004
42
-0.41421356237307422
10
-871.37762499999997
20
426.20499999999993
10
-911.02262499999995
20
426.20499999999998
42
-0.4142135623732407
10
-912.02262500000006
20
427.20500000000004
10
-912.02262500000006
20
431.20500000000021
42
-0.41421356237338641
0
LWPOLYLINE
5
108
100
AcDbEntity
8
0
100
AcDbPolyline
90
8
70
1
43
0.0
10
-809.72650000000112
20
431.2049999999951
10
-809.72650000000044
20
427.20499999999993
42
-0.4142135623730534
10
-810.72650000000044
20
426.20499999999993
10
-850.37249999999972
20
426.20500000000004
42
-0.41421356237319906
10
-851.37249999999995
20
427.20499999999993
10
-851.37249999999995
20
431.20499999999998
42
-0.41421356237313667
10
-850.37249999999983
20
432.20500000000004
10
-810.72650000000067
20
432.20499999999475
42
-0.4142135623730534
0
LWPOLYLINE
5
109
100
AcDbEntity
8
0
100
AcDbPolyline
90
8
70
1
43
0.0
10
-800.2249999999998
20
434.21249999999998
10
-800.2249999999998
20
421.21250000000003
42
-0.41421356237313667
10
-801.22499999999968
20
420.21250000000003
10
-806.22499999999968
20
420.21249999999998
42
-0.41421356237313667
10
-807.22499999999968
20
421.21250000000003
10
-807.22499999999968
20
434.21249999999998
42
-0.41421356237313667
10
-806.22499999999968
20
435.21250000000003
10
-801.22499999999968
20
435.21250000000009
42
-0.41421356237313667
0
LWPOLYLINE
5
110
100
AcDbEntity
8
0
100
AcDbPolyline
90
8
70
1
43
0.0
10
-751.48800000000051
20
496.41250000000014
42
-0.41421356237303258
10
-752.48800000000017
20
497.41250000000014
10
-752.48800000000017
20
510.41250000000019
42
-0.4142135623733656
10
-751.4880000000004
20
511.41250000000014
10
-746.48800000000028
20
511.41250000000019
42
-0.41421356237328233
10
-745.48800000000017
20
510.41250000000019
10
-745.48800000000017
20
497.41250000000014
42
-0.41421356237328233
10
-746.48800000000006
20
496.41250000000014
0
LWPOLYLINE
5
111
100
AcDbEntity
8
0
100
AcDbPolyline
90
8
70
1
43
0.0
10
-696.71249999999986
20
435.21250000000009
10
-696.71249999999986
20
423.21249999999998
42
-0.41421356237313667
10
-697.71249999999998
20
422.21249999999998
10
-709.71249999999986
20
422.21249999999992
42
-0.41421356237334478
10
-710.71249999999986
20
423.21249999999998
10
-710.71249999999986
20
435.21250000000009
42
-0.41421356237332396
10
-709.71249999999986
20
436.21250000000009
10
-697.71249999999998
20
436.21250000000003
42
-0.41421356237313667
0
LWPOLYLINE
5
112
100
AcDbEntity
8
0
100
AcDbPolyline
90
8
70
1
43
0.0
10
-786.91249999999968
20
435.21250000000003
42
-0.4142135623730534
10
-785.91249999999968
20
436.21250000000003
10
-773.91249999999991
20
436.21250000000009
42
-0.41421356237313667
10
-772.91249999999991
20
435.21250000000003
10
-772.91249999999991
20
423.21249999999998
42
-0.4142135623730534
10
-773.91249999999991
20
422.21249999999998
10
-785.91249999999968
20
422.21249999999992
42
-0.41421356237313667
10
-786.91249999999968
20
423.21249999999998
0
LWPOLYLINE
5
113
100
AcDbEntity
8
0
100
AcDbPolyline
90
8
70
1
43
0.0
10
-739.30999999999983
20
492.35500000000008
42
-0.41421356237307422
10
-738.30999999999995
20
493.35500000000019
10
-726.30999999999995
20
493.35500000000013
42
-0.41421356237332396
10
-725.30999999999972
20
492.35500000000008
10
-725.30999999999972
20
480.35500000000013
42
-0.41421356237334478
10
-726.30999999999983
20
479.35500000000013
10
-738.30999999999995
20
479.35499999999996
42
-0.41421356237307422
10
-739.30999999999983
20
480.35500000000013
0
LWPOLYLINE
5
114
100
AcDbEntity
8
0
100
AcDbPolyline
90
8
70
1
43
0.0
10
-778.69749999999965
20
512.4050000000002
10
-790.69749999999999
20
512.40500000000009
42
0.41421356237307422
10
-791.6975000000001
20
511.40500000000009
10
-791.6975000000001
20
499.40499999999992
42
0.41421356237307422
10
-790.69749999999999
20
498.40499999999992
10
-778.69749999999976
20
498.40499999999992
42
0.41421356237319906
10
-777.69749999999999
20
499.40499999999992
10
-777.69749999999999
20
511.40500000000009
42
0.41421356237315748
0
LWPOLYLINE
5
115
100
AcDbEntity
8
0
100
AcDbPolyline
90
8
70
1
43
0.0
10
-829.7974999999999
20
511.40500000000009
10
-829.7974999999999
20
499.40499999999992
42
0.4142135623730534
10
-828.79750000000001
20
498.40499999999992
10
-816.79750000000013
20
498.40500000000009
42
0.41421356237319906
10
-815.7974999999999
20
499.40499999999992
10
-815.7974999999999
20
511.40500000000009
42
0.41421356237309503
10
-816.79750000000001
20
512.4050000000002
10
-828.79750000000001
20
512.4050000000002
42
0.41421356237313667
0
LWPOLYLINE
5
116
100
AcDbEntity
8
0
100
AcDbPolyline
90
8
70
1
43
0.0
10
-885.94749999999999
20
498.40499999999992
10
-873.94749999999999
20
498.40499999999997
42
0.41421356237326151
10
-872.9475000000001
20
499.40499999999992
10
-872.94749999999999
20
511.40500000000009
42
0.41421356237321988
10
-873.94749999999999
20
512.4050000000002
10
-885.94749999999999
20
512.4050000000002
42
0.41421356237313667
10
-886.94749999999999
20
511.40500000000009
10
-886.94749999999999
20
499.40499999999992
42
0.4142135623730534
0
LWPOLYLINE
5
117
100
AcDbEntity
8
0
100
AcDbPolyline
90
8
70
1
43
0.0
10
-809.74749999999983
20
498.40499999999992
10
-797.74749999999983
20
498.40499999999986
42
0.41421356237313667
10
-796.74749999999995
20
499.40499999999992
10
-796.74749999999995
20
511.40500000000009
42
0.41421356237309503
10
-797.74749999999983
20
512.4050000000002
10
-809.74749999999995
20
512.40499999999997
42
0.41421356237315748
10
-810.74749999999995
20
511.40500000000009
10
-810.74749999999995
20
499.40499999999992
42
0.41421356237313667
0
LWPOLYLINE
5
118
100
AcDbEntity
8
0
100
AcDbPolyline
90
8
70
1
43
0.0
10
-759.64749999999981
20
512.4050000000002
10
-771.64750000000004
20
512.40500000000009
42
0.41421356237307422
10
-772.64749999999992
20
511.40500000000009
10
-772.64749999999992
20
499.40499999999992
42
0.41421356237307422
10
-771.64750000000015
20
498.40499999999992
10
-759.64749999999981
20
498.40499999999986
42
0.41421356237313667
10
-758.64749999999981
20
499.40499999999992
10
-758.64749999999981
20
511.40500000000009
42
0.41421356237309503
0
LWPOLYLINE
5
119
100
AcDbEntity
8
0
100
AcDbPolyline
90
8
70
1
43
0.0
10
-677.66249999999991
20
454.26250000000016
42
0.4142135623730534
10
-678.6624999999998
20
455.26250000000016
10
-690.66249999999968
20
455.2625000000001
42
0.41421356237330315
10
-691.6624999999998
20
454.26250000000016
10
-691.6624999999998
20
442.26249999999999
42
0.41421356237340717
10
-690.66249999999968
20
441.26249999999999
10
-678.6624999999998
20
441.26249999999993
42
0.41421356237313667
10
-677.66249999999991
20
442.26249999999999
0
LWPOLYLINE
5
120
100
AcDbEntity
8
0
100
AcDbPolyline
90
8
70
1
43
0.0
10
-972.65000000000043
20
435.21250000000009
42
-0.41421356237307422
10
-971.65000000000032
20
436.2125000000002
10
-959.65000000000032
20
436.2125000000002
42
-0.41421356237313667
10
-958.65000000000032
20
435.21250000000009
10
-958.65000000000032
20
423.21249999999998
42
-0.4142135623730534
10
-959.65000000000032
20
422.21249999999998
10
-971.6500000000002
20
422.21250000000009
42
-0.41421356237319906
10
-972.65000000000043
20
423.21249999999998
0
LWPOLYLINE
5
121
100
AcDbEntity
8
0
100
AcDbPolyline
90
8
70
1
43
0.0
10
-725.28749999999991
20
435.21250000000003
42
0.41421356237309503
10
-726.28749999999968
20
436.21250000000009
10
-738.28749999999957
20
436.21250000000003
42
0.41421356237319906
10
-739.28749999999934
20
435.21250000000003
10
-739.28749999999945
20
423.21249999999998
42
0.4142135623730534
10
-738.28749999999968
20
422.21249999999998
10
-726.28749999999968
20
422.21249999999998
42
0.41421356237315748
10
-725.28749999999991
20
423.21249999999998
0
LWPOLYLINE
5
122
100
AcDbEntity
8
0
100
AcDbPolyline
90
8
70
1
43
0.0
10
-853.89749999999992
20
511.40500000000009
42
0.41421356237309503
10
-854.89749999999981
20
512.4050000000002
10
-866.89750000000004
20
512.40500000000009
42
0.41421356237307422
10
-867.89750000000015
20
511.40500000000009
10
-867.89750000000015
20
499.40499999999992
42
0.41421356237307422
10
-866.89750000000004
20
498.40499999999992
10
-854.89749999999981
20
498.40499999999986
42
0.41421356237313667
10
-853.89749999999992
20
499.40499999999992
0
LWPOLYLINE
5
123
100
AcDbEntity
8
0
100
AcDbPolyline
90
8
70
1
43
0.0
10
-835.84749999999985
20
498.40499999999986
42
0.41421356237313667
10
-834.84749999999985
20
499.40499999999992
10
-834.84749999999985
20
511.40500000000009
42
0.41421356237309503
10
-835.84749999999985
20
512.4050000000002
10
-847.84750000000008
20
512.4050000000002
42
0.41421356237313667
10
-848.84749999999997
20
511.40500000000009
10
-848.84749999999997
20
499.40499999999992
42
0.4142135623730534
10
-847.84750000000008
20
498.40499999999992
0
LWPOLYLINE
5
124
100
AcDbEntity
8
0
100
AcDbPolyline
90
8
70
1
43
0.0
10
-763.09999999999968
20
435.21250000000003
10
-763.09999999999968
20
423.21249999999998
42
0.41421356237313667
10
-762.09999999999968
20
422.21249999999998
10
-750.0999999999998
20
422.21250000000003
42
0.41421356237326151
10
-749.0999999999998
20
423.21249999999998
10
-749.09999999999968
20
435.21250000000003
42
0.41421356237319906
10
-750.0999999999998
20
436.21250000000009
10
-762.0999999999998
20
436.21249999999986
42
0.41421356237315748
0
LWPOLYLINE
5
125
100
AcDbEntity
8
0
100
AcDbPolyline
90
8
70
1
43
0.0
10
-659.6124999999995
20
422.21249999999998
42
0.41421356237303258
10
-658.61249999999984
20
423.21249999999998
10
-658.61249999999984
20
435.21250000000009
42
0.41421356237326151
10
-659.61249999999961
20
436.2125000000002
10
-671.61249999999984
20
436.2125000000002
42
0.41421356237321988
10
-672.61250000000007
20
435.21250000000009
10
-672.61250000000007
20
423.21249999999998
42
0.41421356237328233
10
-671.61249999999984
20
422.21249999999998
0
LWPOLYLINE
5
126
100
AcDbEntity
8
0
100
AcDbPolyline
90
8
70
1
43
0.0
10
-677.66249999999991
20
423.21249999999998
10
-677.66249999999991
20
435.21250000000009
42
0.41421356237307422
10
-678.6624999999998
20
436.2125000000002
10
-690.66249999999968
20
436.21250000000009
42
0.4142135623732407
10
-691.6624999999998
20
435.21250000000009
10
-691.6624999999998
20
423.21249999999998
42
0.41421356237340717
10
-690.66249999999968
20
422.21249999999998
10
-678.6624999999998
20
422.21249999999992
42
0.41421356237313667
0
LWPOLYLINE
5
127
100
AcDbEntity
8
0
100
AcDbPolyline
90
8
70
1
43
0.0
10
-671.61249999999984
20
479.36250000000001
10
-659.61249999999973
20
479.36250000000001
42
0.41421356237307422
10
-658.61249999999984
20
480.36250000000001
10
-658.61249999999984
20
492.36250000000013
42
0.41421356237313667
10
-659.61249999999961
20
493.36250000000013
10
-671.61249999999984
20
493.36250000000007
42
0.41421356237326151
10
-672.61250000000007
20
492.36250000000013
10
-672.61250000000007
20
480.36250000000001
42
0.41421356237328233
0
LWPOLYLINE
5
128
100
AcDbEntity
8
0
100
AcDbPolyline
90
8
70
1
43
0.0
10
-935.83750000000032
20
436.2125000000002
42
-0.41421356237313667
10
-934.83750000000043
20
435.21250000000009
10
-934.83750000000043
20
423.21249999999998
42
-0.4142135623730534
10
-935.83750000000032
20
422.21249999999998
10
-947.83750000000043
20
422.21250000000003
42
-0.41421356237326151
10
-948.83750000000032
20
423.21249999999998
10
-948.83750000000055
20
435.21250000000009
42
-0.41421356237319906
10
-947.83750000000043
20
436.2125000000002
0
LWPOLYLINE
5
129
100
AcDbEntity
8
0
100
AcDbPolyline
90
8
70
1
43
0.0
10
-710.71250000000009
20
442.26249999999999
42
0.41421356237319906
10
-709.71249999999986
20
441.26249999999999
10
-697.71250000000009
20
441.26250000000016
42
0.41421356237319906
10
-696.71249999999986
20
442.26249999999999
10
-696.71249999999986
20
454.26250000000016
42
0.41421356237313667
10
-697.71249999999998
20
455.26250000000016
10
-709.71249999999986
20
455.26250000000027
42
0.41421356237334478
10
-710.71249999999986
20
454.26250000000016
0
LWPOLYLINE
5
130
100
AcDbEntity
8
0
100
AcDbPolyline
90
8
70
1
43
0.0
10
-658.61249999999984
20
511.41250000000014
42
0.41421356237334478
10
-659.61249999999961
20
512.41250000000025
10
-671.61249999999984
20
512.41250000000025
42
0.41421356237321988
10
-672.61250000000007
20
511.41250000000014
10
-672.61250000000007
20
499.41250000000002
42
0.41421356237328233
10
-671.61249999999984
20
498.41250000000002
10
-659.61249999999973
20
498.41250000000002
42
0.41421356237307422
10
-658.61249999999984
20
499.41250000000002
0
LWPOLYLINE
5
131
100
AcDbEntity
8
0
100
AcDbPolyline
90
8
70
1
43
0.0
10
-690.66249999999968
20
512.41250000000014
42
0.4142135623732407
10
-691.6624999999998
20
511.41250000000014
10
-691.6624999999998
20
499.41250000000002
42
0.41421356237340717
10
-690.66249999999968
20
498.41250000000002
10
-678.6624999999998
20
498.41249999999997
42
0.41421356237313667
10
-677.66249999999991
20
499.41250000000002
10
-677.66250000000002
20
511.41250000000014
42
0.41421356237311585
10
-678.6624999999998
20
512.41250000000025
0
LWPOLYLINE
5
132
100
AcDbEntity
8
0
100
AcDbPolyline
90
8
70
1
43
0.0
10
-697.71249999999986
20
498.41250000000014
42
0.41421356237315748
10
-696.71249999999986
20
499.41250000000002
10
-696.71249999999986
20
511.41250000000014
42
0.41421356237311585
10
-697.71249999999998
20
512.41250000000025
10
-709.71249999999964
20
512.41250000000014
42
0.41421356237332396
10
-710.71249999999986
20
511.41250000000014
10
-710.71250000000009
20
499.41250000000002
42
0.41421356237319906
10
-709.71249999999986
20
498.41250000000002
0
LWPOLYLINE
5
133
100
AcDbEntity
8
0
100
AcDbPolyline
90
8
70
1
43
0.0
10
-658.61249999999984
20
454.26250000000016
42
0.41421356237307422
10
-659.61249999999961
20
455.26250000000016
10
-671.61249999999973
20
455.26250000000016
42
0.41421356237328233
10
-672.61250000000007
20
454.26250000000016
10
-672.61250000000007
20
442.26249999999999
42
0.41421356237328233
10
-671.61249999999984
20
441.26249999999999
10
-659.61249999999973
20
441.26249999999999
42
0.41421356237307422
10
-658.61249999999984
20
442.26249999999999
0
LWPOLYLINE
5
134
100
AcDbEntity
8
0
100
AcDbPolyline
90
8
70
1
43
0.0
10
-691.6624999999998
20
492.36250000000013
10
-691.6624999999998
20
480.36250000000001
42
0.41421356237340717
10
-690.66249999999968
20
479.36250000000001
10
-678.6624999999998
20
479.36249999999995
42
0.41421356237313667
10
-677.66249999999991
20
480.36250000000001
10
-677.66249999999991
20
492.36250000000013
42
0.41421356237313667
10
-678.6624999999998
20
493.36250000000013
10
-690.66249999999968
20
493.36250000000007
42
0.41421356237330315
0
LWPOLYLINE
5
135
100
AcDbEntity
8
0
100
AcDbPolyline
90
8
70
1
43
0.0
10
-696.71249999999986
20
480.36250000000001
10
-696.71249999999986
20
492.36250000000013
42
0.41421356237313667
10
-697.71249999999998
20
493.36250000000013
10
-709.71249999999998
20
493.36250000000001
42
0.41421356237332396
10
-710.71249999999986
20
492.36250000000013
10
-710.71250000000009
20
480.36250000000001
42
0.41421356237319906
10
-709.71249999999986
20
479.36250000000001
10
-697.71250000000009
20
479.36250000000018
42
0.41421356237319906
0
LWPOLYLINE
5
136
100
AcDbEntity
8
0
100
AcDbPolyline
90
8
70
1
43
0.0
10
-658.63868404880009
20
475.83341673530003
10
-658.63868404880009
20
458.76241673530023
42
-0.41421356237313667
10
-659.6386840488002
20
457.76241673530023
10
-709.73867184179971
20
457.76241673530018
42
-0.41421356237313667
10
-710.7386718417996
20
458.76241673530023
10
-710.7386718417996
20
475.83341673530003
42
-0.41421356237313667
10
-709.73867184179971
20
476.83341673530003
10
-659.6386840488002
20
476.83341673529992
42
-0.41421356237313667
0
LWPOLYLINE
5
137
100
AcDbEntity
8
0
100
AcDbPolyline
90
8
70
1
43
0.0
10
-787.22249999999985
20
480.3549999999999
42
-0.41421356237307422
10
-788.22249999999997
20
479.3549999999999
10
-800.22249999999985
20
479.3549999999999
42
-0.41421356237307422
10
-801.22249999999997
20
480.3549999999999
10
-801.22249999999997
20
492.35500000000002
42
-0.41421356237334478
10
-800.22249999999985
20
493.35500000000013
10
-788.22249999999997
20
493.35500000000013
42
-0.41421356237301177
10
-787.22249999999985
20
492.35500000000002
0
LWPOLYLINE
5
138
100
AcDbEntity
8
0
100
AcDbPolyline
90
8
70
1
43
0.0
10
-806.27249999999992
20
480.35499999999968
10
-806.27249999999981
20
492.35500000000008
42
0.41421356237326151
10
-807.27249999999981
20
493.35500000000013
10
-819.27250000000015
20
493.35500000000002
42
0.41421356237311585
10
-820.27249999999981
20
492.3550000000003
10
-820.27249999999981
20
480.3549999999999
42
0.41421356237319906
10
-819.27250000000015
20
479.3549999999999
10
-807.27250000000004
20
479.35499999999985
42
0.41421356237307422
0
LWPOLYLINE
5
139
100
AcDbEntity
8
0
100
AcDbPolyline
90
8
70
1
43
0.0
10
-712.1884277014974
20
423.19842714225888
42
-0.41421356237313667
10
-713.18842770149718
20
422.19842714225882
10
-718.18842770149729
20
422.19842714225882
42
-0.41421356237328233
10
-719.18842770149718
20
423.19842714225888
10
-719.18842770149706
20
511.39791063129996
42
-0.41421356237328233
10
-718.18842770149718
20
512.39791063129996
10
-713.18842770149729
20
512.39791063129996
42
-0.41421356237307422
10
-712.1884277014974
20
511.39791063129996
0
LWPOLYLINE
5
140
100
AcDbEntity
8
0
100
AcDbPolyline
90
8
70
1
43
0.0
10
-801.5100000000001
20
461.30499999999978
42
-0.41421356237313667
10
-802.50999999999999
20
460.30499999999972
10
-814.51000000000022
20
460.30500000000006
42
-0.4142135623731783
10
-815.50999999999999
20
461.30499999999984
10
-815.50999999999999
20
473.30500000000029
42
-0.4142135623731783
10
-814.51000000000022
20
474.30500000000006
10
-802.50999999999999
20
474.30500000000018
42
-0.41421356237301177
10
-801.5100000000001
20
473.30500000000023
0
LWPOLYLINE
5
141
100
AcDbEntity
8
0
100
AcDbPolyline
90
8
70
1
43
0.0
10
-825.32249999999999
20
492.35500000000002
10
-825.32249999999999
20
480.3549999999999
42
-0.41421356237313667
10
-826.32249999999999
20
479.3549999999999
10
-838.32249999999999
20
479.35499999999996
42
-0.41421356237313667
10
-839.3225000000001
20
480.3549999999999
10
-839.3225000000001
20
492.35500000000002
42
-0.4142135623731783
10
-838.32249999999999
20
493.35500000000013
10
-826.32249999999999
20
493.35500000000025
42
-0.4142135623731783
0
LWPOLYLINE
5
142
100
AcDbEntity
8
0
100
AcDbPolyline
90
8
70
1
43
0.0
10
-782.17249999999979
20
480.3549999999999
42
0.41421356237309503
10
-781.17250000000013
20
479.3549999999999
10
-769.1724999999999
20
479.35499999999985
42
0.41421356237313667
10
-768.17250000000001
20
480.3549999999999
10
-768.17250000000001
20
492.35500000000002
42
0.41421356237311585
10
-769.1724999999999
20
493.35500000000025
10
-781.17250000000013
20
493.35500000000019
42
0.41421356237311585
10
-782.1724999999999
20
492.35500000000002
0
LWPOLYLINE
5
143
100
AcDbEntity
8
0
100
AcDbPolyline
90
8
70
1
43
0.0
10
-853.6099999999999
20
473.30500000000001
42
-0.41421356237311585
10
-852.61000000000024
20
474.30500000000006
10
-840.60999999999979
20
474.30500000000001
42
-0.41421356237294937
10
-839.61000000000013
20
473.30500000000001
10
-839.61000000000013
20
461.30499999999984
42
-0.41421356237309503
10
-840.6099999999999
20
460.30499999999995
10
-852.61000000000024
20
460.30500000000006
42
-0.4142135623731783
10
-853.61000000000001
20
461.30499999999984
0
LWPOLYLINE
5
144
100
AcDbEntity
8
0
100
AcDbPolyline
90
8
70
1
43
0.0
10
-821.55999999999972
20
460.30500000000012
42
0.41421356237319906
10
-820.55999999999983
20
461.30499999999984
10
-820.55999999999983
20
473.30500000000001
42
0.41421356237311585
10
-821.55999999999995
20
474.30500000000023
10
-833.55999999999995
20
474.30500000000023
42
0.4142135623731783
10
-834.55999999999995
20
473.30500000000001
10
-834.55999999999995
20
461.30499999999984
42
0.4142135623730534
10
-833.55999999999995
20
460.30499999999995
0
LWPOLYLINE
5
145
100
AcDbEntity
8
0
100
AcDbPolyline
90
8
70
1
43
0.0
10
-863.4224999999999
20
480.3549999999999
10
-863.42250000000013
20
492.35500000000002
42
0.4142135623732407
10
-864.42250000000001
20
493.35500000000025
10
-876.42250000000013
20
493.35500000000002
42
0.41421356237315748
10
-877.42250000000001
20
492.35500000000002
10
-877.42250000000013
20
480.3549999999999
42
0.41421356237313667
10
-876.42250000000001
20
479.3549999999999
10
-864.42250000000001
20
479.3549999999999
42
0.41421356237307422
0
LWPOLYLINE
5
146
100
AcDbEntity
8
0
100
AcDbPolyline
90
8
70
1
43
0.0
10
-858.37249999999983
20
492.35500000000002
42
-0.41421356237334478
10
-857.37250000000006
20
493.35500000000013
10
-845.37249999999972
20
493.35500000000002
42
-0.41421356237315748
10
-844.37249999999995
20
492.35500000000002
10
-844.37249999999972
20
480.3549999999999
42
-0.41421356237326151
10
-845.37249999999983
20
479.3549999999999
10
-857.37250000000017
20
479.3549999999999
42
-0.41421356237303258
10
-858.37249999999983
20
480.3549999999999
0
LWPOLYLINE
5
147
100
AcDbEntity
8
0
100
AcDbPolyline
90
8
70
1
43
0.0
10
-939.62249999999995
20
480.3549999999999
42
-0.41421356237307422
10
-940.62250000000006
20
479.3549999999999
10
-952.62249999999995
20
479.3549999999999
42
-0.41421356237307422
10
-953.62250000000006
20
480.3549999999999
10
-953.62250000000006
20
492.35500000000002
42
-0.41421356237334478
10
-952.62249999999995
20
493.35500000000013
10
-940.62250000000006
20
493.35500000000013
42
-0.41421356237301177
10
-939.62249999999995
20
492.35500000000002
0
LWPOLYLINE
5
148
100
AcDbEntity
8
0
100
AcDbPolyline
90
8
70
1
43
0.0
10
-891.70999999999992
20
473.30500000000001
42
-0.41421356237311585
10
-890.71000000000026
20
474.30500000000006
10
-878.70999999999981
20
474.30500000000001
42
-0.41421356237311585
10
-877.71000000000015
20
473.30500000000001
10
-877.71000000000015
20
461.30499999999984
42
-0.4142135623730534
10
-878.70999999999981
20
460.30499999999995
10
-890.71000000000026
20
460.30500000000006
42
-0.4142135623731783
10
-891.71000000000004
20
461.30499999999984
0
LWPOLYLINE
5
149
100
AcDbEntity
8
0
100
AcDbPolyline
90
8
70
1
43
0.0
10
-883.47249999999985
20
493.35500000000025
10
-895.47249999999985
20
493.35500000000002
42
0.41421356237299095
10
-896.47249999999985
20
492.35500000000002
10
-896.47249999999985
20
480.3549999999999
42
0.41421356237313667
10
-895.47250000000008
20
479.3549999999999
10
-883.47249999999985
20
479.35499999999996
42
0.41421356237326151
10
-882.47249999999997
20
480.3549999999999
10
-882.47249999999985
20
492.35500000000002
42
0.4142135623732407
0
LWPOLYLINE
5
150
100
AcDbEntity
8
0
100
AcDbPolyline
90
8
70
1
43
0.0
10
-795.46000000000026
20
474.30500000000001
42
0.41421356237294937
10
-796.45999999999981
20
473.30500000000001
10
-796.46000000000015
20
461.30499999999984
42
0.41421356237288692
10
-795.46000000000004
20
460.30499999999995
10
-783.46000000000004
20
460.30500000000012
42
0.4142135623732407
10
-782.45999999999981
20
461.30499999999984
10
-782.45999999999981
20
473.30500000000001
42
0.41421356237311585
10
-783.45999999999992
20
474.30500000000023
0
LWPOLYLINE
5
151
100
AcDbEntity
8
0
100
AcDbPolyline
90
8
70
1
43
0.0
10
-972.67250000000013
20
480.3549999999999
42
0.41421356237326151
10
-971.67250000000013
20
479.3549999999999
10
-959.67250000000013
20
479.35499999999985
42
0.41421356237313667
10
-958.67250000000013
20
480.3549999999999
10
-958.67250000000013
20
492.35500000000002
42
0.41421356237311585
10
-959.67250000000013
20
493.35500000000025
10
-971.6724999999999
20
493.35500000000002
42
0.41421356237319906
10
-972.67250000000001
20
492.35500000000002
0
LWPOLYLINE
5
152
100
AcDbEntity
8
0
100
AcDbPolyline
90
8
70
1
43
0.0
10
-935.86000000000013
20
474.30500000000006
42
-0.41421356237301177
10
-934.86000000000001
20
473.30500000000001
10
-934.86000000000013
20
461.30499999999984
42
-0.4142135623730534
10
-935.86000000000013
20
460.30499999999995
10
-947.86000000000001
20
460.30499999999989
42
-0.4142135623730534
10
-948.86000000000013
20
461.30499999999984
10
-948.86000000000013
20
473.30500000000001
42
-0.41421356237334478
10
-947.86000000000001
20
474.30500000000006
0
LWPOLYLINE
5
153
100
AcDbEntity
8
0
100
AcDbPolyline
90
8
70
1
43
0.0
10
-872.66000000000008
20
461.30499999999984
10
-872.66000000000008
20
473.30500000000001
42
-0.41421356237334478
10
-871.65999999999997
20
474.30500000000006
10
-859.65999999999997
20
474.30500000000006
42
-0.4142135623731783
10
-858.65999999999985
20
473.30500000000001
10
-858.65999999999985
20
461.30499999999984
42
-0.41421356237288692
10
-859.65999999999997
20
460.30499999999995
10
-871.65999999999997
20
460.30499999999989
42
-0.4142135623730534
0
LWPOLYLINE
5
154
100
AcDbEntity
8
0
100
AcDbPolyline
90
8
70
1
43
0.0
10
-915.80999999999995
20
473.30500000000001
42
0.4142135623732407
10
-916.80999999999995
20
474.30500000000023
10
-928.80999999999995
20
474.30500000000023
42
0.4142135623731783
10
-929.80999999999995
20
473.30500000000001
10
-929.80999999999995
20
461.30499999999984
42
0.41421356237299095
10
-928.80999999999995
20
460.30499999999995
10
-916.81000000000017
20
460.30499999999995
42
0.41421356237307422
10
-915.81000000000006
20
461.30499999999984
0
LWPOLYLINE
5
155
100
AcDbEntity
8
0
100
AcDbPolyline
90
8
70
1
43
0.0
10
-967.90999999999997
20
473.30500000000001
10
-967.90999999999997
20
461.30499999999984
42
0.4142135623730534
10
-966.91000000000031
20
460.30499999999995
10
-954.90999999999985
20
460.30499999999995
42
0.41421356237303258
10
-953.91000000000008
20
461.30499999999984
10
-953.90999999999985
20
473.30500000000001
42
0.4142135623732407
10
-954.90999999999997
20
474.30500000000023
10
-966.91000000000031
20
474.30500000000001
42
0.41421356237311585
0
LWPOLYLINE
5
156
100
AcDbEntity
8
0
100
AcDbPolyline
90
8
70
1
43
0.0
10
-764.40999999999985
20
460.30499999999995
10
-776.41000000000008
20
460.30500000000006
42
-0.41421356237309503
10
-777.40999999999985
20
461.30499999999984
10
-777.40999999999985
20
473.30500000000001
42
-0.41421356237334478
10
-776.41000000000008
20
474.30500000000006
10
-764.41000000000008
20
474.30500000000001
42
-0.41421356237319906
10
-763.40999999999997
20
473.30500000000001
10
-763.40999999999997
20
461.30499999999984
42
-0.41421356237299095
0
LWPOLYLINE
5
157
100
AcDbEntity
8
0
100
AcDbPolyline
90
8
70
1
43
0.0
10
-934.57250000000022
20
480.3549999999999
42
0.41421356237313667
10
-933.5725000000001
20
479.3549999999999
10
-921.57249999999999
20
479.35499999999985
42
0.41421356237313667
10
-920.5725000000001
20
480.3549999999999
10
-920.5725000000001
20
492.35500000000002
42
0.41421356237311585
10
-921.57249999999999
20
493.35500000000025
10
-933.57249999999999
20
493.35500000000002
42
0.41421356237319906
10
-934.57249999999999
20
492.35500000000002
0
LWPOLYLINE
5
158
100
AcDbEntity
8
0
100
AcDbPolyline
90
8
70
1
43
0.0
10
-902.52250000000004
20
493.35500000000025
10
-914.52249999999992
20
493.35500000000002
42
0.41421356237299095
10
-915.52249999999981
20
492.35500000000002
10
-915.52250000000015
20
480.3549999999999
42
0.41421356237313667
10
-914.52250000000004
20
479.3549999999999
10
-902.52250000000004
20
479.35499999999985
42
0.41421356237313667
10
-901.52250000000004
20
480.3549999999999
10
-901.52250000000004
20
492.35500000000002
42
0.41421356237311585
0
LWPOLYLINE
5
159
100
AcDbEntity
8
0
100
AcDbPolyline
90
8
70
1
43
0.0
10
-909.75999999999999
20
460.30499999999989
42
-0.4142135623730534
10
-910.7600000000001
20
461.30499999999984
10
-910.7600000000001
20
473.30500000000001
42
-0.41421356237334478
10
-909.75999999999999
20
474.30500000000006
10
-897.7600000000001
20
474.30500000000006
42
-0.41421356237301177
10
-896.75999999999999
20
473.30500000000001
10
-896.76000000000022
20
461.30499999999984
42
-0.4142135623730534
10
-897.7600000000001
20
460.30499999999995
0
LWPOLYLINE
5
160
100
AcDbEntity
8
0
100
AcDbPolyline
90
8
70
1
43
0.0
10
-762.12249999999983
20
493.35500000000013
10
-750.12249999999995
20
493.35500000000002
42
-0.41421356237319906
10
-749.12249999999983
20
492.35500000000002
10
-749.12249999999972
20
480.3549999999999
42
-0.41421356237326151
10
-750.12249999999983
20
479.3549999999999
10
-762.12249999999983
20
479.3549999999999
42
-0.41421356237307422
10
-763.12249999999995
20
480.3549999999999
10
-763.12249999999995
20
492.35500000000002
42
-0.41421356237334478
0
LWPOLYLINE
5
161
100
AcDbEntity
8
0
100
AcDbPolyline
90
8
70
1
43
0.0
10
-850.13499999999999
20
441.25500000000011
42
0.41421356237319906
10
-849.13499999999999
20
442.25499999999982
10
-849.13499999999999
20
454.255
42
0.41421356237311585
10
-850.1350000000001
20
455.25500000000022
10
-862.1350000000001
20
455.25500000000022
42
0.4142135623731783
10
-863.13499999999999
20
454.255
10
-863.13499999999999
20
442.25499999999982
42
0.41421356237299095
10
-862.1350000000001
20
441.25499999999994
0
LWPOLYLINE
5
162
100
AcDbEntity
8
0
100
AcDbPolyline
90
8
70
1
43
0.0
10
-925.33500000000004
20
442.25499999999982
10
-925.33500000000004
20
454.255
42
0.41421356237311585
10
-926.33500000000015
20
455.25500000000022
10
-938.33500000000015
20
455.25500000000022
42
0.4142135623731783
10
-939.33500000000004
20
454.255
10
-939.33500000000004
20
442.25499999999982
42
0.41421356237299095
10
-938.33500000000015
20
441.25499999999994
10
-926.33500000000026
20
441.25500000000011
42
0.4142135623732407
0
LWPOLYLINE
5
163
100
AcDbEntity
8
0
100
AcDbPolyline
90
8
70
1
43
0.0
10
-868.18499999999983
20
442.25499999999982
10
-868.18499999999995
20
454.255
42
0.4142135623732407
10
-869.18499999999995
20
455.25500000000022
10
-881.18500000000029
20
455.25500000000011
42
0.41421356237321988
10
-882.18499999999995
20
454.255
10
-882.18500000000006
20
442.25499999999982
42
0.41421356237309503
10
-881.18500000000029
20
441.25499999999994
10
-869.18499999999995
20
441.25499999999988
42
0.4142135623730534
0
LWPOLYLINE
5
164
100
AcDbEntity
8
0
100
AcDbPolyline
90
8
70
1
43
0.0
10
-786.93499999999983
20
454.255
10
-786.93499999999983
20
442.25499999999982
42
0.41421356237294937
10
-785.93500000000006
20
441.25499999999994
10
-773.93499999999995
20
441.25499999999994
42
0.41421356237307422
10
-772.93499999999995
20
442.25499999999982
10
-772.93499999999995
20
454.255
42
0.41421356237311585
10
-773.93499999999995
20
455.25500000000022
10
-785.93500000000006
20
455.25500000000017
42
0.41421356237311585
0
LWPOLYLINE
5
165
100
AcDbEntity
8
0
100
AcDbPolyline
90
8
70
1
43
0.0
10
-804.98500000000024
20
455.25500000000011
42
0.41421356237309503
10
-805.98500000000001
20
454.25500000000028
10
-805.98500000000001
20
442.25499999999982
42
0.41421356237309503
10
-804.98500000000024
20
441.25499999999994
10
-792.9849999999999
20
441.25499999999977
42
0.41421356237303258
10
-791.9849999999999
20
442.25499999999977
10
-791.9849999999999
20
454.25500000000005
42
0.41421356237313667
10
-792.9849999999999
20
455.25500000000011
0
LWPOLYLINE
5
166
100
AcDbEntity
8
0
100
AcDbPolyline
90
8
70
1
43
0.0
10
-812.03499999999985
20
441.25499999999994
42
0.41421356237307422
10
-811.03499999999997
20
442.25499999999982
10
-811.03499999999997
20
454.255
42
0.41421356237311585
10
-812.03499999999985
20
455.25500000000022
10
-824.03500000000008
20
455.25500000000017
42
0.41421356237311585
10
-825.03499999999985
20
454.255
10
-825.03500000000008
20
442.25499999999982
42
0.41421356237299095
10
-824.03500000000008
20
441.25499999999994
0
LWPOLYLINE
5
167
100
AcDbEntity
8
0
100
AcDbPolyline
90
8
70
1
43
0.0
10
-843.08500000000004
20
441.25499999999994
10
-831.08499999999992
20
441.255
42
0.4142135623731783
10
-830.08500000000015
20
442.25499999999982
10
-830.08500000000026
20
454.255
42
0.41421356237307422
10
-831.08499999999992
20
455.25500000000022
10
-843.08500000000004
20
455.25500000000017
42
0.41421356237311585
10
-844.08499999999992
20
454.255
10
-844.08500000000004
20
442.25499999999982
42
0.41421356237299095
0
LWPOLYLINE
5
168
100
AcDbEntity
8
0
100
AcDbPolyline
90
8
70
1
43
0.0
10
-920.28500000000008
20
442.25499999999982
42
0.41421356237288692
10
-919.28499999999997
20
441.25499999999994
10
-907.28499999999997
20
441.25499999999994
42
0.41421356237307422
10
-906.28500000000008
20
442.25499999999982
10
-906.28500000000008
20
454.255
42
0.41421356237311585
10
-907.28499999999997
20
455.25500000000022
10
-919.28499999999997
20
455.25500000000011
42
0.4142135623731783
10
-920.28500000000008
20
454.255
0
LWPOLYLINE
5
169
100
AcDbEntity
8
0
100
AcDbPolyline
90
8
70
1
43
0.0
10
-957.38500000000022
20
455.25500000000022
42
0.4142135623731783
10
-958.3850000000001
20
454.255
10
-958.3850000000001
20
442.25499999999982
42
0.41421356237299095
10
-957.38500000000022
20
441.25499999999994
10
-945.38499999999999
20
441.25499999999994
42
0.41421356237303258
10
-944.38500000000022
20
442.25499999999982
10
-944.38499999999999
20
454.255
42
0.4142135623732407
10
-945.3850000000001
20
455.25500000000022
0
LWPOLYLINE
5
170
100
AcDbEntity
8
0
100
AcDbPolyline
90
8
70
1
43
0.0
10
-887.23500000000001
20
454.255
42
0.41421356237311585
10
-888.2349999999999
20
455.25500000000022
10
-900.23500000000013
20
455.25500000000022
42
0.4142135623731783
10
-901.23500000000013
20
454.255
10
-901.23500000000013
20
442.25499999999982
42
0.41421356237299095
10
-900.23500000000013
20
441.25499999999994
10
-888.2349999999999
20
441.25499999999994
42
0.41421356237307422
10
-887.23500000000001
20
442.25499999999982
0
LWPOLYLINE
5
171
100
AcDbEntity
8
0
100
AcDbPolyline
90
8
70
1
43
0.0
10
-728.75575000000015
20
453.26249999999993
42
0.41421356237328233
10
-729.75575000000003
20
454.26249999999993
10
-734.75574999999992
20
454.26249999999982
42
0.41421356237315748
10
-735.75574999999981
20
453.26249999999993
10
-735.75574999999981
20
440.26250000000033
42
0.41421356237307422
10
-734.75574999999981
20
439.26250000000027
10
-729.75575000000026
20
439.26250000000033
42
0.41421356237328233
10
-728.75575000000015
20
440.26250000000033
0
LWPOLYLINE
5
172
100
AcDbEntity
8
0
100
AcDbPolyline
90
8
70
1
43
0.0
10
-968.1975000000001
20
499.40499999999992
10
-968.1975000000001
20
511.40500000000009
42
0.41421356237328233
10
-969.19750000000022
20
512.4050000000002
10
-981.1975000000001
20
512.40500000000009
42
0.41421356237307422
10
-982.19750000000022
20
511.40500000000009
10
-982.19750000000022
20
499.40499999999992
42
0.41421356237307422
10
-981.1975000000001
20
498.40499999999992
10
-969.19750000000022
20
498.40499999999992
42
0.41421356237307422
0
LWPOLYLINE
5
173
100
AcDbEntity
8
0
100
AcDbPolyline
90
8
70
1
43
0.0
10
-996.46250000000032
20
435.21250000000009
42
-0.41421356237307422
10
-995.46250000000043
20
436.2125000000002
10
-983.46250000000043
20
436.21250000000003
42
-0.41421356237313667
10
-982.46250000000032
20
435.21250000000009
10
-982.46250000000032
20
423.21249999999998
42
-0.41421356237313667
10
-983.46250000000043
20
422.21249999999998
10
-995.46250000000043
20
422.21249999999992
42
-0.41421356237313667
10
-996.46250000000032
20
423.21249999999998
0
LWPOLYLINE
5
174
100
AcDbEntity
8
0
100
AcDbPolyline
90
8
70
1
43
0.0
10
-915.52499999999998
20
435.21249999999998
42
-0.41421356237313667
10
-914.52499999999986
20
434.21249999999998
10
-914.52499999999986
20
421.21250000000003
42
-0.41421356237313667
10
-915.52499999999998
20
420.21250000000003
10
-920.52500000000032
20
420.21249999999998
42
-0.41421356237313667
10
-921.52500000000032
20
421.21250000000003
10
-921.52500000000032
20
434.21249999999998
42
-0.41421356237313667
10
-920.52500000000032
20
435.21250000000003
0
LWPOLYLINE
5
175
100
AcDbEntity
8
0
100
AcDbPolyline
90
8
70
1
43
0.0
10
-737.19374999999991
20
454.26250000000016
10
-737.19374999999991
20
442.26249999999999
42
-0.41421356237307422
10
-738.19374999999968
20
441.26249999999999
10
-750.19374999999968
20
441.26250000000005
42
-0.41421356237330315
10
-751.1937499999998
20
442.26249999999999
10
-751.1937499999998
20
454.26250000000016
42
-0.41421356237340717
10
-750.19374999999968
20
455.26250000000016
10
-738.19374999999945
20
455.26250000000016
42
-0.41421356237303258
0
LWPOLYLINE
5
176
100
AcDbEntity
8
0
100
AcDbPolyline
90
8
70
1
43
0.0
10
-962.14750000000004
20
512.4050000000002
42
0.41421356237313667
10
-963.14750000000004
20
511.40500000000009
10
-963.14750000000004
20
499.40499999999992
42
0.4142135623730534
10
-962.14750000000004
20
498.40499999999992
10
-950.14750000000004
20
498.40499999999997
42
0.41421356237326151
10
-949.14750000000015
20
499.40499999999992
10
-949.14750000000004
20
511.40500000000009
42
0.41421356237321988
10
-950.14750000000004
20
512.4050000000002
0
LWPOLYLINE
5
177
100
AcDbEntity
8
0
100
AcDbPolyline
90
8
70
1
43
0.0
10
-838.32249999999999
20
522.21750000000031
10
-826.32249999999999
20
522.21750000000031
42
0.41421356237313667
10
-825.32249999999999
20
523.21750000000043
10
-825.32249999999999
20
535.21750000000031
42
0.41421356237319906
10
-826.32249999999999
20
536.21750000000031
10
-838.32249999999999
20
536.21750000000043
42
0.41421356237309503
10
-839.3225000000001
20
535.21750000000031
10
-839.3225000000001
20
523.21750000000043
42
0.41421356237286611
0
LWPOLYLINE
5
178
100
AcDbEntity
8
0
100
AcDbPolyline
90
8
70
1
43
0.0
10
-930.09749999999997
20
511.40500000000009
42
0.41421356237309503
10
-931.09749999999985
20
512.4050000000002
10
-943.09750000000008
20
512.4050000000002
42
0.41421356237313667
10
-944.09750000000008
20
511.40500000000009
10
-944.09750000000008
20
499.40499999999992
42
0.4142135623730534
10
-943.09750000000008
20
498.40499999999992
10
-931.09749999999985
20
498.40499999999986
42
0.41421356237313667
10
-930.09749999999997
20
499.40499999999992
0
LWPOLYLINE
5
179
100
AcDbEntity
8
0
100
AcDbPolyline
90
8
70
1
43
0.0
10
-807.27250000000015
20
536.21750000000031
10
-819.27250000000015
20
536.21750000000054
42
0.41421356237309503
10
-820.27249999999981
20
535.21750000000031
10
-820.27250000000004
20
523.21750000000043
42
0.41421356237290774
10
-819.27249999999981
20
522.21750000000031
10
-807.27250000000004
20
522.21750000000043
42
0.41421356237328233
10
-806.27250000000004
20
523.21750000000043
10
-806.27249999999992
20
535.21750000000031
42
0.41421356237319906
0
LWPOLYLINE
5
180
100
AcDbEntity
8
0
100
AcDbPolyline
90
8
70
1
43
0.0
10
-844.37250000000006
20
523.21750000000043
10
-844.37250000000006
20
535.21750000000031
42
0.41421356237338641
10
-845.37249999999983
20
536.21750000000031
10
-857.37250000000006
20
536.21750000000054
42
0.41421356237297013
10
-858.37249999999983
20
535.21750000000031
10
-858.37250000000017
20
523.21750000000043
42
0.41421356237278284
10
-857.37249999999995
20
522.21750000000031
10
-845.37249999999995
20
522.21750000000043
42
0.41421356237332396
0
LWPOLYLINE
5
181
100
AcDbEntity
8
0
100
AcDbPolyline
90
8
70
1
43
0.0
10
-778.6975000000001
20
536.21750000000031
10
-790.69749999999999
20
536.21750000000043
42
0.41421356237294937
10
-791.6975000000001
20
535.21750000000031
10
-791.69750000000022
20
523.21750000000043
42
0.41421356237290774
10
-790.69749999999999
20
522.21750000000031
10
-778.6975000000001
20
522.21750000000031
42
0.41421356237334478
10
-777.69749999999999
20
523.21750000000043
10
-777.69749999999999
20
535.21750000000031
42
0.41421356237340717
0
LWPOLYLINE
5
182
100
AcDbEntity
8
0
100
AcDbPolyline
90
8
70
1
43
0.0
10
-877.42250000000013
20
535.21750000000031
10
-877.42250000000013
20
523.21750000000043
42
0.41421356237290774
10
-876.4224999999999
20
522.21750000000031
10
-864.42250000000001
20
522.21750000000031
42
0.41421356237326151
10
-863.42250000000024
20
523.21750000000043
10
-863.42250000000024
20
535.21750000000031
42
0.41421356237315748
10
-864.42250000000001
20
536.21750000000031
10
-876.42250000000001
20
536.21750000000043
42
0.41421356237309503
0
LWPOLYLINE
5
183
100
AcDbEntity
8
0
100
AcDbPolyline
90
8
70
1
43
0.0
10
-759.64749999999981
20
536.21750000000031
10
-771.64750000000015
20
536.21750000000054
42
0.41421356237297013
10
-772.64749999999992
20
535.21750000000031
10
-772.64750000000004
20
523.21750000000043
42
0.41421356237297013
10
-771.64750000000015
20
522.21750000000031
10
-759.64749999999981
20
522.21750000000031
42
0.41421356237313667
10
-758.64749999999981
20
523.21750000000043
10
-758.64750000000004
20
535.21750000000031
42
0.41421356237315748
0
LWPOLYLINE
5
184
100
AcDbEntity
8
0
100
AcDbPolyline
90
8
70
1
43
0.0
10
-753.5975000000002
20
523.21750000000043
42
0.41421356237294937
10
-752.59749999999985
20
522.21750000000031
10
-740.59749999999985
20
522.21750000000043
42
0.41421356237328233
10
-739.59749999999985
20
523.21750000000043
10
-739.59749999999974
20
535.21750000000031
42
0.41421356237319906
10
-740.59749999999997
20
536.21750000000031
10
-752.59749999999985
20
536.21750000000043
42
0.41421356237309503
10
-753.59749999999985
20
535.21750000000031
0
LWPOLYLINE
5
185
100
AcDbEntity
8
0
100
AcDbPolyline
90
8
70
1
43
0.0
10
-678.68499999999995
20
536.21750000000031
10
-690.68499999999995
20
536.21750000000054
42
0.41421356237301177
10
-691.68499999999995
20
535.21750000000031
10
-691.68500000000017
20
523.21750000000043
42
0.41421356237290774
10
-690.68499999999995
20
522.21750000000031
10
-678.68499999999995
20
522.21750000000031
42
0.41421356237321988
10
-677.68500000000006
20
523.21750000000043
10
-677.68500000000017
20
535.21750000000031
42
0.41421356237338641
0
LWPOLYLINE
5
186
100
AcDbEntity
8
0
100
AcDbPolyline
90
8
70
1
43
0.0
10
-671.63499999999999
20
536.21750000000043
42
0.41421356237294937
10
-672.6350000000001
20
535.21750000000031
10
-672.6350000000001
20
523.21750000000043
42
0.41421356237301177
10
-671.63499999999999
20
522.21750000000031
10
-659.6350000000001
20
522.21750000000043
42
0.41421356237332396
10
-658.63499999999988
20
523.21750000000043
10
-658.63499999999999
20
535.21750000000031
42
0.41421356237328233
10
-659.63499999999999
20
536.21750000000031
0
LWPOLYLINE
5
187
100
AcDbEntity
8
0
100
AcDbPolyline
90
8
70
1
43
0.0
10
-725.01575000000003
20
461.30499999999995
10
-730.01575000000014
20
461.30500000000012
42
-0.41421356237326151
10
-731.01575000000014
20
462.30500000000006
10
-731.01575000000014
20
475.30500000000012
42
-0.41421356237328233
10
-730.01575000000014
20
476.30500000000012
10
-725.01575000000003
20
476.30500000000018
42
-0.41421356237313667
10
-724.01575000000003
20
475.30500000000012
10
-724.01575000000003
20
462.30500000000006
42
-0.41421356237307422
0
LWPOLYLINE
5
188
100
AcDbEntity
8
0
100
AcDbPolyline
90
8
70
1
43
0.0
10
-862.00979023572688
20
520.75665462993538
10
-1000.2526413652424
20
520.55561278219386
42
0.41378768220441658
10
-1001.2511871010004
20
519.55561383963652
10
-1001.2511871010003
20
515.05416063129996
42
0.4142135623731783
10
-1000.2511871010005
20
514.05416063129996
10
-862.00147326943181
20
514.05416063129644
42
0.41464106763177366
10
-861.00147433431732
20
515.05562000438749
10
-861.00833703637022
20
519.75811506046887
42
0.41421206602498056
0
LWPOLYLINE
5
189
100
AcDbEntity
8
0
100
AcDbPolyline
90
8
70
1
43
0.0
10
-658.63868404879997
20
515.05416063129996
10
-658.63868404879986
20
520.05270019176828
42
0.41464106763171116
10
-659.64014342189091
20
521.05269912688289
10
-712.80805911168375
20
520.97510721879996
42
0.41378618630660086
10
-713.80659973859269
20
519.97510828368536
10
-713.80659973859281
20
515.05416063129996
42
0.41421356237334478
10
-712.80659973859269
20
514.05416063129996
10
-659.63868404879986
20
514.05416063130008
42
0.41421356237326151
0
LWPOLYLINE
5
190
100
AcDbEntity
8
0
100
AcDbPolyline
90
8
70
1
43
0.0
10
-745.45375000000024
20
474.30500000000023
10
-733.45375000000001
20
474.30500000000029
42
-0.41421356237334478
10
-732.4537499999999
20
473.30500000000023
10
-732.45375000000013
20
461.30500000000018
42
-0.41421356237328233
10
-733.45375000000001
20
460.30500000000018
10
-745.45375000000035
20
460.30500000000018
42
-0.41421356237303258
10
-746.45375000000001
20
461.30500000000018
10
-746.45375000000001
20
473.30500000000023
42
-0.41421356237307422
0
LWPOLYLINE
5
191
100
AcDbEntity
8
0
100
AcDbPolyline
90
8
70
1
43
0.0
10
-858.38450266704911
20
519.76265041341412
10
-858.37762908667287
20
515.05270125820891
42
0.41378618630660091
10
-857.37763015155849
20
514.05416063129962
10
-718.44099556036895
20
514.05416063129996
42
0.41464106763194036
10
-717.44099662525457
20
515.05562000439113
10
-717.44816506044242
20
519.96761104912889
42
0.41421204815898716
10
-718.44961819880064
20
520.96615061868397
10
-857.38595793517811
20
520.76410872915085
42
0.41421507658880347
0
LWPOLYLINE
5
192
100
AcDbEntity
8
0
100
AcDbPolyline
90
8
70
1
43
0.0
10
-721.61200000000008
20
497.41250000000014
42
-0.41421356237309503
10
-722.61199999999974
20
496.41250000000014
10
-727.61199999999974
20
496.41250000000014
42
-0.41421356237328233
10
-728.61199999999985
20
497.41250000000014
10
-728.61199999999963
20
510.41250000000019
42
-0.41421356237328233
10
-727.61199999999985
20
511.41250000000014
10
-722.61199999999974
20
511.41250000000014
42
-0.41421356237313667
10
-721.61199999999997
20
510.41250000000019
0
LWPOLYLINE
5
193
100
AcDbEntity
8
0
100
AcDbPolyline
90
133
70
1
43
0.0
10
-758.93022618449993
20
420.1740479434892
42
-0.26794919299759046
10
-755.46612482562068
20
418.17404748461234
10
-753.4447446990747
20
414.67291333225512
42
0.26794922788387643
10
-751.71269375881047
20
413.67291310285117
10
-748.17679563880006
20
413.67291310305518
42
0.26794919240321058
10
-746.44474483112288
20
414.67291310299777
10
-744.42400126285929
20
418.17294363242411
42
-0.26794919241991916
10
-740.95989964782063
20
420.17294363229411
10
-678.92959001480006
20
420.17294363214728
42
-0.26794919240446408
10
-675.46548839999355
20
418.17294363256821
10
-673.44474483094473
20
414.67291310326294
42
0.26794919239643666
10
-671.71269402381381
20
413.67291310364919
10
-668.17679563879994
20
413.67291310327226
42
0.26794919240340243
10
-666.44474483131046
20
414.67291310310657
10
-664.42400126286475
20
418.17294363242718
42
-0.26794919242088444
10
-660.95989964780699
20
420.17294363230008
10
-657.94217195580006
20
420.1729436322297
42
0.1989123674051263
10
-656.88151178386693
20
420.61228346057408
10
-655.05308465929738
20
422.44071058599752
42
0.18380782493039718
10
-654.61629178887449
20
423.41399578589858
10
-654.61629178886983
20
534.90695266329999
42
0.19891236736649515
10
-655.05563161701616
20
535.96761283497688
10
-656.88405874137038
20
537.79603995962941
42
0.19891236739202506
10
-657.94471891379999
20
538.23537978814795
10
-660.8892362908
20
538.23537978707975
42
-0.26794919247674359
10
-664.35333790664617
20
540.23537978707373
10
-666.37406384895166
20
543.73537978732816
42
0.26794919242646592
10
-668.10611465650015
20
544.73537978729655
10
-671.71524098079999
20
544.73537978730201
42
0.26794919244327264
10
-673.4472917884159
20
543.73537978722231
10
-675.46801773071979
20
540.23537978713171
42
-0.26794919241893222
10
-678.93211934579313
20
538.23537978726574
10
-710.44865963479936
20
538.23537978729962
42
0.41421356237338641
10
-710.9486596347997
20
537.73537978729962
10
-710.94865963479992
20
536.21750000000156
10
-697.73500000000013
20
536.21750000000031
42
-0.41421356237328233
10
-696.73500000000001
20
535.21750000000031
10
-696.73499999999979
20
523.21750000000043
42
-0.41421356237313667
10
-697.73500000000001
20
522.21750000000031
10
-709.73500000000001
20
522.21750000000031
42
-0.41421356237294937
10
-710.73500000000013
20
523.21750000000043
10
-710.73499999999967
20
534.96041063129996
10
-711.49492941503422
20
534.96041063129996
42
0.41464106763202369
10
-711.99492888259158
20
534.4596809447545
10
-711.97869890911443
20
523.33849727005168
42
-0.41421356237321982
10
-712.47796869012632
20
522.8377681159493
10
-718.77260900407589
20
522.8285818774757
42
-0.41421356237292861
10
-719.27333815817929
20
523.32785165848748
10
-719.28958579736343
20
534.46114031784521
42
0.41378618630714153
10
-719.78958526492079
20
534.96041063129996
10
-720.54750000000013
20
534.96041063130008
10
-720.54750000000001
20
523.21750000000043
42
-0.41421356237321988
10
-721.5474999999999
20
522.21750000000031
10
-733.5474999999999
20
522.21750000000031
42
-0.41421356237294937
10
-734.54750000000001
20
523.21750000000043
10
-734.5474999999999
20
535.21750000000031
42
-0.41421356237309503
10
-733.5474999999999
20
536.21750000000043
10
-721.5474999999999
20
536.21750000000031
10
-720.3373351386
20
536.2175000000002
10
-720.33733513860011
20
537.73537978730258
42
0.41421356237197121
10
-720.83733513859772
20
538.23537978730246
10
-740.96246423179991
20
538.23537978740205
42
-0.26794919243156101
10
-744.42656584685255
20
540.23537978735715
10
-746.44729178876912
20
543.73537978737761
42
0.26794919245167326
10
-748.17934259678952
20
544.73537978773902
10
-751.71524098079999
20
544.73537978752711
42
0.26794919244328291
10
-753.44729178861087
20
543.73537978733486
10
-755.46801773066818
20
540.23537978710192
42
-0.26794919241993842
10
-758.932119345807
20
538.23537978720628
10
-820.96246423179991
20
538.23537978735305
42
-0.26794919243160287
10
-824.4265658468953
20
540.23537978733259
10
-826.44729178876912
20
543.73537978737761
42
0.26794919245165111
10
-828.17934259678964
20
544.73537978773879
10
-831.71524098079999
20
544.73537978752711
42
0.26794919244479826
10
-833.44729178839998
20
543.73537978720015
10
-835.46801773067716
20
540.2353797870868
42
-0.2679491924182586
10
-838.93211934580006
20
538.23537978720606
10
-900.96246423179991
20
538.23537978735305
42
-0.26794919243227849
10
-904.42656584690087
20
540.2353797873418
10
-906.44729178876923
20
543.73537978737784
42
0.26794919245159532
10
-908.17934259678964
20
544.73537978773925
10
-911.71524098077612
20
544.73537978752711
42
0.26794919244666043
10
-913.44729178861144
20
543.73537978733486
10
-915.46801773066818
20
540.23537978710192
42
-0.26794919241993781
10
-918.932119345807
20
538.23537978720628
10
-980.96246423179991
20
538.23537978735305
42
-0.26794919243019483
10
-984.42656584688484
20
540.23537978731451
10
-986.44729178887133
20
543.73537978767422
42
0.26794919245151594
10
-988.17934259660001
20
544.73537978773891
10
-991.71524098100008
20
544.73537978749016
42
0.26794919235831882
10
-993.44729178836178
20
543.73537978769309
10
-995.46801784589491
20
540.23537958889688
42
-0.26794919239994019
10
-998.93211946079998
20
538.23537958930001
10
-1001.95024928511
20
538.2353795893498
42
0.19891236738446122
10
-1003.0109094569116
20
537.79603976101873
10
-1004.8393365811212
20
535.96761263582118
42
0.19891236730610679
10
-1005.2786764090582
20
534.90695246430005
10
-1005.2786764090804
20
423.50250383230002
42
0.1989123673673252
10
-1004.8393365808864
20
422.44184366051365
10
-1003.0109094567921
20
420.61341653523414
42
0.19891236736331799
10
-1001.9502492849001
20
420.17407670709991
10
-998.93279275780003
20
420.1740767070649
42
-0.26794919243815085
10
-995.46869114281367
20
418.17407670709207
10
-993.44729178892521
20
414.67291032318548
42
0.26794919245509713
10
-991.71524098080022
20
413.67291032276114
10
-988.17934259690003
20
413.67291032299897
42
0.26794919244635651
10
-986.44729178896341
20
414.6729103231616
10
-984.42589367583321
20
418.17407455746559
42
-0.26794922785436653
10
-980.96179153180003
20
420.17407455729204
10
-929.48941072330001
20
420.17406610759707
42
-0.2679491489513196
10
-928.19037286118396
20
419.42406610873093
10
-927.90169745210164
20
418.92406563415022
42
0.26794914848788576
10
-926.60265959179992
20
418.17406563517295
10
-914.2923269760098
20
418.17406582065496
42
0.33945425466261259
10
-913.3264011647874
20
418.91524677555259
10
-912.5075290681508
20
421.97131904510252
42
-0.33945425886330988
10
-911.54160324186182
20
422.71250000000003
10
-868.87500000000023
20
422.71249999999998
42
0.41421356237313667
10
-867.87500000000023
20
423.71250000000003
10
-867.87500000000023
20
435.21250000000003
42
-0.41421356237313667
10
-866.87500000000011
20
436.21250000000003
10
-854.87500000000011
20
436.21250000000009
42
-0.41421356237313667
10
-853.87500000000023
20
435.21250000000003
10
-853.87500000000023
20
423.71250000000003
42
0.41421356237313667
10
-852.87500000000023
20
422.71250000000003
10
-810.20839628907481
20
422.71249999999998
42
-0.33945425886324365
10
-809.2424704627856
20
421.97131904510258
10
-808.42359884124119
20
418.91524854862314
42
0.33945426283888203
10
-807.45767300069417
20
418.17406759372551
10
-800.29192838279982
20
418.17406769589593
42
0.26794918466323064
10
-798.99289003106765
20
418.92406786400329
10
-798.70422407360866
20
419.42405263900497
42
-0.26794922782162817
10
-797.40518577000284
20
420.17405263926662
0
LWPOLYLINE
5
194
100
AcDbEntity
8
0
100
AcDbPolyline
90
8
70
1
43
0.0
10
-731.04999999999973
20
512.41250000000025
42
-0.41421356237326151
10
-730.04999999999984
20
511.41250000000025
10
-730.04999999999984
20
499.41250000000019
42
-0.41421356237328233
10
-731.04999999999973
20
498.41250000000014
10
-743.04999999999973
20
498.41250000000002
42
-0.41421356237307422
10
-744.04999999999973
20
499.41250000000019
10
-744.04999999999973
20
511.41250000000025
42
-0.41421356237313667
10
-743.04999999999973
20
512.41250000000025
0
LWPOLYLINE
5
195
100
AcDbEntity
8
0
100
AcDbPolyline
90
8
70
1
43
0.0
10
-754.89175000000023
20
462.30500000000006
10
-754.89175000000023
20
475.30500000000018
42
-0.41421356237313667
10
-753.89175000000012
20
476.30500000000018
10
-748.89175000000012
20
476.30500000000012
42
-0.41421356237313667
10
-747.89175
20
475.30500000000018
10
-747.89175
20
462.30500000000006
42
-0.41421356237307422
10
-748.89175000000012
20
461.30499999999995
10
-753.89175000000012
20
461.30500000000012
42
-0.41421356237313667
0
LWPOLYLINE
5
196
100
AcDbEntity
8
0
100
AcDbPolyline
90
8
70
1
43
0.0
10
-758.63175000000001
20
454.26249999999993
10
-753.63174999999978
20
454.26249999999993
42
-0.41421356237307422
10
-752.6317499999999
20
453.26249999999993
10
-752.6317499999999
20
440.26250000000005
42
-0.41421356237326151
10
-753.63174999999967
20
439.26249999999993
10
-758.63174999999978
20
439.26250000000005
42
-0.41421356237332396
10
-759.63175000000001
20
440.26250000000005
10
-759.63175000000024
20
453.26249999999993
42
-0.41421356237319906
0
LWPOLYLINE
5
197
100
AcDbEntity
8
0
100
AcDbPolyline
90
8
70
1
43
0.0
10
-981.08124999999995
20
460.3125
10
-997.84375000000011
20
460.31249999999994
42
-0.41421356237313667
10
-998.84375
20
461.3125
10
-998.84375
20
473.31250000000011
42
-0.41421356237319906
10
-997.84375000000011
20
474.31250000000006
10
-981.08124999999995
20
474.31250000000006
42
-0.41421356237309503
10
-980.08125000000007
20
473.31250000000011
10
-980.08125000000007
20
461.3125
42
-0.4142135623730534
0
LWPOLYLINE
5
198
100
AcDbEntity
8
0
100
AcDbPolyline
90
8
70
1
43
0.0
10
-966.30350000000021
20
535.21750000000009
42
0.41421356237307422
10
-967.30350000000021
20
536.2175000000002
10
-983.09150000000022
20
536.21750000000031
42
0.41421356237307422
10
-984.09150000000011
20
535.21750000000009
10
-984.09150000000011
20
523.2175000000002
42
0.41421356237288692
10
-983.09150000000022
20
522.2175000000002
10
-967.30350000000021
20
522.2175000000002
42
0.41421356237313667
10
-966.30350000000021
20
523.2175000000002
0
LWPOLYLINE
5
199
100
AcDbEntity
8
0
100
AcDbPolyline
90
8
70
1
43
0.0
10
-889.34517184179992
20
522.71749999999997
10
-889.34517184179981
20
535.71749999999997
42
-0.41421356237301177
10
-888.84517184180004
20
536.21750000000031
10
-880.58219015179998
20
536.21750000000009
42
-0.41421356237292856
10
-880.08219015180021
20
535.71749999999997
10
-880.08219015179998
20
522.71749999999997
42
-0.41421356237188794
10
-880.58219015179998
20
522.21749999999997
10
-888.84517184180004
20
522.2175000000002
42
-0.4142135623736361
0
LWPOLYLINE
5
200
100
AcDbEntity
8
0
100
AcDbPolyline
90
8
70
1
43
0.0
10
-803.61649999999997
20
535.71749999999997
42
-0.4142135623724707
10
-803.11650000000043
20
536.2175000000002
10
-794.85349999999983
20
536.21750000000054
42
-0.41421356237267881
10
-794.35349999999971
20
535.71749999999997
10
-794.35349999999983
20
522.71749999999997
42
-0.41421356237326151
10
-794.85349999999983
20
522.21749999999997
10
-803.11649999999986
20
522.21749999999997
42
-0.41421356237267881
10
-803.61649999999997
20
522.71749999999997
0
LWPOLYLINE
5
201
100
AcDbEntity
8
0
100
AcDbPolyline
90
8
70
1
43
0.0
10
-987.24749999999972
20
523.21749999999997
10
-987.24749999999995
20
535.21750000000009
42
0.41421356237307422
10
-988.24749999999995
20
536.2175000000002
10
-1000.2474999999999
20
536.21749999999997
42
0.41421356237313667
10
-1001.2475000000001
20
535.21749999999997
10
-1001.2474999999997
20
523.21749999999997
42
0.4142135623730534
10
-1000.2474999999998
20
522.21749999999997
10
-988.24749999999995
20
522.2175000000002
42
0.41421356237319906
0
LWPOLYLINE
5
202
100
AcDbEntity
8
0
100
AcDbPolyline
90
8
70
1
43
0.0
10
-931.09750000000008
20
536.21750000000031
10
-943.09750000000008
20
536.21750000000054
42
0.41421356237301177
10
-944.09750000000008
20
535.21750000000031
10
-944.09750000000031
20
523.21750000000043
42
0.41421356237290774
10
-943.09750000000008
20
522.21750000000031
10
-931.09749999999985
20
522.21750000000043
42
0.41421356237328233
10
-930.09749999999997
20
523.21750000000043
10
-930.09749999999985
20
535.21750000000031
42
0.41421356237319906
0
LWPOLYLINE
5
203
100
AcDbEntity
8
0
100
AcDbPolyline
90
8
70
1
43
0.0
10
-963.14750000000004
20
523.21750000000043
42
0.41421356237297013
10
-962.14750000000004
20
522.21750000000031
10
-950.14750000000004
20
522.21750000000031
42
0.41421356237321988
10
-949.14750000000015
20
523.21750000000043
10
-949.14750000000015
20
535.21750000000031
42
0.41421356237328233
10
-950.14750000000004
20
536.21750000000031
10
-962.14750000000004
20
536.21750000000054
42
0.41421356237301177
10
-963.14750000000004
20
535.21750000000031
0
LWPOLYLINE
5
204
100
AcDbEntity
8
0
100
AcDbPolyline
90
8
70
1
43
0.0
10
-891.99749999999995
20
523.21750000000043
10
-891.99749999999983
20
535.21750000000031
42
0.41421356237319906
10
-892.99750000000006
20
536.21750000000031
10
-904.99750000000006
20
536.21750000000054
42
0.41421356237301177
10
-905.99749999999995
20
535.21750000000031
10
-905.99749999999995
20
523.21750000000043
42
0.41421356237297013
10
-904.99750000000006
20
522.21750000000031
10
-892.99749999999995
20
522.21750000000043
42
0.41421356237328233
0
LWPOLYLINE
5
205
100
AcDbEntity
8
0
100
AcDbPolyline
90
8
70
1
43
0.0
10
-924.04750000000013
20
536.21750000000054
42
0.41421356237301177
10
-925.04750000000001
20
535.21750000000031
10
-925.04750000000001
20
523.21750000000043
42
0.41421356237297013
10
-924.04750000000013
20
522.21750000000031
10
-912.04750000000001
20
522.21750000000031
42
0.41421356237321988
10
-911.04750000000013
20
523.21750000000043
10
-911.04750000000013
20
535.21750000000031
42
0.41421356237328233
10
-912.04750000000001
20
536.21750000000031
0
CIRCLE
5
206
100
AcDbEntity
8
0
100
AcDbCircle
10
-989.94474483080012
20
416.17538256730029
30
0
40
1.5500000000000114
210
0
220
0
230
1
0
CIRCLE
5
207
100
AcDbEntity
8
0
100
AcDbCircle
10
-749.9447448308
20
416.17538256730029
30
0
40
1.5499999999999887
210
0
220
0
230
1
0
CIRCLE
5
208
100
AcDbEntity
8
0
100
AcDbCircle
10
-669.9447448308
20
416.17538256730029
30
0
40
1.5500000000000589
210
0
220
0
230
1
0
CIRCLE
5
209
100
AcDbEntity
8
0
100
AcDbCircle
10
-669.9447448308
20
542.23538256730001
30
0
40
1.549999999999977
210
0
220
0
230
1
0
CIRCLE
5
210
100
AcDbEntity
8
0
100
AcDbCircle
10
-749.9447448308
20
542.23538256730001
30
0
40
1.5500000000000547
210
0
220
0
230
1
0
CIRCLE
5
211
100
AcDbEntity
8
0
100
AcDbCircle
10
-829.94474483080012
20
542.23538256730001
30
0
40
1.5499999999999448
210
0
220
0
230
1
0
CIRCLE
5
212
100
AcDbEntity
8
0
100
AcDbCircle
10
-909.94474483080012
20
542.23538256730001
30
0
40
1.5500000000000114
210
0
220
0
230
1
0
CIRCLE
5
213
100
AcDbEntity
8
0
100
AcDbCircle
10
-989.94474483080012
20
542.23538256730001
30
0
40
1.550000000000008
210
0
220
0
230
1
0
ENDSEC
0
SECTION
2
OBJECTS
0
DICTIONARY
5
C
100
AcDbDictionary
3
ACAD_GROUP
350
D
3
ACAD_MLINESTYLE
350
17
0
DICTIONARY
5
D
100
AcDbDictionary
0
DICTIONARY
5
1A
330
C
100
AcDbDictionary
0
DICTIONARY
5
17
100
AcDbDictionary
0
ENDSEC
0
EOF
