0
SECTION
2
HEADER
9
$INSUNITS
70
4
9
$ACADVER
1
AC1014
9
$HANDSEED
5
FFFF
0
ENDSEC
0
SECTION
2
TABLES
0
TABLE
2
VPORT
5
8
100
AcDbSymbolTable
0
ENDTAB
0
TABLE
2
LTYPE
5
5
100
AcDbSymbolTable
0
LTYPE
5
14
100
AcDbSymbolTableRecord
100
AcDbLinetypeTableRecord
2
BYBLOCK
70
0
0
LTYPE
5
15
100
AcDbSymbolTableRecord
100
AcDbLinetypeTableRecord
2
BYLAYER
70
0
0
ENDTAB
0
TABLE
2
LAYER
5
2
100
AcDbSymbolTable
70
2
0
LAYER
5
50
100
AcDbSymbolTableRecord
100
AcDbLayerTableRecord
2
0
70
0
6
CONTINUOUS
0
ENDTAB
0
TABLE
2
STYLE
5
3
100
AcDbSymbolTable
70
1
0
STYLE
5
11
100
AcDbSymbolTableRecord
100
AcDbTextStyleTableRecord
2
STANDARD
70
0
0
ENDTAB
0
TABLE
2
VIEW
5
6
100
AcDbSymbolTable
70
0
0
ENDTAB
0
TABLE
2
UCS
5
7
100
AcDbSymbolTable
70
0
0
ENDTAB
0
TABLE
2
APPID
5
9
100
AcDbSymbolTable
70
2
0
APPID
5
12
100
AcDbSymbolTableRecord
100
AcDbRegAppTableRecord
2
ACAD
70
0
0
ENDTAB
0
TABLE
2
DIMSTYLE
5
A
100
AcDbSymbolTable
70
1
0
ENDTAB
0
TABLE
2
BLOCK_RECORD
5
1
100
AcDbSymbolTable
70
1
0
BLOCK_RECORD
5
1F
100
AcDbSymbolTableRecord
100
AcDbBlockTableRecord
2
*MODEL_SPACE
0
BLOCK_RECORD
5
1B
100
AcDbSymbolTableRecord
100
AcDbBlockTableRecord
2
*PAPER_SPACE
0
ENDTAB
0
ENDSEC
0
SECTION
2
BLOCKS
0
BLOCK
5
20
100
AcDbEntity
100
AcDbBlockBegin
2
*MODEL_SPACE
0
ENDBLK
5
21
100
AcDbEntity
100
AcDbBlockEnd
0
BLOCK
5
1C
100
AcDbEntity
100
AcDbBlockBegin
2
*PAPER_SPACE
0
ENDBLK
5
1D
100
AcDbEntity
100
AcDbBlockEnd
0
ENDSEC
0
SECTION
2
ENTITIES
0
LWPOLYLINE
5
100
100
AcDbEntity
8
0
100
AcDbPolyline
90
8
70
1
43
0.0
10
-935.83750000000032
20
296.2125000000002
10
-950.24135000000001
20
296.20500000000004
42
0.41421356237304302
10
-951.24135000000012
20
295.20500000000015
10
-951.24135000000012
20
283.2050000000001
42
0.41421356237303258
10
-950.24135000000001
20
282.20499999999993
10
-935.83750000000032
20
282.21249999999992
42
0.41421356237313667
10
-934.83750000000043
20
283.21249999999998
10
-934.83750000000043
20
295.21250000000009
42
0.41421356237307422
0
LWPOLYLINE
5
101
100
AcDbEntity
8
0
100
AcDbPolyline
90
8
70
1
43
0.0
10
-828.72650000000033
20
287.20499999999993
42
-0.41421356237307422
10
-829.72650000000044
20
286.20499999999987
10
-850.37249999999972
20
286.20500000000004
42
-0.4142135623732407
10
-851.37249999999995
20
287.20499999999993
10
-851.37249999999995
20
291.20499999999998
42
-0.41421356237325113
10
-850.37249999999972
20
292.20499999999987
10
-829.72650000000044
20
292.20499999999726
42
-0.41421356237315748
10
-828.72649999999885
20
291.2049999999951
0
LWPOLYLINE
5
102
100
AcDbEntity
8
0
100
AcDbPolyline
90
8
70
1
43
0.0
10
-926.30385000000001
20
281.20499999999998
42
0.4142135623730222
10
-925.30385000000012
20
280.20500000000004
10
-915.52500000000009
20
280.21250000000003
42
0.41421356237303258
10
-914.52499999999986
20
281.21250000000003
10
-914.52499999999998
20
294.21249999999998
42
0.4142135623732095
10
-915.5250000000002
20
295.21250000000009
10
-925.30385000000012
20
295.20500000000004
42
0.41421356237313667
10
-926.30385000000024
20
294.2050000000001
0
LWPOLYLINE
5
103
100
AcDbEntity
8
0
100
AcDbPolyline
90
8
70
1
43
0.0
10
-912.02262499999983
20
287.2050000000001
10
-912.02262500000006
20
291.20500000000021
42
-0.41421356237346962
10
-911.02262499999995
20
292.2050000000001
10
-883.37762499999963
20
292.2050000000001
42
-0.41421356237315748
10
-882.37762499999974
20
291.20500000000021
10
-882.37762499999985
20
287.2050000000001
42
-0.41421356237328233
10
-883.37762499999997
20
286.20499999999993
10
-911.02262499999995
20
286.20500000000004
42
-0.41421356237346962
0
LWPOLYLINE
5
104
100
AcDbEntity
8
0
100
AcDbPolyline
90
8
70
1
43
0.0
10
-825.30385000000024
20
295.20500000000015
42
0.41421356237312623
10
-826.30385000000024
20
294.2050000000001
10
-826.30385000000001
20
281.20499999999998
42
0.41421356237306384
10
-825.30385000000024
20
280.20500000000004
10
-820.30385000000024
20
280.20499999999993
42
0.41421356237312623
10
-819.30385000000001
20
281.20499999999998
10
-819.30385000000001
20
294.2050000000001
42
0.4142135623731783
10
-820.30385000000024
20
295.20500000000015
0
LWPOLYLINE
5
105
100
AcDbEntity
8
0
100
AcDbPolyline
90
8
70
1
43
0.0
10
-853.87500000000023
20
295.21249999999981
42
0.41421356237309503
10
-854.87500000000011
20
296.21249999999975
10
-878.80385000000001
20
296.20500000000004
42
0.41421356237309503
10
-879.80385000000001
20
295.20500000000015
10
-879.80385000000012
20
283.21249999999969
42
0.41421356237309503
10
-878.80385000000024
20
282.21249999999975
10
-854.875
20
282.21250000000009
42
0.4142135623730534
10
-853.875
20
283.2125000000002
0
LWPOLYLINE
5
106
100
AcDbEntity
8
0
100
AcDbPolyline
90
8
70
1
43
0.0
10
-658.63868404879997
20
380.05270019176834
10
-658.63868404880009
20
375.05416063129996
42
-0.4142135623732407
10
-659.63868404879975
20
374.05416063130019
10
-712.80659973859292
20
374.05416063129996
42
-0.41421356237332396
10
-713.80659973859269
20
375.05416063129996
10
-713.80659973859281
20
379.97510828368553
42
-0.41378618630680875
10
-712.80805911168386
20
380.97510721879996
10
-659.6401434218908
20
381.05269912688294
42
-0.41464106763169034
0
LWPOLYLINE
5
107
100
AcDbEntity
8
0
100
AcDbPolyline
90
14
70
1
43
0.0
10
-752.6317499999999
20
301.255
10
-738.19374999999934
20
301.26249999999987
42
0.4142135623730222
10
-737.19374999999991
20
302.26249999999999
10
-737.19374999999991
20
314.26250000000027
42
0.41421356237281409
10
-738.19374999999934
20
315.26250000000022
10
-759.74135000000001
20
315.25499999999994
42
0.41421356237313667
10
-760.74135000000012
20
314.255
10
-760.74135000000012
20
302.25500000000005
42
0.41421356237303258
10
-759.74135000000001
20
301.25499999999994
10
-759.63175000000001
20
301.255
10
-759.63175000000001
20
300.2625000000001
42
0.41421356237313667
10
-758.63175000000012
20
299.2625000000001
10
-753.63174999999967
20
299.26250000000016
42
0.41421356237331353
10
-752.6317499999999
20
300.2625000000001
0
LWPOLYLINE
5
108
100
AcDbEntity
8
0
100
AcDbPolyline
90
8
70
1
43
0.0
10
-990.77925000000027
20
313.25500000000028
42
0.41421356237287649
10
-991.77924999999971
20
314.25500000000028
10
-996.77925000000016
20
314.25500000000011
42
0.41421356237321988
10
-997.77925000000005
20
313.25500000000028
10
-997.77925000000005
20
300.25500000000011
42
0.41421356237312623
10
-996.77925000000016
20
299.25500000000005
10
-991.77924999999971
20
299.25500000000022
42
0.41421356237309503
10
-990.77925000000005
20
300.25499999999988
0
LWPOLYLINE
5
109
100
AcDbEntity
8
0
100
AcDbPolyline
90
20
70
1
43
0.0
10
-720.54759999999999
20
359.40499999999997
42
-0.4142135623732407
10
-721.5476000000001
20
358.40499999999997
10
-721.61199999999997
20
358.40499999999997
10
-721.61200000000008
20
357.41250000000014
42
-0.41421356237309503
10
-722.61199999999974
20
356.41250000000014
10
-727.61200000000008
20
356.41250000000014
42
-0.41421356237315748
10
-728.61199999999985
20
357.41250000000014
10
-728.61199999999951
20
358.40499999999997
10
-745.48800000000017
20
358.40499999999997
10
-745.48800000000017
20
357.41250000000014
42
-0.41421356237319906
10
-746.48799999999983
20
356.41250000000014
10
-751.48800000000028
20
356.41250000000014
42
-0.41421356237307422
10
-752.48800000000017
20
357.41250000000014
10
-752.48800000000017
20
358.40499999999997
10
-752.59760000000006
20
358.40499999999997
42
-0.41421356237294937
10
-753.59760000000006
20
359.40499999999997
10
-753.59760000000028
20
371.40499999999997
42
-0.41421356237326151
10
-752.59760000000017
20
372.40499999999997
10
-721.5476000000001
20
372.40499999999997
42
-0.41421356237307422
10
-720.54759999999999
20
371.40499999999997
0
LWPOLYLINE
5
110
100
AcDbEntity
8
0
100
AcDbPolyline
90
8
70
1
43
0.0
10
-794.35349999999971
20
395.71750000000003
42
0.41421356237238743
10
-794.85349999999983
20
396.21750000000083
10
-803.11650000000043
20
396.2175000000002
42
0.4142135623724707
10
-803.61649999999997
20
395.71750000000003
10
-803.61649999999997
20
382.71749999999997
42
0.41421356237267881
10
-803.11649999999986
20
382.21749999999997
10
-794.85349999999983
20
382.21749999999997
42
0.41421356237326151
10
-794.35349999999983
20
382.71749999999997
0
LWPOLYLINE
5
111
100
AcDbEntity
8
0
100
AcDbPolyline
90
8
70
1
43
0.0
10
-710.71249999999986
20
314.2625000000001
10
-710.71250000000032
20
302.26249999999999
42
0.41421356237314705
10
-709.71249999999998
20
301.26250000000027
10
-697.71250000000009
20
301.26249999999999
42
0.41421356237319906
10
-696.71249999999975
20
302.26249999999999
10
-696.71249999999975
20
314.2625000000001
42
0.41421356237319906
10
-697.71249999999998
20
315.2625000000001
10
-709.71249999999986
20
315.26250000000016
42
0.41421356237333434
0
LINE
5
112
100
AcDbEntity
8
0
100
AcDbLine
10
-728.75575000000015
20
300.26250000000039
30
0
11
-728.75575000000015
21
301.255
31
0
0
ARC
5
113
100
AcDbEntity
8
0
100
AcDbCircle
10
-733.54759999999999
20
314.255
30
0
40
1.0000000000000142
210
0
220
-0
230
1
100
AcDbArc
50
90
51
180
0
LINE
5
114
100
AcDbEntity
8
0
100
AcDbLine
10
-720.54759999999999
20
314.255
30
0
11
-720.54759999999999
21
302.25500000000005
31
0
0
ARC
5
115
100
AcDbEntity
8
0
100
AcDbCircle
10
-721.5476000000001
20
314.255
30
0
40
1.0000000000000853
210
0
220
0
230
1
100
AcDbArc
50
0
51
90
0
ARC
5
116
100
AcDbEntity
8
0
100
AcDbCircle
10
-721.5476000000001
20
302.25500000000005
30
0
40
1.0000000000000142
210
0
220
0
230
1
100
AcDbArc
50
-90
51
0
0
LINE
5
117
100
AcDbEntity
8
0
100
AcDbLine
10
-728.75575000000015
20
301.255
30
0
11
-721.5476000000001
21
301.25500000000005
31
0
0
LWPOLYLINE
5
118
100
AcDbEntity
8
0
100
AcDbPolyline
90
14
70
1
43
0.0
10
-800.2249999999998
20
282.2050000000001
10
-795.36635000000001
20
282.20500000000015
42
0.41421356237301177
10
-794.36635000000012
20
283.2050000000001
10
-794.36635000000001
20
295.20500000000015
42
0.41421356237325113
10
-795.36635000000001
20
296.2050000000001
10
-807.36635000000001
20
296.20499999999993
42
0.4142135623730534
10
-808.36635000000001
20
295.20500000000015
10
-808.36635000000001
20
283.2050000000001
42
0.41421356237312623
10
-807.36635000000001
20
282.2050000000001
10
-807.22499999999968
20
282.2050000000001
10
-807.22499999999968
20
281.21250000000003
42
0.41421356237301177
10
-806.22499999999968
20
280.21250000000003
10
-801.22499999999968
20
280.21249999999998
42
0.41421356237312623
10
-800.2249999999998
20
281.21250000000003
0
LWPOLYLINE
5
119
100
AcDbEntity
8
0
100
AcDbPolyline
90
8
70
1
43
0.0
10
-739.28749999999934
20
283.21249999999998
42
0.41421356237315748
10
-738.28749999999957
20
282.21249999999998
10
-723.92885000000001
20
282.20500000000015
42
0.41421356237301177
10
-722.92885000000012
20
283.2050000000001
10
-722.92885000000012
20
295.20500000000015
42
0.4142135623730534
10
-723.92885000000001
20
296.20499999999998
10
-738.28749999999957
20
296.21250000000015
42
0.41421356237312623
10
-739.28749999999923
20
295.21250000000009
0
LWPOLYLINE
5
120
100
AcDbEntity
8
0
100
AcDbPolyline
90
8
70
1
43
0.0
10
-770.55385000000001
20
295.20500000000015
10
-770.55385000000001
20
283.2050000000001
42
-0.4142135623731783
10
-771.55385000000024
20
282.2050000000001
10
-785.91249999999968
20
282.21249999999998
42
-0.41421356237303258
10
-786.91249999999968
20
283.21249999999998
10
-786.91249999999968
20
295.21250000000009
42
-0.41421356237312623
10
-785.91249999999968
20
296.21250000000009
10
-771.55385000000024
20
296.20500000000015
42
-0.41421356237303258
0
LWPOLYLINE
5
121
100
AcDbEntity
8
0
100
AcDbPolyline
90
8
70
1
43
0.0
10
-763.09999999999991
20
283.21249999999998
42
0.41421356237316787
10
-762.09999999999968
20
282.21250000000009
10
-747.74135000000001
20
282.20500000000015
42
0.41421356237301177
10
-746.74135000000001
20
283.2050000000001
10
-746.74135000000001
20
295.20500000000015
42
0.4142135623730534
10
-747.74135000000001
20
296.20499999999998
10
-762.09999999999934
20
296.21249999999998
42
0.41421356237312623
10
-763.09999999999968
20
295.21250000000009
0
ARC
5
122
100
AcDbEntity
8
0
100
AcDbCircle
10
-729.75574999999981
20
300.26249999999993
30
0
40
0.99999999999951683
210
0
220
0
230
1
100
AcDbArc
50
-90.00000000003908
51
0
0
ARC
5
123
100
AcDbEntity
8
0
100
AcDbCircle
10
-734.75574999999981
20
300.26250000000022
30
0
40
0.99999999999994316
210
0
220
0
230
1
100
AcDbArc
50
180
51
270.00000000001302
0
LINE
5
124
100
AcDbEntity
8
0
100
AcDbLine
10
-733.54759999999999
20
315.255
30
0
11
-721.5476000000001
21
315.25500000000011
31
0
0
LWPOLYLINE
5
125
100
AcDbEntity
8
0
100
AcDbPolyline
90
8
70
1
43
0.0
10
-740.59749999999985
20
396.2175000000002
42
-0.41421356237315748
10
-739.59749999999985
20
395.21750000000031
10
-739.59749999999985
20
383.21750000000037
42
-0.41421356237332396
10
-740.59749999999997
20
382.21750000000037
10
-752.59749999999985
20
382.21750000000043
42
-0.41421356237284529
10
-753.59750000000031
20
383.21750000000037
10
-753.59749999999985
20
395.21750000000031
42
-0.41421356237319906
10
-752.59749999999985
20
396.2175000000002
0
LINE
5
126
100
AcDbEntity
8
0
100
AcDbLine
10
-734.75574999999958
20
299.26250000000027
30
0
11
-729.75575000000049
21
299.26250000000044
31
0
0
LINE
5
127
100
AcDbEntity
8
0
100
AcDbLine
10
-734.54757187460461
20
314.26249999999987
30
0
11
-734.75574999999981
21
314.26249999999987
31
0
0
ARC
5
128
100
AcDbEntity
8
0
100
AcDbCircle
10
-734.75575000000003
20
313.2625000000001
30
0
40
0.9999999999998721
210
0
220
-0
230
1
100
AcDbArc
50
89.999999999986969
51
180
0
LINE
5
129
100
AcDbEntity
8
0
100
AcDbLine
10
-735.75574999999981
20
313.2625000000001
30
0
11
-735.75574999999969
21
300.26250000000022
31
0
0
LWPOLYLINE
5
130
100
AcDbEntity
8
0
100
AcDbPolyline
90
8
70
1
43
0.0
10
-905.99749999999995
20
371.40500000000009
42
-0.41421356237301177
10
-904.99750000000006
20
372.40500000000026
10
-892.99749999999995
20
372.40500000000031
42
-0.41421356237292856
10
-891.99749999999995
20
371.40500000000009
10
-891.99749999999995
20
359.40499999999992
42
-0.41421356237290774
10
-892.99749999999995
20
358.40499999999969
10
-904.99750000000006
20
358.40499999999969
42
-0.41421356237292856
10
-905.99749999999995
20
359.40499999999992
0
LWPOLYLINE
5
131
100
AcDbEntity
8
0
100
AcDbPolyline
90
8
70
1
43
0.0
10
-697.71250000000032
20
358.41250000000025
42
0.41421356237330315
10
-696.71249999999986
20
359.41250000000002
10
-696.71249999999975
20
371.41250000000014
42
0.4142135623732407
10
-697.71249999999998
20
372.41250000000002
10
-709.71249999999964
20
372.41250000000014
42
0.41421356237332396
10
-710.71249999999986
20
371.41250000000014
10
-710.7125000000002
20
359.41250000000002
42
0.41421356237313667
10
-709.71249999999986
20
358.41250000000002
0
LWPOLYLINE
5
132
100
AcDbEntity
8
0
100
AcDbPolyline
90
8
70
1
43
0.0
10
-889.34517184179992
20
382.71749999999997
42
0.41421356237367774
10
-888.84517184180004
20
382.21750000000014
10
-880.58219015179998
20
382.21749999999986
42
0.41421356237217932
10
-880.08219015179998
20
382.71749999999997
10
-880.08219015180021
20
395.71750000000003
42
0.41421356237301177
10
-880.58219015179998
20
396.21750000000026
10
-888.84517184180004
20
396.21750000000026
42
0.41421356237309503
10
-889.34517184179992
20
395.71750000000003
0
LWPOLYLINE
5
133
100
AcDbEntity
8
0
100
AcDbPolyline
90
8
70
1
43
0.0
10
-719.18842770149718
20
371.39791063129996
10
-719.18842770149718
20
283.19842714225888
42
0.41421356237331353
10
-718.18842770149718
20
282.19842714225888
10
-713.18842770149718
20
282.19842714225877
42
0.4142135623730222
10
-712.1884277014974
20
283.19842714225888
10
-712.1884277014974
20
371.39791063129996
42
0.41421356237307422
10
-713.18842770149718
20
372.39791063129996
10
-718.18842770149718
20
372.39791063130008
42
0.41421356237334478
0
LWPOLYLINE
5
134
100
AcDbEntity
8
0
100
AcDbPolyline
90
8
70
1
43
0.0
10
-690.66249999999968
20
301.26249999999993
10
-678.6624999999998
20
301.26249999999993
42
0.41421356237312623
10
-677.66249999999991
20
302.26249999999999
10
-677.66249999999991
20
314.2625000000001
42
0.4142135623730534
10
-678.6624999999998
20
315.26250000000039
10
-690.66249999999968
20
315.26250000000027
42
0.4142135623733656
10
-691.6624999999998
20
314.2625000000001
10
-691.66249999999991
20
302.26249999999999
42
0.41421356237356327
0
LWPOLYLINE
5
135
100
AcDbEntity
8
0
100
AcDbPolyline
90
8
70
1
43
0.0
10
-745.45375000000024
20
334.30500000000029
10
-733.4537499999999
20
334.30500000000029
42
-0.41421356237299095
10
-732.4537499999999
20
333.3050000000004
10
-732.4537499999999
20
321.30499999999984
42
-0.41421356237309503
10
-733.4537499999999
20
320.30500000000018
10
-745.45375000000024
20
320.30500000000012
42
-0.4142135623730534
10
-746.45375000000001
20
321.30500000000006
10
-746.45375000000001
20
333.3050000000004
42
-0.41421356237309503
0
LWPOLYLINE
5
136
100
AcDbEntity
8
0
100
AcDbPolyline
90
24
70
1
43
0.0
10
-979.96369015179971
20
338.3340000000004
42
0.41421356237294937
10
-978.96369015179971
20
337.33400000000012
10
-978.58224999999766
20
337.33400000000023
42
-0.4142135623730534
10
-977.58224999999754
20
336.334
10
-977.58225000000016
20
318.77290452829993
42
0.41421356237307422
10
-976.58225000000016
20
317.77290452829982
10
-964.38194118979993
20
317.7729045283001
42
-0.41421356237316787
10
-963.3819411897997
20
316.77290452829993
10
-963.3819411897997
20
300.24128989212886
42
0.41421356237301177
10
-962.38194118980005
20
299.24128989212886
10
-764.18336353550274
20
299.2412898921288
42
0.41421356237316787
10
-763.18336353550296
20
300.24128989212886
10
-763.18336353550296
20
316.77290452829993
42
-0.41421356237339679
10
-762.18336353550296
20
317.77290452830005
10
-759.42042843379954
20
317.77290452829999
42
0.41421356237314705
10
-758.42042843379943
20
318.77290452829993
10
-758.42042843379943
20
336.33400000000029
42
-0.41421356237307422
10
-757.42042843379954
20
337.33400000000051
10
-742.80999999999972
20
337.33400000000017
42
0.41421356237309503
10
-741.80999999999983
20
338.3340000000004
10
-741.80999999999983
20
354.37684903531812
42
0.41396480196517188
10
-742.80915060425127
20
355.3768486745812
10
-978.96284075605126
20
355.57743668733991
42
0.41446236654563129
10
-979.96369015179994
20
354.57743704807649
0
LWPOLYLINE
5
137
100
AcDbEntity
8
0
100
AcDbPolyline
90
8
70
1
43
0.0
10
-797.74749999999983
20
358.40499999999969
10
-809.74749999999983
20
358.40499999999997
42
-0.41421356237313667
10
-810.74749999999995
20
359.40499999999992
10
-810.74749999999995
20
371.40500000000009
42
-0.4142135623732407
10
-809.74749999999972
20
372.40499999999997
10
-797.74749999999983
20
372.40500000000031
42
-0.41421356237292856
10
-796.74749999999995
20
371.40500000000009
10
-796.74749999999995
20
359.40499999999992
42
-0.41421356237290774
0
LWPOLYLINE
5
138
100
AcDbEntity
8
0
100
AcDbPolyline
90
8
70
1
43
0.0
10
-973.88075000000015
20
313.26250000000039
10
-973.88075000000015
20
300.26249999999993
42
0.41421356237294937
10
-972.88075000000026
20
299.26249999999987
10
-967.88075000000003
20
299.2625000000001
42
0.4142135623730846
10
-966.88075000000015
20
300.2624999999997
10
-966.88075000000015
20
313.26250000000044
42
0.41421356237300139
10
-967.88075000000003
20
314.26250000000039
10
-972.88075000000026
20
314.26250000000033
42
0.41421356237301177
0
LWPOLYLINE
5
139
100
AcDbEntity
8
0
100
AcDbPolyline
90
8
70
1
43
0.0
10
-659.61249999999961
20
358.41250000000008
42
0.41421356237284529
10
-658.61249999999984
20
359.41249999999991
10
-658.61249999999973
20
371.41250000000014
42
0.4142135623730534
10
-659.6124999999995
20
372.41250000000008
10
-671.61250000000018
20
372.41250000000014
42
0.4142135623730534
10
-672.61249999999961
20
371.41250000000036
10
-672.61249999999961
20
359.41249999999991
42
0.41421356237332396
10
-671.61249999999995
20
358.41250000000002
0
LWPOLYLINE
5
140
100
AcDbEntity
8
0
100
AcDbPolyline
90
8
70
1
43
0.0
10
-671.61249999999995
20
339.36250000000001
10
-659.61249999999961
20
339.36250000000007
42
0.41421356237338641
10
-658.61249999999984
20
340.36250000000001
10
-658.61249999999984
20
352.36250000000013
42
0.4142135623730534
10
-659.61249999999961
20
353.36250000000007
10
-671.61249999999973
20
353.36250000000013
42
0.41421356237328233
10
-672.61250000000018
20
352.36250000000013
10
-672.61250000000018
20
340.36250000000001
42
0.41421356237328233
0
LWPOLYLINE
5
141
100
AcDbEntity
8
0
100
AcDbPolyline
90
8
70
1
43
0.0
10
-975.34125000000006
20
314.25500000000045
42
0.41421356237307422
10
-976.34124999999983
20
315.25500000000039
10
-988.34124999999995
20
315.25500000000045
42
0.41421356237294937
10
-989.34124999999995
20
314.25500000000045
10
-989.34124999999995
20
302.25499999999988
42
0.41421356237293894
10
-988.34124999999995
20
301.25499999999994
10
-976.34124999999983
20
301.25500000000017
42
0.41421356237307422
10
-975.34125000000006
20
302.2549999999996
0
LWPOLYLINE
5
142
100
AcDbEntity
8
0
100
AcDbPolyline
90
8
70
1
43
0.0
10
-658.63868404880009
20
318.76241673530023
10
-658.63868404880009
20
335.83341673530009
42
0.41421356237328233
10
-659.63868404880031
20
336.83341673530009
10
-709.73867184179971
20
336.83341673530026
42
0.41421356237307422
10
-710.7386718417996
20
335.83341673530009
10
-710.7386718417996
20
318.76241673530023
42
0.41421356237312623
10
-709.73867184179971
20
317.76241673530018
10
-659.63868404880031
20
317.76241673530023
42
0.41421356237319906
0
LWPOLYLINE
5
143
100
AcDbEntity
8
0
100
AcDbPolyline
90
8
70
1
43
0.0
10
-963.14750000000004
20
359.40499999999992
42
0.41421356237301177
10
-962.14750000000004
20
358.40499999999975
10
-950.14750000000004
20
358.40499999999986
42
0.41421356237321988
10
-949.14750000000015
20
359.40499999999992
10
-949.14750000000004
20
371.40500000000009
42
0.4142135623733656
10
-950.14750000000004
20
372.40499999999992
10
-962.14750000000004
20
372.40500000000026
42
0.41421356237307422
10
-963.14750000000004
20
371.40500000000009
0
LWPOLYLINE
5
144
100
AcDbEntity
8
0
100
AcDbPolyline
90
8
70
1
43
0.0
10
-690.68499999999995
20
382.21750000000031
42
-0.41421356237288692
10
-691.68500000000017
20
383.21750000000037
10
-691.68499999999995
20
395.21750000000031
42
-0.41421356237301177
10
-690.68499999999995
20
396.21750000000054
10
-678.68499999999983
20
396.2175000000002
42
-0.41421356237332396
10
-677.68500000000017
20
395.21750000000031
10
-677.68500000000017
20
383.21750000000037
42
-0.41421356237332396
10
-678.68500000000029
20
382.21750000000037
0
LWPOLYLINE
5
145
100
AcDbEntity
8
0
100
AcDbPolyline
90
8
70
1
43
0.0
10
-672.6350000000001
20
395.21750000000031
42
-0.41421356237334478
10
-671.63499999999999
20
396.21750000000043
10
-659.6350000000001
20
396.2175000000002
42
-0.41421356237344881
10
-658.63500000000022
20
395.21750000000031
10
-658.63499999999988
20
383.21750000000037
42
-0.41421356237313667
10
-659.63499999999976
20
382.21750000000037
10
-671.63499999999999
20
382.21750000000031
42
-0.41421356237292856
10
-672.6350000000001
20
383.21750000000037
0
LWPOLYLINE
5
146
100
AcDbEntity
8
0
100
AcDbPolyline
90
8
70
1
43
0.0
10
-790.69749999999999
20
396.21750000000043
10
-778.6975000000001
20
396.2175000000002
42
-0.4142135623732407
10
-777.69750000000022
20
395.21750000000031
10
-777.69750000000022
20
383.21750000000037
42
-0.41421356237313667
10
-778.6975000000001
20
382.21750000000037
10
-790.69749999999999
20
382.21750000000031
42
-0.41421356237288692
10
-791.69750000000022
20
383.21750000000037
10
-791.69750000000022
20
395.21750000000031
42
-0.41421356237313667
0
LWPOLYLINE
5
147
100
AcDbEntity
8
0
100
AcDbPolyline
90
8
70
1
43
0.0
10
-731.01575000000025
20
335.30500000000012
42
-0.41421356237328233
10
-730.01575000000059
20
336.30499999999978
10
-725.01575000000003
20
336.30499999999989
42
-0.41421356237288692
10
-724.01575000000003
20
335.30499999999984
10
-724.01575000000003
20
322.30499999999972
42
-0.41421356237294937
10
-725.01575000000003
20
321.30499999999978
10
-730.01575000000003
20
321.30499999999995
42
-0.41421356237349044
10
-731.01575000000014
20
322.30499999999972
0
LWPOLYLINE
5
148
100
AcDbEntity
8
0
100
AcDbPolyline
90
8
70
1
43
0.0
10
-754.89175000000046
20
335.30500000000029
42
-0.41421356237332396
10
-753.89175000000012
20
336.30499999999995
10
-748.89175000000023
20
336.30500000000035
42
-0.41421356237282447
10
-747.89175
20
335.30500000000029
10
-747.89175
20
322.30499999999984
42
-0.41421356237319906
10
-748.89175000000012
20
321.30499999999995
10
-753.89175000000012
20
321.30500000000018
42
-0.41421356237326151
10
-754.89175000000023
20
322.30500000000001
0
LWPOLYLINE
5
149
100
AcDbEntity
8
0
100
AcDbPolyline
90
8
70
1
43
0.0
10
-997.84375000000011
20
334.31250000000006
42
0.41421356237309503
10
-998.84375
20
333.3125000000004
10
-998.84375
20
321.3125
42
0.41421356237297013
10
-997.84375000000011
20
320.31249999999994
10
-981.08124999999995
20
320.3125
42
0.41421356237292856
10
-980.08125000000007
20
321.31249999999994
10
-980.08125000000007
20
333.31250000000017
42
0.41421356237301177
10
-981.08124999999995
20
334.31250000000006
0
LWPOLYLINE
5
150
100
AcDbEntity
8
0
100
AcDbPolyline
90
8
70
1
43
0.0
10
-791.69750000000022
20
371.40500000000009
42
-0.41421356237290774
10
-790.69749999999999
20
372.4050000000002
10
-778.69749999999965
20
372.4050000000002
42
-0.41421356237301177
10
-777.69750000000045
20
371.40500000000009
10
-777.69749999999988
20
359.40499999999992
42
-0.41421356237315748
10
-778.69749999999954
20
358.40499999999986
10
-790.69749999999999
20
358.40499999999986
42
-0.41421356237321988
10
-791.69750000000022
20
359.40499999999992
0
LWPOLYLINE
5
151
100
AcDbEntity
8
0
100
AcDbPolyline
90
8
70
1
43
0.0
10
-659.61249999999961
20
282.21250000000015
42
0.41421356237310542
10
-658.61249999999984
20
283.21249999999998
10
-658.61249999999984
20
295.21250000000009
42
0.41421356237306384
10
-659.61249999999961
20
296.21250000000009
10
-671.61249999999995
20
296.21250000000026
42
0.41421356237315748
10
-672.61250000000018
20
295.21250000000009
10
-672.61250000000018
20
283.21249999999998
42
0.41421356237325113
10
-671.61249999999995
20
282.21250000000009
0
LWPOLYLINE
5
152
100
AcDbEntity
8
0
100
AcDbPolyline
90
8
70
1
43
0.0
10
-709.71249999999986
20
296.21250000000015
42
0.41421356237333434
10
-710.71249999999986
20
295.21250000000009
10
-710.71250000000032
20
283.21249999999998
42
0.41421356237306384
10
-709.71249999999986
20
282.21250000000009
10
-697.71250000000009
20
282.21249999999998
42
0.41421356237319906
10
-696.71249999999975
20
283.21249999999998
10
-696.71249999999975
20
295.21250000000009
42
0.41421356237319906
10
-697.71249999999998
20
296.21250000000009
0
LWPOLYLINE
5
153
100
AcDbEntity
8
0
100
AcDbPolyline
90
8
70
1
43
0.0
10
-671.61249999999984
20
301.26250000000027
10
-659.61249999999961
20
301.26250000000022
42
0.41421356237309503
10
-658.61249999999984
20
302.26249999999999
10
-658.61249999999984
20
314.2625000000001
42
0.41421356237306384
10
-659.61249999999961
20
315.2625000000001
10
-671.61249999999995
20
315.26250000000027
42
0.41421356237315748
10
-672.61250000000018
20
314.2625000000001
10
-672.61250000000007
20
302.26249999999999
42
0.41421356237335516
0
LWPOLYLINE
5
154
100
AcDbEntity
8
0
100
AcDbPolyline
90
8
70
1
43
0.0
10
-691.6624999999998
20
371.41250000000036
10
-691.6624999999998
20
359.41249999999991
42
0.41421356237303258
10
-690.66249999999968
20
358.41250000000002
10
-678.6624999999998
20
358.41249999999997
42
0.41421356237301177
10
-677.66249999999991
20
359.41249999999991
10
-677.66249999999991
20
371.41250000000014
42
0.41421356237294937
10
-678.6624999999998
20
372.41250000000008
10
-690.66250000000014
20
372.41250000000014
42
0.41421356237297013
0
LWPOLYLINE
5
155
100
AcDbEntity
8
0
100
AcDbPolyline
90
8
70
1
43
0.0
10
-710.71250000000032
20
340.36250000000001
42
0.41421356237301177
10
-709.71249999999986
20
339.36249999999978
10
-697.71250000000032
20
339.36250000000007
42
0.4142135623731783
10
-696.71249999999986
20
340.36250000000001
10
-696.71249999999975
20
352.36250000000013
42
0.4142135623732407
10
-697.71249999999998
20
353.36250000000001
10
-709.71249999999998
20
353.36250000000018
42
0.41421356237313667
10
-710.71249999999986
20
352.36250000000013
0
LWPOLYLINE
5
156
100
AcDbEntity
8
0
100
AcDbPolyline
90
8
70
1
43
0.0
10
-987.24749999999972
20
383.21750000000003
42
-0.4142135623731783
10
-988.24749999999995
20
382.21750000000009
10
-1000.2474999999998
20
382.21749999999992
42
-0.41421356237297013
10
-1001.2474999999997
20
383.21750000000003
10
-1001.2475000000001
20
395.21749999999997
42
-0.4142135623731783
10
-1000.2474999999999
20
396.21749999999975
10
-988.24749999999995
20
396.21750000000043
42
-0.41421356237311585
10
-987.24749999999995
20
395.21750000000009
0
LWPOLYLINE
5
157
100
AcDbEntity
8
0
100
AcDbPolyline
90
8
70
1
43
0.0
10
-949.14750000000026
20
395.21750000000031
10
-949.14750000000015
20
383.21750000000037
42
-0.41421356237344881
10
-950.14750000000004
20
382.21750000000037
10
-962.14750000000004
20
382.21750000000043
42
-0.41421356237292856
10
-963.14750000000004
20
383.21750000000037
10
-963.14750000000004
20
395.21750000000031
42
-0.41421356237301177
10
-962.14750000000004
20
396.21750000000054
10
-950.14749999999992
20
396.2175000000002
42
-0.41421356237340717
0
LWPOLYLINE
5
158
100
AcDbEntity
8
0
100
AcDbPolyline
90
8
70
1
43
0.0
10
-848.84749999999997
20
359.40499999999992
10
-848.84749999999997
20
371.40500000000009
42
-0.41421356237301177
10
-847.84750000000008
20
372.40500000000026
10
-835.84749999999985
20
372.40500000000031
42
-0.41421356237292856
10
-834.84749999999985
20
371.40500000000009
10
-834.84749999999985
20
359.40499999999992
42
-0.41421356237290774
10
-835.84749999999985
20
358.40499999999969
10
-847.84750000000008
20
358.40499999999969
42
-0.41421356237292856
0
LWPOLYLINE
5
159
100
AcDbEntity
8
0
100
AcDbPolyline
90
8
70
1
43
0.0
10
-1001.2511871010008
20
379.55561383963692
42
-0.4137876822044374
10
-1000.2526413652424
20
380.5556127821938
10
-862.00979023572688
20
380.75665462993527
42
-0.41421206602498056
10
-861.00833703637022
20
379.75811506046898
10
-861.00147433431744
20
375.05562000438738
42
-0.41464106763202369
10
-862.00147326943193
20
374.05416063129633
10
-1000.2511871010005
20
374.05416063129991
42
-0.41421356237309503
10
-1001.2511871010001
20
375.05416063129957
0
LWPOLYLINE
5
160
100
AcDbEntity
8
0
100
AcDbPolyline
90
8
70
1
43
0.0
10
-863.42250000000035
20
395.21750000000031
10
-863.42250000000035
20
383.21750000000037
42
-0.4142135623731783
10
-864.42250000000001
20
382.21750000000037
10
-876.4224999999999
20
382.21750000000031
42
-0.41421356237288692
10
-877.42250000000013
20
383.21750000000037
10
-877.42250000000013
20
395.21750000000031
42
-0.41421356237319906
10
-876.42250000000001
20
396.2175000000002
10
-864.42250000000001
20
396.21750000000026
42
-0.41421356237326151
0
LWPOLYLINE
5
161
100
AcDbEntity
8
0
100
AcDbPolyline
90
8
70
1
43
0.0
10
-995.46250000000043
20
353.36250000000001
42
0.41421356237299095
10
-996.46250000000032
20
352.36250000000013
10
-996.46250000000032
20
340.3624999999999
42
0.41421356237297013
10
-995.46250000000043
20
339.36249999999978
10
-983.46250000000055
20
339.36250000000001
42
0.41421356237319906
10
-982.46250000000032
20
340.3624999999999
10
-982.46250000000032
20
352.36250000000007
42
0.4142135623731783
10
-983.46250000000043
20
353.36249999999995
0
LWPOLYLINE
5
162
100
AcDbEntity
8
0
100
AcDbPolyline
90
8
70
1
43
0.0
10
-678.6624999999998
20
296.21250000000026
42
-0.41421356237312623
10
-677.66249999999991
20
295.2125000000002
10
-677.66249999999991
20
283.21249999999998
42
-0.4142135623730534
10
-678.6624999999998
20
282.2125000000002
10
-690.66249999999968
20
282.21250000000003
42
-0.41421356237304302
10
-691.6624999999998
20
283.21249999999992
10
-691.6624999999998
20
295.21250000000043
42
-0.41421356237298057
10
-690.66250000000014
20
296.21250000000026
0
LWPOLYLINE
5
163
100
AcDbEntity
8
0
100
AcDbPolyline
90
8
70
1
43
0.0
10
-858.38450266704911
20
379.76265041341401
42
-0.41421507658874102
10
-857.38595793517811
20
380.76410872915085
10
-718.44961819880064
20
380.9661506186842
42
-0.41421204815907042
10
-717.44816506044253
20
379.96761104912889
10
-717.44099662525457
20
375.05562000439107
42
-0.41464106763169034
10
-718.44099556036895
20
374.05416063129996
10
-857.37763015155849
20
374.05416063129957
42
-0.41378618630678804
10
-858.37762908667287
20
375.05270125820886
0
LWPOLYLINE
5
164
100
AcDbEntity
8
0
100
AcDbPolyline
90
8
70
1
43
0.0
10
-807.27250000000026
20
396.2175000000002
42
-0.4142135623732407
10
-806.27250000000004
20
395.21750000000031
10
-806.27249999999992
20
383.21750000000037
42
-0.41421356237349044
10
-807.27250000000026
20
382.21750000000037
10
-819.27249999999981
20
382.21750000000031
42
-0.41421356237288692
10
-820.27250000000004
20
383.21750000000037
10
-820.27249999999981
20
395.21750000000031
42
-0.41421356237309503
10
-819.27250000000015
20
396.21750000000054
0
LWPOLYLINE
5
165
100
AcDbEntity
8
0
100
AcDbPolyline
90
8
70
1
43
0.0
10
-828.79750000000001
20
358.40499999999992
10
-816.79750000000013
20
358.40499999999969
42
0.41421356237315748
10
-815.7974999999999
20
359.40499999999986
10
-815.7974999999999
20
371.4050000000002
42
0.41421356237299095
10
-816.79750000000013
20
372.40499999999997
10
-828.79750000000001
20
372.40500000000026
42
0.41421356237294937
10
-829.7974999999999
20
371.40500000000026
10
-829.7974999999999
20
359.40499999999986
42
0.41421356237294937
0
LWPOLYLINE
5
166
100
AcDbEntity
8
0
100
AcDbPolyline
90
8
70
1
43
0.0
10
-725.30999999999972
20
352.35500000000013
42
0.41421356237307422
10
-726.30999999999972
20
353.35500000000025
10
-738.30999999999995
20
353.3550000000003
42
0.41421356237307422
10
-739.30999999999983
20
352.35500000000013
10
-739.30999999999983
20
340.35500000000008
42
0.4142135623730534
10
-738.30999999999995
20
339.35500000000002
10
-726.30999999999995
20
339.35500000000002
42
0.41421356237328233
10
-725.30999999999995
20
340.35500000000008
0
LWPOLYLINE
5
167
100
AcDbEntity
8
0
100
AcDbPolyline
90
8
70
1
43
0.0
10
-912.04750000000001
20
382.21750000000037
10
-924.04750000000013
20
382.21750000000043
42
-0.41421356237292856
10
-925.04750000000001
20
383.21750000000037
10
-925.04750000000001
20
395.21750000000031
42
-0.41421356237301177
10
-924.04750000000013
20
396.21750000000054
10
-912.04750000000013
20
396.2175000000002
42
-0.41421356237344881
10
-911.04750000000024
20
395.21750000000031
10
-911.04750000000013
20
383.21750000000037
42
-0.41421356237344881
0
LWPOLYLINE
5
168
100
AcDbEntity
8
0
100
AcDbPolyline
90
8
70
1
43
0.0
10
-825.32249999999999
20
383.21750000000037
42
-0.41421356237313667
10
-826.32249999999999
20
382.21750000000037
10
-838.32249999999999
20
382.21750000000031
42
-0.41421356237276202
10
-839.3225000000001
20
383.21750000000037
10
-839.3225000000001
20
395.21750000000031
42
-0.41421356237319906
10
-838.32249999999999
20
396.2175000000002
10
-826.32249999999999
20
396.21750000000043
42
-0.41421356237313667
10
-825.32249999999999
20
395.21750000000031
0
LWPOLYLINE
5
169
100
AcDbEntity
8
0
100
AcDbPolyline
90
8
70
1
43
0.0
10
-969.19750000000022
20
358.40499999999986
42
0.41421356237346962
10
-968.19749999999999
20
359.40499999999992
10
-968.19749999999999
20
371.40500000000009
42
0.41421356237313667
10
-969.19750000000022
20
372.4050000000002
10
-981.1975000000001
20
372.40500000000009
42
0.41421356237307422
10
-982.19750000000022
20
371.40500000000009
10
-982.19750000000022
20
359.40499999999992
42
0.41421356237307422
10
-981.1975000000001
20
358.40499999999992
0
LWPOLYLINE
5
170
100
AcDbEntity
8
0
100
AcDbPolyline
90
8
70
1
43
0.0
10
-867.89750000000026
20
359.40499999999992
10
-867.89750000000026
20
371.40500000000009
42
-0.41421356237290774
10
-866.89750000000004
20
372.4050000000002
10
-854.89749999999981
20
372.40500000000031
42
-0.41421356237292856
10
-853.89749999999992
20
371.40500000000009
10
-853.89749999999992
20
359.40499999999992
42
-0.41421356237290774
10
-854.89749999999981
20
358.40499999999969
10
-866.89750000000004
20
358.40499999999986
42
-0.41421356237321988
0
LWPOLYLINE
5
171
100
AcDbEntity
8
0
100
AcDbPolyline
90
8
70
1
43
0.0
10
-858.3725000000004
20
383.21750000000037
10
-858.37249999999983
20
395.21750000000031
42
-0.41421356237309503
10
-857.37250000000017
20
396.21750000000054
10
-845.37249999999972
20
396.2175000000002
42
-0.41421356237332396
10
-844.37250000000006
20
395.21750000000031
10
-844.37250000000006
20
383.21750000000037
42
-0.41421356237326151
10
-845.37249999999972
20
382.21750000000037
10
-857.37249999999995
20
382.21750000000043
42
-0.41421356237284529
0
LWPOLYLINE
5
172
100
AcDbEntity
8
0
100
AcDbPolyline
90
8
70
1
43
0.0
10
-983.09150000000022
20
382.21750000000009
42
-0.41421356237297013
10
-984.09150000000011
20
383.21750000000014
10
-984.09150000000011
20
395.21750000000009
42
-0.41421356237311585
10
-983.09150000000022
20
396.21750000000043
10
-967.30350000000021
20
396.21750000000043
42
-0.41421356237311585
10
-966.30350000000021
20
395.21750000000009
10
-966.30350000000021
20
383.21750000000014
42
-0.41421356237301177
10
-967.30350000000021
20
382.21749999999997
0
LWPOLYLINE
5
173
100
AcDbEntity
8
0
100
AcDbPolyline
90
8
70
1
43
0.0
10
-931.09749999999985
20
372.40500000000031
42
-0.41421356237292856
10
-930.09749999999997
20
371.40500000000009
10
-930.09749999999997
20
359.40499999999992
42
-0.41421356237290774
10
-931.09749999999985
20
358.40499999999969
10
-943.09750000000008
20
358.40499999999969
42
-0.41421356237292856
10
-944.09750000000008
20
359.40499999999992
10
-944.09750000000008
20
371.40500000000009
42
-0.41421356237301177
10
-943.09750000000008
20
372.40500000000026
0
LWPOLYLINE
5
174
100
AcDbEntity
8
0
100
AcDbPolyline
90
8
70
1
43
0.0
10
-892.99750000000017
20
382.21750000000037
10
-904.99750000000006
20
382.21750000000043
42
-0.41421356237292856
10
-905.99749999999995
20
383.21750000000037
10
-905.99749999999995
20
395.21750000000031
42
-0.41421356237301177
10
-904.99750000000006
20
396.21750000000054
10
-892.99749999999995
20
396.2175000000002
42
-0.41421356237315748
10
-891.99749999999995
20
395.21750000000031
10
-891.99749999999983
20
383.21750000000037
42
-0.41421356237349044
0
LWPOLYLINE
5
175
100
AcDbEntity
8
0
100
AcDbPolyline
90
8
70
1
43
0.0
10
-886.94749999999999
20
359.40499999999992
10
-886.94749999999999
20
371.40500000000009
42
-0.41421356237301177
10
-885.94749999999999
20
372.40500000000026
10
-873.94750000000022
20
372.40500000000009
42
-0.41421356237332396
10
-872.94750000000022
20
371.40500000000009
10
-872.94750000000022
20
359.40499999999992
42
-0.41421356237307422
10
-873.94750000000022
20
358.40499999999986
10
-885.94749999999999
20
358.40499999999969
42
-0.41421356237292856
0
LWPOLYLINE
5
176
100
AcDbEntity
8
0
100
AcDbPolyline
90
8
70
1
43
0.0
10
-931.09749999999985
20
382.21750000000037
10
-943.09750000000008
20
382.21750000000031
42
-0.41421356237288692
10
-944.09750000000031
20
383.21750000000037
10
-944.09750000000008
20
395.21750000000031
42
-0.41421356237301177
10
-943.09750000000008
20
396.21750000000054
10
-931.09749999999985
20
396.2175000000002
42
-0.41421356237315748
10
-930.09749999999997
20
395.21750000000031
10
-930.09749999999997
20
383.21750000000037
42
-0.41421356237313667
0
LWPOLYLINE
5
177
100
AcDbEntity
8
0
100
AcDbPolyline
90
8
70
1
43
0.0
10
-677.66249999999991
20
352.36250000000013
42
0.41421356237313667
10
-678.6624999999998
20
353.36250000000013
10
-690.66249999999968
20
353.36250000000001
42
0.41421356237361528
10
-691.6624999999998
20
352.36250000000013
10
-691.6624999999998
20
340.36250000000001
42
0.41421356237342799
10
-690.66249999999968
20
339.36250000000024
10
-678.6624999999998
20
339.36249999999967
42
0.4142135623730534
10
-677.66249999999991
20
340.36250000000001
0
LWPOLYLINE
5
178
100
AcDbEntity
8
0
100
AcDbPolyline
90
8
70
1
43
0.0
10
-911.0474999999999
20
371.40500000000009
42
0.4142135623733656
10
-912.04750000000001
20
372.40499999999992
10
-924.04750000000013
20
372.40500000000026
42
0.41421356237307422
10
-925.04750000000001
20
371.40500000000009
10
-925.04750000000001
20
359.40499999999992
42
0.41421356237301177
10
-924.04750000000013
20
358.40499999999975
10
-912.04750000000001
20
358.40499999999986
42
0.41421356237321988
10
-911.04750000000013
20
359.40499999999992
0
LWPOLYLINE
5
179
100
AcDbEntity
8
0
100
AcDbPolyline
90
8
70
1
43
0.0
10
-759.64749999999981
20
372.40500000000026
10
-771.64750000000026
20
372.40500000000003
42
0.41421356237326151
10
-772.64749999999992
20
371.40500000000009
10
-772.64749999999992
20
359.40499999999992
42
0.41421356237319906
10
-771.64750000000026
20
358.40499999999992
10
-759.64749999999981
20
358.40499999999969
42
0.41421356237292856
10
-758.64749999999981
20
359.40499999999992
10
-758.64749999999981
20
371.40500000000009
42
0.41421356237301177
0
LWPOLYLINE
5
180
100
AcDbEntity
8
0
100
AcDbPolyline
90
8
70
1
43
0.0
10
-771.64750000000026
20
396.21750000000054
10
-759.64749999999981
20
396.21750000000026
42
-0.41421356237326151
10
-758.64750000000015
20
395.21750000000031
10
-758.64749999999981
20
383.21750000000037
42
-0.41421356237313667
10
-759.64749999999981
20
382.21750000000037
10
-771.64750000000026
20
382.21750000000043
42
-0.41421356237292856
10
-772.64750000000026
20
383.21750000000037
10
-772.64749999999992
20
395.21750000000031
42
-0.41421356237309503
0
LWPOLYLINE
5
181
100
AcDbEntity
8
0
100
AcDbPolyline
90
8
70
1
43
0.0
10
-987.24749999999995
20
371.4050000000002
42
0.41421356237292856
10
-988.24749999999995
20
372.4050000000002
10
-1000.2475000000004
20
372.40499999999997
42
0.41421356237311585
10
-1001.2475000000004
20
371.40500000000026
10
-1001.2475000000001
20
359.40499999999986
42
0.41421356237303258
10
-1000.2475000000004
20
358.40500000000014
10
-988.24749999999995
20
358.40499999999969
42
0.41421356237307422
10
-987.24749999999995
20
359.40499999999986
0
CIRCLE
5
182
100
AcDbEntity
8
0
100
AcDbCircle
10
-669.9447448308
20
402.23538256730001
30
0
40
1.5499999999999874
210
0
220
0
230
1
0
CIRCLE
5
183
100
AcDbEntity
8
0
100
AcDbCircle
10
-829.94474485080013
20
276.17538256730029
30
0
40
1.5499999999999767
210
0
220
0
230
1
0
CIRCLE
5
184
100
AcDbEntity
8
0
100
AcDbCircle
10
-989.94474483080012
20
402.23538256730001
30
0
40
1.5500000000000114
210
0
220
0
230
1
0
CIRCLE
5
185
100
AcDbEntity
8
0
100
AcDbCircle
10
-909.94474471380022
20
276.17538256730029
30
0
40
1.549999999999937
210
0
220
0
230
1
0
CIRCLE
5
186
100
AcDbEntity
8
0
100
AcDbCircle
10
-829.94474483080012
20
402.23538256730001
30
0
40
1.5500000000000114
210
0
220
0
230
1
0
LWPOLYLINE
5
187
100
AcDbEntity
8
0
100
AcDbPolyline
90
8
70
1
43
0.0
10
-983.46250000000043
20
282.21250000000009
42
0.4142135623732095
10
-982.46250000000032
20
283.21249999999998
10
-982.46250000000032
20
295.21250000000009
42
0.41421356237313667
10
-983.46250000000043
20
296.21250000000009
10
-997.86635000000024
20
296.20499999999998
42
0.41421356237315748
10
-998.86635000000012
20
295.20500000000015
10
-998.86635000000012
20
283.2050000000001
42
0.41421356237303258
10
-997.86635000000001
20
282.20499999999993
0
CIRCLE
5
188
100
AcDbEntity
8
0
100
AcDbCircle
10
-909.94474483080012
20
402.23538256730001
30
0
40
1.5500000000000114
210
0
220
0
230
1
0
LWPOLYLINE
5
189
100
AcDbEntity
8
0
100
AcDbPolyline
90
8
70
1
43
0.0
10
-974.05385000000012
20
282.2050000000001
10
-959.65000000000032
20
282.21249999999992
42
0.41421356237312623
10
-958.65000000000032
20
283.21249999999998
10
-958.65000000000032
20
295.21250000000009
42
0.41421356237307422
10
-959.65000000000032
20
296.2125000000002
10
-974.05385000000012
20
296.20499999999993
42
0.4142135623730534
10
-975.05385000000001
20
295.20500000000015
10
-975.05385000000024
20
283.2050000000001
42
0.41421356237325113
0
CIRCLE
5
190
100
AcDbEntity
8
0
100
AcDbCircle
10
-749.9447448308
20
402.23538256730001
30
0
40
1.5500000000000114
210
0
220
0
230
1
0
CIRCLE
5
191
100
AcDbEntity
8
0
100
AcDbCircle
10
-669.9447448308
20
276.17538256730029
30
0
40
1.5500000000000191
210
0
220
0
230
1
0
CIRCLE
5
192
100
AcDbEntity
8
0
100
AcDbCircle
10
-749.9447448308
20
276.17538256730029
30
0
40
1.5499999999999772
210
0
220
0
230
1
0
CIRCLE
5
193
100
AcDbEntity
8
0
100
AcDbCircle
10
-989.94474483080012
20
276.17538256730029
30
0
40
1.5500000000000036
210
0
220
0
230
1
0
LWPOLYLINE
5
194
100
AcDbEntity
8
0
100
AcDbPolyline
90
133
70
1
43
0.0
10
-820.9624642317998
20
398.23537978735322
42
-0.26794919243030657
10
-824.42656584689519
20
400.2353797873327
10
-826.44729178876912
20
403.73537978737772
42
0.26794919244408605
10
-828.17934259678964
20
404.73537978773891
10
-831.71524098079999
20
404.73537978752717
42
0.26794919247073717
10
-833.44729178839998
20
403.73537978720015
10
-835.46801773067716
20
400.23537978708669
42
-0.26794919243847914
10
-838.93211934580006
20
398.23537978720606
10
-900.96246423179991
20
398.23537978735317
42
-0.26794919243101145
10
-904.42656584690087
20
400.23537978734197
10
-906.44729178876923
20
403.73537978737772
42
0.26794919244400422
10
-908.17934259678964
20
404.73537978773919
10
-911.71524098077612
20
404.73537978752717
42
0.26794919240789267
10
-913.44729178861144
20
403.73537978733498
10
-915.46801773066863
20
400.23537978710186
42
-0.26794919247097132
10
-918.93211934580734
20
398.23537978720623
10
-980.96246423179991
20
398.23537978735322
42
-0.26794919247626919
10
-984.42656584688484
20
400.23537978731451
10
-986.44729178887133
20
403.73537978767433
42
0.26794919248171967
10
-988.17934259660001
20
404.73537978773896
10
-991.71524098100008
20
404.73537978749005
42
0.26794919237407105
10
-993.44729178836155
20
403.73537978769309
10
-995.46801784589479
20
400.23537958889682
42
-0.26794919240879472
10
-998.93211946079998
20
398.23537958930001
10
-1001.9502492851097
20
398.23537958934998
42
0.19891236747750818
10
-1003.0109094569115
20
397.7960397610189
10
-1004.8393365811212
20
395.96761263582107
42
0.19891236731279088
10
-1005.2786764090582
20
394.90695246430022
10
-1005.2786764090803
20
283.50250383230025
42
0.19891236736759838
10
-1004.8393365808863
20
282.44184366051354
10
-1003.0109094567923
20
280.61341653523414
42
0.19891236760354139
10
-1001.9502492849005
20
280.17407670709991
10
-998.93279275780003
20
280.17407670706496
42
-0.26794919243188986
10
-995.46869114281367
20
278.17407670709213
10
-993.44729178892521
20
274.67291032318548
42
0.26794919244591908
10
-991.71524098080022
20
273.67291032276114
10
-988.17934259690003
20
273.67291032299903
42
0.2679491923835261
10
-986.44729178896341
20
274.67291032316166
10
-984.42589367583309
20
278.17407455746553
42
-0.26794922788305797
10
-980.96179153180003
20
280.17407455729199
10
-929.48941072330001
20
280.17406610759713
42
-0.26794914761528899
10
-928.19037286118419
20
279.42406610873098
10
-927.90169745210164
20
278.92406563415022
42
0.26794914852296592
10
-926.60265959179992
20
278.17406563517301
10
-916.90696531573531
20
278.17406457412005
42
-0.2679492616537234
10
-914.7419020799
20
276.92406404330001
10
-913.44219787393911
20
274.67291032320901
42
0.26794919245940402
10
-911.71014706581059
20
273.67291032276103
10
-908.17934236080021
20
273.67291032301011
42
0.26794919239329845
10
-906.44729155298023
20
274.67291032315501
10
-904.42589979123898
20
278.17406355792252
42
-0.26794922567110768
10
-900.96179765640022
20
280.17406357230021
10
-838.93278023150174
20
280.17406631948529
42
-0.2679505790342972
10
-835.4686782956137
20
278.17405438798818
10
-833.44729182792491
20
274.67291032318536
42
0.26794919247564458
10
-831.71524101980003
20
273.67291032276097
10
-828.17424868084913
20
273.67291032301006
42
0.26794919238891413
10
-826.44219787297243
20
274.67291032316837
10
-825.14249194541117
20
276.92406702600641
42
-0.26794918077215923
10
-822.97742854560045
20
278.1740670262829
10
-800.29192838279994
20
278.17406769589593
42
0.267949184671883
10
-798.99289003106787
20
278.92406786400323
10
-798.70422407360866
20
279.42405263900491
42
-0.26794953878828942
10
-797.40518577000284
20
280.17405263926662
10
-758.93022618449993
20
280.17404794348926
42
-0.26794919743343554
10
-755.46612482562068
20
278.1740474846124
10
-753.44474469907459
20
274.67291333225529
42
0.26794922801107213
10
-751.71269375881036
20
273.67291310285123
10
-748.17679563880006
20
273.67291310305518
42
0.26794919237236692
10
-746.44474483112288
20
274.67291310299777
10
-744.42400126285918
20
278.17294363242411
42
-0.26794919244788618
10
-740.95989964782063
20
280.17294363229405
10
-678.92959001480006
20
280.17294363214728
42
-0.26794919240319154
10
-675.46548839999355
20
278.17294363256826
10
-673.44474483094461
20
274.672913103263
42
0.26794919237214665
10
-671.71269402381381
20
273.67291310364914
10
-668.17679563879994
20
273.67291310327221
42
0.26794919246043292
10
-666.44474483131046
20
274.67291310310645
10
-664.42400126286486
20
278.17294363242718
42
-0.26794919242092086
10
-660.95989964780711
20
280.17294363230002
10
-657.94217195579995
20
280.1729436322297
42
0.19891236741713189
10
-656.8815117838667
20
280.61228346057408
10
-655.05308465929738
20
282.44071058599764
42
0.18380782485842806
10
-654.61629178887449
20
283.41399578589863
10
-654.61629178886983
20
394.90695266329971
42
0.19891236735041476
10
-655.05563161701616
20
395.96761283497693
10
-656.88405874137061
20
397.7960399596293
42
0.19891236740969281
10
-657.94471891379999
20
398.23537978814795
10
-660.8892362908
20
398.23537978707964
42
-0.26794919257740302
10
-664.35333790664595
20
400.23537978707361
10
-666.37406384895166
20
403.73537978732833
42
0.26794919243634546
10
-668.10611465650015
20
404.73537978729661
10
-671.71524098079999
20
404.73537978730212
42
0.26794919244413468
10
-673.4472917884159
20
403.73537978722248
10
-675.46801773071991
20
400.23537978713171
42
-0.26794919243228199
10
-678.93211934579324
20
398.23537978726586
10
-710.44865963479924
20
398.23537978729951
42
0.41421356237338641
10
-710.9486596347997
20
397.73537978729968
10
-710.94865963479992
20
396.21750000000162
10
-697.73500000000001
20
396.21750000000026
42
-0.41421356237326151
10
-696.73500000000001
20
395.21750000000031
10
-696.7349999999999
20
383.21750000000009
42
-0.4142135623731783
10
-697.73500000000001
20
382.21750000000037
10
-709.73500000000001
20
382.21750000000037
42
-0.4142135623730534
10
-710.73500000000013
20
383.2175000000006
10
-710.73499999999967
20
394.96041063130002
10
-711.49492941503422
20
394.96041063130019
42
0.4146410676316486
10
-711.99492888259158
20
394.45968094475467
10
-711.97869890911443
20
383.33849727005168
42
-0.41421356237317841
10
-712.47796869012632
20
382.83776811594913
10
-718.77260900407589
20
382.82858187747564
42
-0.41421356237313661
10
-719.27333815817951
20
383.32785165848748
10
-719.28958579736343
20
394.46114031784526
42
0.41378618630685055
10
-719.78958526492079
20
394.96041063130008
10
-720.54750000000013
20
394.96041063130008
10
-720.5474999999999
20
383.21750000000009
42
-0.4142135623731783
10
-721.5474999999999
20
382.21750000000037
10
-733.5474999999999
20
382.21750000000048
42
-0.41421356237299095
10
-734.54750000000001
20
383.21750000000037
10
-734.5474999999999
20
395.21750000000054
42
-0.41421356237309503
10
-733.5474999999999
20
396.21750000000054
10
-721.5474999999999
20
396.21750000000026
10
-720.3373351386
20
396.2175000000002
10
-720.33733513860011
20
397.73537978730258
42
0.41421356237155499
10
-720.83733513859772
20
398.23537978730246
10
-740.96246423179991
20
398.23537978740205
42
-0.26794919242895215
10
-744.42656584685267
20
400.23537978735709
10
-746.44729178876912
20
403.73537978737772
42
0.26794919243751364
10
-748.17934259678952
20
404.73537978773902
10
-751.7152409808001
20
404.73537978752717
42
0.2679491924112265
10
-753.44729178861087
20
403.73537978733498
10
-755.46801773066829
20
400.23537978710192
42
-0.26794919242024712
10
-758.93211934580677
20
398.23537978720623
0
ENDSEC
0
SECTION
2
OBJECTS
0
DICTIONARY
5
C
100
AcDbDictionary
3
ACAD_GROUP
350
D
3
ACAD_MLINESTYLE
350
17
0
DICTIONARY
5
D
100
AcDbDictionary
0
DICTIONARY
5
1A
330
C
100
AcDbDictionary
0
DICTIONARY
5
17
100
AcDbDictionary
0
ENDSEC
0
EOF
