0
SECTION
2
HEADER
9
$INSUNITS
70
4
9
$ACADVER
1
AC1014
9
$HANDSEED
5
FFFF
0
ENDSEC
0
SECTION
2
TABLES
0
TABLE
2
VPORT
5
8
100
AcDbSymbolTable
0
ENDTAB
0
TABLE
2
LTYPE
5
5
100
AcDbSymbolTable
0
LTYPE
5
14
100
AcDbSymbolTableRecord
100
AcDbLinetypeTableRecord
2
BYBLOCK
70
0
0
LTYPE
5
15
100
AcDbSymbolTableRecord
100
AcDbLinetypeTableRecord
2
BYLAYER
70
0
0
ENDTAB
0
TABLE
2
LAYER
5
2
100
AcDbSymbolTable
70
2
0
LAYER
5
50
100
AcDbSymbolTableRecord
100
AcDbLayerTableRecord
2
0
70
0
6
CONTINUOUS
0
ENDTAB
0
TABLE
2
STYLE
5
3
100
AcDbSymbolTable
70
1
0
STYLE
5
11
100
AcDbSymbolTableRecord
100
AcDbTextStyleTableRecord
2
STANDARD
70
0
0
ENDTAB
0
TABLE
2
VIEW
5
6
100
AcDbSymbolTable
70
0
0
ENDTAB
0
TABLE
2
UCS
5
7
100
AcDbSymbolTable
70
0
0
ENDTAB
0
TABLE
2
APPID
5
9
100
AcDbSymbolTable
70
2
0
APPID
5
12
100
AcDbSymbolTableRecord
100
AcDbRegAppTableRecord
2
ACAD
70
0
0
ENDTAB
0
TABLE
2
DIMSTYLE
5
A
100
AcDbSymbolTable
70
1
0
ENDTAB
0
TABLE
2
BLOCK_RECORD
5
1
100
AcDbSymbolTable
70
1
0
BLOCK_RECORD
5
1F
100
AcDbSymbolTableRecord
100
AcDbBlockTableRecord
2
*MODEL_SPACE
0
BLOCK_RECORD
5
1B
100
AcDbSymbolTableRecord
100
AcDbBlockTableRecord
2
*PAPER_SPACE
0
ENDTAB
0
ENDSEC
0
SECTION
2
BLOCKS
0
BLOCK
5
20
100
AcDbEntity
100
AcDbBlockBegin
2
*MODEL_SPACE
0
ENDBLK
5
21
100
AcDbEntity
100
AcDbBlockEnd
0
BLOCK
5
1C
100
AcDbEntity
100
AcDbBlockBegin
2
*PAPER_SPACE
0
ENDBLK
5
1D
100
AcDbEntity
100
AcDbBlockEnd
0
ENDSEC
0
SECTION
2
ENTITIES
0
LWPOLYLINE
5
100
100
AcDbEntity
8
0
100
AcDbPolyline
90
8
70
1
43
0.0
10
-870.37762499999985
20
427.20500000000004
10
-870.37762499999985
20
431.20500000000021
42
0.41421356237319906
10
-871.37762499999997
20
432.20500000000015
10
-911.02262499999995
20
432.20500000000015
42
0.41421356237338641
10
-912.02262500000006
20
431.20500000000021
10
-912.02262499999983
20
427.20500000000004
42
0.41421356237334478
10
-911.02262499999995
20
426.20499999999998
10
-871.37762499999997
20
426.20499999999993
42
0.4142135623731783
0
LWPOLYLINE
5
101
100
AcDbEntity
8
0
100
AcDbPolyline
90
8
70
1
43
0.0
10
-809.72650000000112
20
431.2049999999951
42
0.41421356237315748
10
-810.72650000000067
20
432.20499999999481
10
-850.37249999999972
20
432.20499999999987
42
0.41421356237319906
10
-851.37249999999995
20
431.20499999999998
10
-851.37249999999995
20
427.20499999999993
42
0.4142135623731783
10
-850.37249999999972
20
426.20499999999998
10
-810.72650000000044
20
426.20499999999987
42
0.41421356237313667
10
-809.72650000000044
20
427.20499999999993
0
LWPOLYLINE
5
102
100
AcDbEntity
8
0
100
AcDbPolyline
90
8
70
1
43
0.0
10
-920.52500000000032
20
420.21250000000003
10
-915.52500000000009
20
420.21250000000003
42
0.41421356237311585
10
-914.52499999999986
20
421.21250000000003
10
-914.52499999999986
20
434.21249999999998
42
0.41421356237311585
10
-915.52500000000009
20
435.21250000000003
10
-920.52500000000032
20
435.21250000000009
42
0.41421356237313667
10
-921.52500000000032
20
434.21249999999998
10
-921.52500000000032
20
421.21250000000003
42
0.41421356237313667
0
LWPOLYLINE
5
103
100
AcDbEntity
8
0
100
AcDbPolyline
90
8
70
1
43
0.0
10
-806.22499999999968
20
435.21250000000009
42
0.41421356237313667
10
-807.22499999999968
20
434.21249999999998
10
-807.22499999999968
20
421.21250000000003
42
0.41421356237313667
10
-806.22499999999968
20
420.21250000000003
10
-801.22499999999968
20
420.21249999999998
42
0.41421356237313667
10
-800.2249999999998
20
421.21250000000003
10
-800.2249999999998
20
434.21249999999998
42
0.41421356237307422
10
-801.22499999999968
20
435.21250000000009
0
LWPOLYLINE
5
104
100
AcDbEntity
8
0
100
AcDbPolyline
90
8
70
1
43
0.0
10
-773.91249999999991
20
422.21249999999992
42
0.41421356237313667
10
-772.91249999999991
20
423.21249999999998
10
-772.91249999999991
20
435.21250000000003
42
0.41421356237307422
10
-773.91249999999991
20
436.21250000000009
10
-785.91249999999968
20
436.21250000000009
42
0.41421356237313667
10
-786.91249999999968
20
435.21250000000003
10
-786.91249999999968
20
423.21249999999998
42
0.4142135623730534
10
-785.91249999999968
20
422.21249999999998
0
LWPOLYLINE
5
105
100
AcDbEntity
8
0
100
AcDbPolyline
90
8
70
1
43
0.0
10
-752.48800000000017
20
510.41250000000019
10
-752.48800000000017
20
497.41250000000014
42
0.41421356237307422
10
-751.4880000000004
20
496.41250000000014
10
-746.48800000000028
20
496.41250000000014
42
0.41421356237328233
10
-745.48800000000017
20
497.41250000000014
10
-745.48800000000017
20
510.41250000000019
42
0.41421356237326151
10
-746.4880000000004
20
511.41250000000014
10
-751.48800000000028
20
511.41250000000008
42
0.4142135623733656
0
LWPOLYLINE
5
106
100
AcDbEntity
8
0
100
AcDbPolyline
90
133
70
1
43
0.0
10
-751.71269375881025
20
413.67291310285134
42
-0.26794922791747994
10
-753.4447446990747
20
414.67291333225518
10
-755.46612482562045
20
418.17404748461229
42
0.2679491930592573
10
-758.93022618449982
20
420.1740479434892
10
-797.40518577000319
20
420.17405263926656
42
0.26794953878856381
10
-798.70422407360866
20
419.42405263900497
10
-798.99289003106776
20
418.92406786400329
42
-0.26794919284912089
10
-800.29192838279982
20
418.17406769589587
10
-807.45767300069417
20
418.17406759372545
42
-0.33945426283879526
10
-808.4235988412413
20
418.91524854862325
10
-809.2424704627856
20
421.97131904510258
42
0.33945425886329211
10
-810.20839628907481
20
422.71249999999986
10
-852.87500000000045
20
422.71250000000015
42
-0.41421356237299095
10
-853.87500000000023
20
423.71250000000032
10
-853.87500000000023
20
435.21250000000009
42
0.41421356237301177
10
-854.87500000000011
20
436.21249999999975
10
-866.87500000000023
20
436.21249999999986
42
0.41421356237299095
10
-867.87500000000023
20
435.21249999999975
10
-867.87500000000045
20
423.71250000000032
42
-0.4142135623732407
10
-868.87500000000045
20
422.71250000000009
10
-911.54160324186182
20
422.71250000000003
42
0.33945425886330988
10
-912.5075290681508
20
421.97131904510258
10
-913.3264011647874
20
418.91524677555287
42
-0.33945425466263035
10
-914.2923269760098
20
418.17406582065496
10
-926.60265959179992
20
418.17406563517306
42
-0.26794924402121784
10
-927.90169745210164
20
418.92406563415022
10
-928.19037286118396
20
419.42406610873098
42
0.26794914888146609
10
-929.48941072330001
20
420.17406610759713
10
-980.96179153180003
20
420.17407455729199
42
0.26794922788311393
10
-984.42589367583332
20
418.17407455746576
10
-986.4472917889633
20
414.6729103231616
42
-0.26794919244523702
10
-988.1793425968998
20
413.67291032299903
10
-991.71524098080022
20
413.67291032276114
42
-0.26794919249116095
10
-993.44729178892521
20
414.67291032318548
10
-995.46869114281367
20
418.17407670709207
42
0.26794919246290005
10
-998.93279275780003
20
420.1740767070649
10
-1001.9502492849001
20
420.17407670709997
42
-0.19891236731823389
10
-1003.0109094567921
20
420.61341653523414
10
-1004.8393365808864
20
422.44184366051365
42
-0.1989123672231117
10
-1005.2786764090804
20
423.50250383230002
10
-1005.2786764090582
20
534.9069524643005
42
-0.19891236730595444
10
-1004.8393365811215
20
535.96761263582084
10
-1003.0109094569116
20
537.79603976101885
42
-0.19891236747765897
10
-1001.95024928511
20
538.2353795893498
10
-998.93211946079998
20
538.23537958929978
42
0.26794919240883064
10
-995.46801784589491
20
540.23537958889722
10
-993.44729178836178
20
543.73537978769309
42
-0.2679491923822882
10
-991.71524098100008
20
544.73537978749005
10
-988.17934259660001
20
544.73537978773891
42
-0.26794919246231635
10
-986.44729178887133
20
543.73537978767445
10
-984.42656584688496
20
540.2353797873144
42
0.26794919247631355
10
-980.96246423179991
20
538.23537978735328
10
-918.932119345807
20
538.23537978720651
42
0.26794919242022236
10
-915.46801773066863
20
540.23537978710192
10
-913.44729178861144
20
543.73537978733486
42
-0.2679491924498591
10
-911.71524098077612
20
544.73537978752711
10
-908.17934259678964
20
544.73537978773948
42
-0.26794919248677296
10
-906.44729178876969
20
543.73537978737772
10
-904.42656584690087
20
540.23537978734203
42
0.26794919246620924
10
-900.96246423179991
20
538.23537978735317
10
-838.93211934580006
20
538.2353797872064
42
0.26794919241949611
10
-835.46801773067727
20
540.23537978708669
10
-833.44729178840009
20
543.73537978720026
42
-0.26794919235388021
10
-831.71524098079999
20
544.73537978752711
10
-828.17934259678975
20
544.73537978773891
42
-0.2679491924864375
10
-826.44729178876912
20
543.73537978737772
10
-824.4265658468953
20
540.2353797873327
42
0.26794919246700211
10
-820.96246423179991
20
538.23537978735328
10
-758.93211934580677
20
538.23537978720651
42
0.26794919242022236
10
-755.46801773066829
20
540.23537978710192
10
-753.44729178861087
20
543.73537978733464
42
-0.26794919244646953
10
-751.71524098080022
20
544.73537978752688
10
-748.17934259678952
20
544.73537978773902
42
-0.26794919248656685
10
-746.44729178876923
20
543.73537978737761
10
-744.42656584685278
20
540.23537978735726
42
0.26794919246038795
10
-740.96246423180003
20
538.23537978740205
10
-720.83733513859784
20
538.23537978730246
42
-0.41421356237163826
10
-720.33733513860011
20
537.73537978730258
10
-720.3373351386
20
536.2175000000002
10
-721.5474999999999
20
536.2175000000002
10
-733.5474999999999
20
536.21750000000054
42
0.41421356237311585
10
-734.5474999999999
20
535.2175000000002
10
-734.5474999999999
20
523.21750000000088
42
0.41421356237309503
10
-733.5474999999999
20
522.21750000000031
10
-721.54750000000024
20
522.21750000000043
42
0.4142135623731783
10
-720.54750000000013
20
523.2175000000002
10
-720.54750000000013
20
534.96041063130008
10
-719.78958526492079
20
534.96041063129974
42
-0.4137861863061435
10
-719.28958579736343
20
534.46114031784521
10
-719.27333815817929
20
523.32785165848748
42
0.41421356237255391
10
-718.77260900407589
20
522.8285818774757
10
-712.47796869012632
20
522.83776811594953
42
0.41421356237334489
10
-711.97869890911466
20
523.33849727005168
10
-711.99492888259169
20
534.4596809447545
42
-0.41464106763181535
10
-711.49492941503422
20
534.96041063129996
10
-710.73499999999967
20
534.96041063130008
10
-710.73500000000013
20
523.21750000000054
42
0.41421356237294937
10
-709.73500000000001
20
522.21750000000043
10
-697.73500000000001
20
522.21750000000054
42
0.41421356237309503
10
-696.7349999999999
20
523.21750000000054
10
-696.73500000000013
20
535.2175000000002
42
0.41421356237328233
10
-697.73500000000001
20
536.2175000000002
10
-710.94865963479992
20
536.21750000000156
10
-710.9486596347997
20
537.73537978729962
42
-0.41421356237342799
10
-710.44865963479901
20
538.23537978729951
10
-678.93211934579313
20
538.23537978726574
42
0.2679491924204625
10
-675.46801773071979
20
540.23537978713193
10
-673.44729178841578
20
543.73537978722231
42
-0.26794919240891629
10
-671.71524098079988
20
544.73537978730178
10
-668.10611465650015
20
544.73537978729689
42
-0.26794919242573151
10
-666.37406384895166
20
543.73537978732827
10
-664.35333790664583
20
540.23537978707373
42
0.26794919247983062
10
-660.88923629079989
20
538.23537978707975
10
-657.9447189138001
20
538.23537978814784
42
-0.19891236758040051
10
-656.8840587413705
20
537.79603995962918
10
-655.05563161701605
20
535.96761283497688
42
-0.19891236735020962
10
-654.6162917888696
20
534.90695266329976
10
-654.61629178887449
20
423.41399578589858
42
-0.18380782485858921
10
-655.05308465929738
20
422.44071058599764
10
-656.88151178386704
20
420.61228346057442
42
-0.19891236741710716
10
-657.94217195580006
20
420.1729436322301
10
-660.95989964780711
20
420.17294363230008
42
0.26794919242085374
10
-664.42400126286452
20
418.17294363242723
10
-666.44474483131046
20
414.67291310310662
42
-0.26794919246042342
10
-668.17679563879994
20
413.67291310327221
10
-671.71269402381381
20
413.67291310364908
42
-0.26794919234307918
10
-673.44474483094461
20
414.67291310326317
10
-675.46548839999377
20
418.17294363256798
42
0.26794919236790005
10
-678.92959001480006
20
420.17294363214717
10
-740.95989964782063
20
420.17294363229433
42
0.26794919244782739
10
-744.42400126285918
20
418.17294363242411
10
-746.44474483112276
20
414.67291310299794
42
-0.26794919237236942
10
-748.17679563880006
20
413.67291310305546
0
LWPOLYLINE
5
107
100
AcDbEntity
8
0
100
AcDbPolyline
90
8
70
1
43
0.0
10
-982.46250000000032
20
435.21250000000009
42
0.41421356237319906
10
-983.46250000000043
20
436.21250000000003
10
-995.46250000000043
20
436.21250000000026
42
0.41421356237307422
10
-996.46250000000032
20
435.21250000000009
10
-996.46250000000032
20
423.21249999999998
42
0.4142135623730534
10
-995.46250000000043
20
422.21249999999998
10
-983.46250000000055
20
422.21250000000009
42
0.41421356237319906
10
-982.46250000000032
20
423.21249999999998
0
LWPOLYLINE
5
108
100
AcDbEntity
8
0
100
AcDbPolyline
90
8
70
1
43
0.0
10
-739.30999999999983
20
492.35500000000008
10
-739.30999999999983
20
480.35500000000013
42
0.41421356237307422
10
-738.30999999999995
20
479.35500000000002
10
-726.30999999999972
20
479.35500000000013
42
0.41421356237328233
10
-725.30999999999972
20
480.35500000000013
10
-725.3099999999996
20
492.35500000000008
42
0.41421356237328233
10
-726.30999999999983
20
493.35500000000013
10
-738.30999999999995
20
493.35500000000025
42
0.41421356237307422
0
LWPOLYLINE
5
109
100
AcDbEntity
8
0
100
AcDbPolyline
90
8
70
1
43
0.0
10
-671.61249999999984
20
498.41249999999997
42
-0.41421356237326151
10
-672.61250000000018
20
499.41250000000002
10
-672.61250000000018
20
511.41250000000014
42
-0.41421356237321988
10
-671.61249999999984
20
512.41250000000025
10
-659.61249999999973
20
512.41250000000025
42
-0.4142135623733656
10
-658.61249999999984
20
511.41250000000014
10
-658.61249999999973
20
499.41250000000002
42
-0.41421356237299095
10
-659.6124999999995
20
498.41250000000002
0
LWPOLYLINE
5
110
100
AcDbEntity
8
0
100
AcDbPolyline
90
8
70
1
43
0.0
10
-710.71249999999986
20
435.21250000000009
10
-710.71250000000009
20
423.21249999999998
42
0.41421356237328233
10
-709.71249999999986
20
422.21249999999998
10
-697.71250000000009
20
422.21250000000009
42
0.41421356237319906
10
-696.71249999999986
20
423.21249999999998
10
-696.71249999999986
20
435.21250000000009
42
0.41421356237319906
10
-697.71249999999998
20
436.21250000000003
10
-709.71249999999964
20
436.21250000000009
42
0.41421356237332396
0
LWPOLYLINE
5
111
100
AcDbEntity
8
0
100
AcDbPolyline
90
8
70
1
43
0.0
10
-678.6624999999998
20
479.36250000000001
10
-690.66249999999968
20
479.36250000000001
42
-0.41421356237340717
10
-691.6624999999998
20
480.36250000000001
10
-691.66249999999991
20
492.36250000000013
42
-0.41421356237344881
10
-690.66249999999968
20
493.36250000000007
10
-678.6624999999998
20
493.36250000000007
42
-0.41421356237309503
10
-677.66249999999991
20
492.36250000000013
10
-677.66249999999991
20
480.36250000000001
42
-0.4142135623730534
0
LWPOLYLINE
5
112
100
AcDbEntity
8
0
100
AcDbPolyline
90
8
70
1
43
0.0
10
-709.71249999999998
20
493.36250000000007
10
-697.71250000000009
20
493.36250000000001
42
-0.41421356237319906
10
-696.71249999999986
20
492.36250000000013
10
-696.71249999999986
20
480.36250000000001
42
-0.41421356237328233
10
-697.7125000000002
20
479.36250000000018
10
-709.71249999999986
20
479.36249999999995
42
-0.41421356237326151
10
-710.7125000000002
20
480.36250000000001
10
-710.71249999999986
20
492.36250000000013
42
-0.41421356237328233
0
LWPOLYLINE
5
113
100
AcDbEntity
8
0
100
AcDbPolyline
90
8
70
1
43
0.0
10
-1001.2475000000001
20
499.40499999999992
42
0.41421356237319906
10
-1000.2475000000004
20
498.40499999999992
10
-988.24749999999995
20
498.40499999999986
42
0.41421356237313667
10
-987.24749999999995
20
499.40499999999992
10
-987.24749999999995
20
511.40500000000009
42
0.41421356237309503
10
-988.24749999999995
20
512.4050000000002
10
-1000.2475000000004
20
512.40500000000009
42
0.41421356237319906
10
-1001.2475000000001
20
511.40500000000009
0
LWPOLYLINE
5
114
100
AcDbEntity
8
0
100
AcDbPolyline
90
8
70
1
43
0.0
10
-712.1884277014974
20
511.39791063129996
42
0.41421356237307422
10
-713.18842770149718
20
512.39791063129996
10
-718.18842770149729
20
512.39791063129996
42
0.4142135623732407
10
-719.18842770149706
20
511.39791063129996
10
-719.18842770149718
20
423.19842714225899
42
0.41421356237326151
10
-718.18842770149718
20
422.19842714225882
10
-713.18842770149729
20
422.19842714225882
42
0.41421356237303258
10
-712.1884277014974
20
423.19842714225899
0
LWPOLYLINE
5
115
100
AcDbEntity
8
0
100
AcDbPolyline
90
8
70
1
43
0.0
10
-709.71249999999986
20
512.41250000000014
10
-697.71249999999998
20
512.41250000000025
42
-0.41421356237326151
10
-696.71249999999986
20
511.41250000000014
10
-696.71249999999986
20
499.41250000000002
42
-0.41421356237328233
10
-697.7125000000002
20
498.41250000000014
10
-709.71249999999986
20
498.41249999999997
42
-0.41421356237326151
10
-710.7125000000002
20
499.41250000000002
10
-710.71249999999986
20
511.41250000000014
42
-0.41421356237332396
0
LWPOLYLINE
5
116
100
AcDbEntity
8
0
100
AcDbPolyline
90
8
70
1
43
0.0
10
-659.61249999999961
20
479.36250000000001
10
-671.61249999999984
20
479.36249999999995
42
-0.41421356237326151
10
-672.61250000000018
20
480.36250000000001
10
-672.61250000000018
20
492.36250000000013
42
-0.41421356237332396
10
-671.61249999999984
20
493.36250000000007
10
-659.61249999999961
20
493.36250000000007
42
-0.4142135623730534
10
-658.61249999999984
20
492.36250000000013
10
-658.61249999999984
20
480.36250000000001
42
-0.41421356237307422
0
LWPOLYLINE
5
117
100
AcDbEntity
8
0
100
AcDbPolyline
90
8
70
1
43
0.0
10
-678.6624999999998
20
498.41250000000002
10
-690.66249999999968
20
498.41250000000002
42
-0.41421356237340717
10
-691.6624999999998
20
499.41250000000002
10
-691.66249999999968
20
511.41250000000014
42
-0.41421356237334478
10
-690.66249999999968
20
512.41250000000014
10
-678.6624999999998
20
512.41250000000036
42
-0.41421356237330315
10
-677.66250000000002
20
511.41250000000014
10
-677.66249999999991
20
499.41250000000002
42
-0.4142135623730534
0
LWPOLYLINE
5
118
100
AcDbEntity
8
0
100
AcDbPolyline
90
8
70
1
43
0.0
10
-671.61249999999984
20
441.26249999999993
42
-0.41421356237326151
10
-672.61250000000018
20
442.26249999999999
10
-672.61250000000018
20
454.26250000000016
42
-0.41421356237319906
10
-671.61249999999995
20
455.26250000000016
10
-659.61249999999973
20
455.26250000000016
42
-0.41421356237307422
10
-658.61249999999984
20
454.26250000000016
10
-658.61249999999973
20
442.26249999999999
42
-0.41421356237299095
10
-659.6124999999995
20
441.26249999999999
0
LWPOLYLINE
5
119
100
AcDbEntity
8
0
100
AcDbPolyline
90
8
70
1
43
0.0
10
-816.79750000000013
20
512.4050000000002
42
-0.41421356237307422
10
-815.7974999999999
20
511.40500000000009
10
-815.7974999999999
20
499.40499999999992
42
-0.41421356237315748
10
-816.79750000000001
20
498.40500000000014
10
-828.79750000000001
20
498.40499999999986
42
-0.41421356237313667
10
-829.7974999999999
20
499.40499999999992
10
-829.7974999999999
20
511.40500000000009
42
-0.41421356237309503
10
-828.79750000000001
20
512.4050000000002
0
LWPOLYLINE
5
120
100
AcDbEntity
8
0
100
AcDbPolyline
90
24
70
1
43
0.0
10
-741.80999999999983
20
494.37684903531812
42
0.41396480196508872
10
-742.80915060425161
20
495.37684867458125
10
-978.96284075605126
20
495.57743668733997
42
0.41446236654563134
10
-979.96369015179994
20
494.57743704807655
10
-979.96369015179971
20
478.33400000000029
42
0.41421356237307422
10
-978.96369015179971
20
477.33400000000012
10
-978.58224999999766
20
477.33400000000012
42
-0.41421356237309503
10
-977.58224999999754
20
476.334
10
-977.58225000000016
20
458.77290452829993
42
0.41421356237313667
10
-976.58225000000016
20
457.77290452829993
10
-964.38194118979993
20
457.77290452830022
42
-0.41421356237311585
10
-963.3819411897997
20
456.77290452829993
10
-963.3819411897997
20
440.24128989212898
42
0.41421356237301177
10
-962.38194118980005
20
439.24128989212898
10
-764.18336353550274
20
439.24128989212886
42
0.41421356237326151
10
-763.18336353550296
20
440.24128989212898
10
-763.18336353550308
20
456.77290452829993
42
-0.41421356237334478
10
-762.18336353550296
20
457.77290452829993
10
-759.42042843379954
20
457.77290452830005
42
0.41421356237313667
10
-758.42042843379943
20
458.77290452829993
10
-758.42042843379943
20
476.33400000000023
42
-0.41421356237301177
10
-757.42042843379954
20
477.33400000000017
10
-742.80999999999972
20
477.33400000000012
42
0.41421356237307422
10
-741.80999999999983
20
478.33400000000029
0
LWPOLYLINE
5
121
100
AcDbEntity
8
0
100
AcDbPolyline
90
8
70
1
43
0.0
10
-763.09999999999968
20
435.21250000000003
42
-0.41421356237313667
10
-762.09999999999934
20
436.21249999999998
10
-750.09999999999991
20
436.21250000000003
42
-0.41421356237332396
10
-749.09999999999968
20
435.21250000000003
10
-749.09999999999957
20
423.21249999999998
42
-0.41421356237319906
10
-750.0999999999998
20
422.21249999999998
10
-762.0999999999998
20
422.21250000000009
42
-0.41421356237315748
10
-763.09999999999968
20
423.21249999999998
0
LWPOLYLINE
5
122
100
AcDbEntity
8
0
100
AcDbPolyline
90
8
70
1
43
0.0
10
-958.65000000000032
20
423.21249999999998
10
-958.65000000000032
20
435.21250000000009
42
0.41421356237307422
10
-959.65000000000032
20
436.2125000000002
10
-971.65000000000032
20
436.2125000000002
42
0.4142135623731783
10
-972.65000000000043
20
435.21250000000009
10
-972.65000000000043
20
423.21249999999998
42
0.4142135623731783
10
-971.65000000000032
20
422.21250000000009
10
-959.65000000000032
20
422.21249999999992
42
0.41421356237313667
0
LWPOLYLINE
5
123
100
AcDbEntity
8
0
100
AcDbPolyline
90
8
70
1
43
0.0
10
-848.84749999999997
20
499.40499999999992
10
-848.84749999999997
20
511.40500000000009
42
-0.41421356237309503
10
-847.84750000000008
20
512.4050000000002
10
-835.84749999999985
20
512.40500000000031
42
-0.41421356237301177
10
-834.84749999999985
20
511.40500000000009
10
-834.84749999999985
20
499.40499999999992
42
-0.4142135623730534
10
-835.84749999999985
20
498.40499999999992
10
-847.84750000000008
20
498.40499999999986
42
-0.41421356237313667
0
LWPOLYLINE
5
124
100
AcDbEntity
8
0
100
AcDbPolyline
90
8
70
1
43
0.0
10
-658.63868404880009
20
475.83341673530003
42
0.4142135623731783
10
-659.63868404880031
20
476.83341673529992
10
-709.73867184179971
20
476.83341673530009
42
0.41421356237313667
10
-710.7386718417996
20
475.83341673530003
10
-710.7386718417996
20
458.76241673530023
42
0.4142135623730534
10
-709.73867184179971
20
457.76241673530023
10
-659.63868404880031
20
457.76241673530023
42
0.41421356237319906
10
-658.63868404880009
20
458.76241673530023
0
LWPOLYLINE
5
125
100
AcDbEntity
8
0
100
AcDbPolyline
90
8
70
1
43
0.0
10
-671.61249999999984
20
422.21249999999992
42
-0.41421356237326151
10
-672.61250000000018
20
423.21249999999998
10
-672.61250000000007
20
435.21250000000009
42
-0.41421356237321988
10
-671.61249999999984
20
436.2125000000002
10
-659.61249999999961
20
436.2125000000002
42
-0.41421356237334478
10
-658.61249999999984
20
435.21250000000009
10
-658.61249999999973
20
423.21249999999998
42
-0.41421356237299095
10
-659.6124999999995
20
422.21249999999998
0
LWPOLYLINE
5
126
100
AcDbEntity
8
0
100
AcDbPolyline
90
8
70
1
43
0.0
10
-709.71249999999986
20
441.26249999999993
42
-0.41421356237326151
10
-710.7125000000002
20
442.26249999999999
10
-710.71250000000009
20
454.26250000000016
42
-0.41421356237313667
10
-709.71249999999986
20
455.26250000000027
10
-697.71250000000009
20
455.26250000000005
42
-0.41421356237319906
10
-696.71249999999986
20
454.26250000000016
10
-696.71249999999986
20
442.26249999999999
42
-0.41421356237328233
10
-697.7125000000002
20
441.26250000000022
0
LWPOLYLINE
5
127
100
AcDbEntity
8
0
100
AcDbPolyline
90
8
70
1
43
0.0
10
-678.6624999999998
20
455.26250000000027
42
-0.41421356237313667
10
-677.66249999999991
20
454.26250000000016
10
-677.66249999999991
20
442.26249999999999
42
-0.4142135623730534
10
-678.6624999999998
20
441.26249999999999
10
-690.66249999999968
20
441.26249999999999
42
-0.41421356237340717
10
-691.6624999999998
20
442.26249999999999
10
-691.66249999999991
20
454.26250000000016
42
-0.41421356237330315
10
-690.66249999999968
20
455.26250000000016
0
LWPOLYLINE
5
128
100
AcDbEntity
8
0
100
AcDbPolyline
90
8
70
1
43
0.0
10
-691.6624999999998
20
423.21249999999998
10
-691.66249999999968
20
435.21250000000009
42
-0.41421356237334478
10
-690.66249999999968
20
436.21250000000009
10
-678.6624999999998
20
436.21250000000026
42
-0.41421356237307422
10
-677.66249999999991
20
435.21250000000009
10
-677.66249999999991
20
423.21249999999998
42
-0.4142135623730534
10
-678.6624999999998
20
422.21249999999998
10
-690.66249999999968
20
422.21249999999998
42
-0.41421356237340717
0
LWPOLYLINE
5
129
100
AcDbEntity
8
0
100
AcDbPolyline
90
8
70
1
43
0.0
10
-866.89750000000004
20
498.40499999999992
42
-0.41421356237319906
10
-867.89750000000026
20
499.40499999999992
10
-867.89750000000026
20
511.40500000000009
42
-0.41421356237297013
10
-866.89750000000004
20
512.40500000000009
10
-854.89749999999981
20
512.40500000000031
42
-0.41421356237301177
10
-853.89749999999992
20
511.40500000000009
10
-853.89749999999992
20
499.40499999999992
42
-0.4142135623730534
10
-854.89749999999981
20
498.40499999999992
0
LWPOLYLINE
5
130
100
AcDbEntity
8
0
100
AcDbPolyline
90
8
70
1
43
0.0
10
-935.83750000000032
20
422.21249999999992
42
0.41421356237313667
10
-934.83750000000043
20
423.21249999999998
10
-934.83750000000043
20
435.21250000000009
42
0.41421356237307422
10
-935.83750000000032
20
436.2125000000002
10
-947.83750000000043
20
436.2125000000002
42
0.41421356237330315
10
-948.83750000000032
20
435.21250000000009
10
-948.83750000000032
20
423.21249999999998
42
0.41421356237328233
10
-947.83750000000043
20
422.21249999999998
0
LWPOLYLINE
5
131
100
AcDbEntity
8
0
100
AcDbPolyline
90
8
70
1
43
0.0
10
-738.28749999999957
20
436.21250000000003
10
-726.28749999999968
20
436.2125000000002
42
-0.41421356237311585
10
-725.28749999999991
20
435.21250000000003
10
-725.28750000000002
20
423.21249999999998
42
-0.41421356237309503
10
-726.28749999999968
20
422.21249999999998
10
-738.28749999999957
20
422.21249999999998
42
-0.41421356237319906
10
-739.28749999999934
20
423.21249999999998
10
-739.28749999999923
20
435.21250000000003
42
-0.41421356237309503
0
LWPOLYLINE
5
132
100
AcDbEntity
8
0
100
AcDbPolyline
90
8
70
1
43
0.0
10
-737.19374999999991
20
454.26250000000016
42
0.41421356237292856
10
-738.19374999999934
20
455.26250000000016
10
-750.19374999999968
20
455.26250000000016
42
0.41421356237340717
10
-751.1937499999998
20
454.26250000000016
10
-751.19374999999968
20
442.26249999999999
42
0.41421356237338641
10
-750.19374999999968
20
441.26250000000016
10
-738.19374999999945
20
441.26249999999999
42
0.41421356237303258
10
-737.19374999999991
20
442.26249999999999
0
LWPOLYLINE
5
133
100
AcDbEntity
8
0
100
AcDbPolyline
90
8
70
1
43
0.0
10
-905.99749999999995
20
511.40500000000009
42
-0.41421356237309503
10
-904.99750000000006
20
512.4050000000002
10
-892.99749999999995
20
512.40500000000031
42
-0.41421356237301177
10
-891.99749999999995
20
511.40500000000009
10
-891.99749999999995
20
499.40499999999992
42
-0.4142135623730534
10
-892.99749999999995
20
498.40499999999992
10
-904.99750000000006
20
498.40499999999986
42
-0.41421356237313667
10
-905.99749999999995
20
499.40499999999992
0
LWPOLYLINE
5
134
100
AcDbEntity
8
0
100
AcDbPolyline
90
8
70
1
43
0.0
10
-950.14750000000004
20
512.4050000000002
42
-0.41421356237321988
10
-949.14750000000015
20
511.40500000000009
10
-949.14750000000026
20
499.40499999999992
42
-0.41421356237328233
10
-950.14750000000004
20
498.40499999999997
10
-962.14750000000004
20
498.40499999999986
42
-0.41421356237313667
10
-963.14750000000004
20
499.40499999999992
10
-963.14750000000004
20
511.40500000000009
42
-0.41421356237309503
10
-962.14750000000004
20
512.4050000000002
0
LWPOLYLINE
5
135
100
AcDbEntity
8
0
100
AcDbPolyline
90
8
70
1
43
0.0
10
-735.75574999999981
20
453.26249999999993
42
-0.41421356237319906
10
-734.75574999999981
20
454.26249999999987
10
-729.75575000000026
20
454.26249999999993
42
-0.41421356237328233
10
-728.75575000000015
20
453.26249999999993
10
-728.75575000000015
20
440.26250000000033
42
-0.41421356237338641
10
-729.75575000000026
20
439.26250000000039
10
-734.75574999999981
20
439.26250000000027
42
-0.4142135623731783
10
-735.75574999999981
20
440.26250000000033
0
LWPOLYLINE
5
136
100
AcDbEntity
8
0
100
AcDbPolyline
90
8
70
1
43
0.0
10
-943.09750000000008
20
512.4050000000002
10
-931.09749999999985
20
512.40500000000031
42
-0.41421356237301177
10
-930.09749999999997
20
511.40500000000009
10
-930.09749999999997
20
499.40499999999992
42
-0.4142135623730534
10
-931.09749999999985
20
498.40499999999992
10
-943.09750000000008
20
498.40499999999986
42
-0.41421356237313667
10
-944.09750000000008
20
499.40499999999992
10
-944.09750000000008
20
511.40500000000009
42
-0.41421356237309503
0
LWPOLYLINE
5
137
100
AcDbEntity
8
0
100
AcDbPolyline
90
8
70
1
43
0.0
10
-968.19749999999999
20
499.40499999999992
42
-0.41421356237297013
10
-969.19750000000022
20
498.40499999999992
10
-981.1975000000001
20
498.40499999999992
42
-0.41421356237307422
10
-982.19750000000022
20
499.40499999999992
10
-982.19750000000022
20
511.40500000000009
42
-0.41421356237307422
10
-981.1975000000001
20
512.40500000000009
10
-969.19750000000022
20
512.40500000000031
42
-0.4142135623731783
10
-968.19749999999999
20
511.40500000000009
0
LWPOLYLINE
5
138
100
AcDbEntity
8
0
100
AcDbPolyline
90
8
70
1
43
0.0
10
-924.04750000000013
20
498.40499999999986
42
-0.41421356237313667
10
-925.04750000000001
20
499.40499999999992
10
-925.04750000000001
20
511.40500000000009
42
-0.41421356237309503
10
-924.04750000000013
20
512.4050000000002
10
-912.04750000000001
20
512.4050000000002
42
-0.41421356237321988
10
-911.04750000000013
20
511.40500000000009
10
-911.04750000000024
20
499.40499999999992
42
-0.41421356237328233
10
-912.04750000000001
20
498.40499999999997
0
LWPOLYLINE
5
139
100
AcDbEntity
8
0
100
AcDbPolyline
90
8
70
1
43
0.0
10
-880.58219015179998
20
536.21750000000009
10
-888.84517184180004
20
536.21750000000043
42
0.41421356237267881
10
-889.34517184179992
20
535.71749999999997
10
-889.34517184179992
20
522.71749999999997
42
0.4142135623736361
10
-888.84517184180004
20
522.2175000000002
10
-880.58219015180021
20
522.21750000000009
42
0.41421356237188794
10
-880.08219015179998
20
522.71749999999997
10
-880.08219015180021
20
535.71749999999997
42
0.41421356237292856
0
LWPOLYLINE
5
140
100
AcDbEntity
8
0
100
AcDbPolyline
90
8
70
1
43
0.0
10
-886.94749999999999
20
499.40499999999992
10
-886.94749999999999
20
511.40500000000009
42
-0.41421356237309503
10
-885.94749999999999
20
512.4050000000002
10
-873.94749999999999
20
512.4050000000002
42
-0.41421356237321988
10
-872.9475000000001
20
511.40500000000009
10
-872.94750000000022
20
499.40499999999992
42
-0.4142135623733656
10
-873.94749999999999
20
498.40499999999997
10
-885.94749999999999
20
498.40499999999986
42
-0.41421356237313667
0
LWPOLYLINE
5
141
100
AcDbEntity
8
0
100
AcDbPolyline
90
8
70
1
43
0.0
10
-984.09150000000011
20
523.2175000000002
10
-984.09150000000011
20
535.21750000000009
42
-0.41421356237309503
10
-983.09150000000022
20
536.21750000000031
10
-967.30350000000021
20
536.21750000000031
42
-0.41421356237307422
10
-966.30350000000021
20
535.21750000000009
10
-966.30350000000021
20
523.2175000000002
42
-0.41421356237313667
10
-967.30350000000021
20
522.2175000000002
10
-983.09150000000022
20
522.21750000000031
42
-0.41421356237292856
0
LWPOLYLINE
5
142
100
AcDbEntity
8
0
100
AcDbPolyline
90
8
70
1
43
0.0
10
-987.24749999999972
20
523.21749999999997
42
-0.41421356237330315
10
-988.24749999999995
20
522.2175000000002
10
-1000.2474999999998
20
522.21749999999997
42
-0.41421356237313667
10
-1001.2474999999997
20
523.21749999999997
10
-1001.2475000000001
20
535.21749999999997
42
-0.41421356237313667
10
-1000.2474999999999
20
536.21749999999997
10
-988.24749999999995
20
536.21750000000031
42
-0.41421356237307422
10
-987.24749999999995
20
535.21750000000009
0
LWPOLYLINE
5
143
100
AcDbEntity
8
0
100
AcDbPolyline
90
8
70
1
43
0.0
10
-758.64749999999981
20
499.40499999999992
42
-0.4142135623730534
10
-759.64749999999981
20
498.40499999999992
10
-771.64750000000026
20
498.40499999999992
42
-0.41421356237319906
10
-772.64749999999992
20
499.40499999999992
10
-772.64750000000004
20
511.40500000000009
42
-0.41421356237299095
10
-771.64750000000026
20
512.40500000000009
10
-759.64749999999981
20
512.40500000000031
42
-0.41421356237301177
10
-758.64749999999981
20
511.40500000000009
0
LWPOLYLINE
5
144
100
AcDbEntity
8
0
100
AcDbPolyline
90
8
70
1
43
0.0
10
-892.99750000000006
20
536.21750000000043
42
-0.41421356237334478
10
-891.99749999999995
20
535.21750000000031
10
-891.99749999999995
20
523.21750000000043
42
-0.41421356237319906
10
-892.99749999999995
20
522.21750000000043
10
-904.99750000000006
20
522.21750000000031
42
-0.41421356237297013
10
-905.99749999999995
20
523.21750000000043
10
-905.99749999999995
20
535.21750000000031
42
-0.41421356237301177
10
-904.99750000000006
20
536.21750000000054
0
LWPOLYLINE
5
145
100
AcDbEntity
8
0
100
AcDbPolyline
90
8
70
1
43
0.0
10
-810.74749999999995
20
511.40500000000009
42
-0.4142135623732407
10
-809.74749999999972
20
512.40499999999997
10
-797.74749999999983
20
512.40500000000031
42
-0.41421356237301177
10
-796.74749999999995
20
511.40500000000009
10
-796.74749999999995
20
499.40499999999992
42
-0.4142135623730534
10
-797.74749999999983
20
498.40499999999992
10
-809.74749999999995
20
498.40500000000009
42
-0.41421356237315748
10
-810.74749999999995
20
499.40499999999992
0
LWPOLYLINE
5
146
100
AcDbEntity
8
0
100
AcDbPolyline
90
8
70
1
43
0.0
10
-930.09750000000008
20
523.21750000000043
42
-0.4142135623733656
10
-931.09750000000031
20
522.21750000000043
10
-943.09750000000008
20
522.21750000000031
42
-0.41421356237288692
10
-944.09750000000031
20
523.21750000000043
10
-944.09750000000008
20
535.21750000000031
42
-0.41421356237301177
10
-943.09750000000008
20
536.21750000000054
10
-931.09750000000008
20
536.21750000000043
42
-0.41421356237334478
10
-930.09749999999997
20
535.21750000000031
0
LWPOLYLINE
5
147
100
AcDbEntity
8
0
100
AcDbPolyline
90
8
70
1
43
0.0
10
-777.69749999999999
20
535.21750000000031
10
-777.69749999999999
20
523.21750000000043
42
-0.41421356237334478
10
-778.6975000000001
20
522.21750000000031
10
-790.69749999999999
20
522.21750000000031
42
-0.41421356237288692
10
-791.69750000000022
20
523.21750000000043
10
-791.6975000000001
20
535.21750000000031
42
-0.41421356237286611
10
-790.69749999999999
20
536.21750000000043
10
-778.6975000000001
20
536.21750000000031
42
-0.41421356237340717
0
LWPOLYLINE
5
148
100
AcDbEntity
8
0
100
AcDbPolyline
90
8
70
1
43
0.0
10
-962.14750000000004
20
522.21750000000031
42
-0.41421356237297013
10
-963.14750000000004
20
523.21750000000043
10
-963.14750000000004
20
535.21750000000031
42
-0.41421356237301177
10
-962.14750000000004
20
536.21750000000054
10
-950.14749999999992
20
536.21750000000031
42
-0.4142135623732407
10
-949.14750000000015
20
535.21750000000031
10
-949.14750000000015
20
523.21750000000043
42
-0.41421356237321988
10
-950.14750000000004
20
522.21750000000031
0
LWPOLYLINE
5
149
100
AcDbEntity
8
0
100
AcDbPolyline
90
8
70
1
43
0.0
10
-924.04750000000013
20
536.21750000000054
10
-912.04750000000013
20
536.21750000000031
42
-0.41421356237328233
10
-911.04750000000013
20
535.21750000000031
10
-911.04750000000013
20
523.21750000000043
42
-0.41421356237321988
10
-912.04750000000001
20
522.21750000000031
10
-924.04750000000013
20
522.21750000000031
42
-0.41421356237297013
10
-925.04750000000001
20
523.21750000000043
10
-925.04750000000001
20
535.21750000000031
42
-0.41421356237301177
0
LWPOLYLINE
5
150
100
AcDbEntity
8
0
100
AcDbPolyline
90
8
70
1
43
0.0
10
-759.64749999999981
20
536.21750000000043
42
-0.41421356237309503
10
-758.64750000000004
20
535.21750000000031
10
-758.64749999999981
20
523.21750000000043
42
-0.41421356237307422
10
-759.64749999999981
20
522.21750000000031
10
-771.64750000000026
20
522.21750000000031
42
-0.41421356237309503
10
-772.64750000000004
20
523.21750000000043
10
-772.64749999999992
20
535.21750000000031
42
-0.41421356237292856
10
-771.64750000000026
20
536.21750000000054
0
LWPOLYLINE
5
151
100
AcDbEntity
8
0
100
AcDbPolyline
90
8
70
1
43
0.0
10
-691.68499999999995
20
535.21750000000031
42
-0.41421356237301177
10
-690.68499999999995
20
536.21750000000054
10
-678.68499999999995
20
536.21750000000031
42
-0.41421356237338641
10
-677.68500000000017
20
535.21750000000031
10
-677.68500000000017
20
523.21750000000043
42
-0.41421356237332396
10
-678.68499999999995
20
522.21750000000031
10
-690.68499999999995
20
522.21750000000031
42
-0.41421356237288692
10
-691.68500000000017
20
523.21750000000043
0
LWPOLYLINE
5
152
100
AcDbEntity
8
0
100
AcDbPolyline
90
8
70
1
43
0.0
10
-777.69749999999999
20
499.40499999999992
42
-0.41421356237319906
10
-778.69749999999965
20
498.40499999999992
10
-790.69749999999999
20
498.40499999999992
42
-0.41421356237319906
10
-791.69750000000022
20
499.40499999999992
10
-791.69750000000022
20
511.40500000000009
42
-0.41421356237297013
10
-790.69749999999999
20
512.40500000000009
10
-778.69749999999954
20
512.4050000000002
42
-0.41421356237311585
10
-777.69749999999999
20
511.40500000000009
0
LWPOLYLINE
5
153
100
AcDbEntity
8
0
100
AcDbPolyline
90
8
70
1
43
0.0
10
-864.42250000000001
20
522.21750000000031
10
-876.4224999999999
20
522.21750000000031
42
-0.41421356237288692
10
-877.42250000000013
20
523.21750000000043
10
-877.42250000000013
20
535.21750000000031
42
-0.41421356237301177
10
-876.42250000000001
20
536.21750000000043
10
-864.42250000000001
20
536.21750000000043
42
-0.41421356237309503
10
-863.42250000000024
20
535.21750000000031
10
-863.42250000000035
20
523.21750000000043
42
-0.41421356237311585
0
LWPOLYLINE
5
154
100
AcDbEntity
8
0
100
AcDbPolyline
90
8
70
1
43
0.0
10
-803.11650000000043
20
536.2175000000002
42
0.4142135623724707
10
-803.61649999999997
20
535.71749999999997
10
-803.61649999999997
20
522.71749999999997
42
0.41421356237267881
10
-803.11649999999986
20
522.21749999999997
10
-794.85349999999983
20
522.21749999999997
42
0.41421356237326151
10
-794.35349999999983
20
522.71749999999997
10
-794.35349999999971
20
535.71749999999997
42
0.41421356237255391
10
-794.85349999999983
20
536.21750000000054
0
LWPOLYLINE
5
155
100
AcDbEntity
8
0
100
AcDbPolyline
90
8
70
1
43
0.0
10
-845.37249999999983
20
522.21750000000043
10
-857.37249999999995
20
522.21750000000031
42
-0.41421356237276202
10
-858.37250000000029
20
523.21750000000043
10
-858.37249999999983
20
535.21750000000031
42
-0.41421356237297013
10
-857.37250000000006
20
536.21750000000054
10
-845.37249999999983
20
536.21750000000031
42
-0.41421356237338641
10
-844.37250000000006
20
535.21750000000031
10
-844.37250000000006
20
523.21750000000043
42
-0.41421356237338641
0
LWPOLYLINE
5
156
100
AcDbEntity
8
0
100
AcDbPolyline
90
8
70
1
43
0.0
10
-747.89175
20
475.30500000000018
42
0.41421356237319906
10
-748.89175000000012
20
476.30500000000012
10
-753.89175000000012
20
476.30500000000012
42
0.41421356237313667
10
-754.89175000000023
20
475.30500000000018
10
-754.89175000000023
20
462.30500000000006
42
0.41421356237319906
10
-753.89175000000012
20
461.30500000000012
10
-748.89175000000012
20
461.30500000000012
42
0.41421356237313667
10
-747.89175
20
462.30500000000006
0
LWPOLYLINE
5
157
100
AcDbEntity
8
0
100
AcDbPolyline
90
8
70
1
43
0.0
10
-740.59749999999985
20
536.21750000000031
42
-0.4142135623732407
10
-739.59749999999974
20
535.21750000000031
10
-739.59749999999974
20
523.21750000000043
42
-0.41421356237319906
10
-740.59749999999997
20
522.21750000000043
10
-752.59749999999985
20
522.21750000000031
42
-0.41421356237288692
10
-753.59750000000031
20
523.21750000000043
10
-753.59749999999985
20
535.21750000000031
42
-0.41421356237301177
10
-752.59749999999985
20
536.21750000000043
0
LWPOLYLINE
5
158
100
AcDbEntity
8
0
100
AcDbPolyline
90
8
70
1
43
0.0
10
-839.3225000000001
20
523.21750000000043
10
-839.3225000000001
20
535.21750000000031
42
-0.41421356237301177
10
-838.32249999999999
20
536.21750000000043
10
-826.32249999999999
20
536.21750000000031
42
-0.41421356237319906
10
-825.32249999999999
20
535.21750000000031
10
-825.32249999999999
20
523.21750000000043
42
-0.41421356237307422
10
-826.32249999999999
20
522.21750000000031
10
-838.32250000000022
20
522.21750000000031
42
-0.41421356237282447
0
LWPOLYLINE
5
159
100
AcDbEntity
8
0
100
AcDbPolyline
90
8
70
1
43
0.0
10
-658.63868404879997
20
515.05416063129996
42
-0.4142135623732407
10
-659.63868404879986
20
514.05416063130008
10
-712.80659973859269
20
514.05416063130008
42
-0.41421356237334478
10
-713.80659973859269
20
515.05416063129996
10
-713.80659973859281
20
519.97510828368536
42
-0.41378618630676717
10
-712.80805911168386
20
520.97510721879996
10
-659.6401434218908
20
521.05269912688289
42
-0.41464106763166952
10
-658.63868404879997
20
520.05270019176828
0
LWPOLYLINE
5
160
100
AcDbEntity
8
0
100
AcDbPolyline
90
8
70
1
43
0.0
10
-857.38595793517811
20
520.76410872915085
10
-718.44961819880064
20
520.96615061868397
42
-0.41421204815884138
10
-717.44816506044231
20
519.96761104912889
10
-717.44099662525457
20
515.05562000439113
42
-0.41464106763194036
10
-718.44099556036895
20
514.05416063129996
10
-857.37763015155849
20
514.05416063129962
42
-0.41378618630666331
10
-858.37762908667287
20
515.0527012582088
10
-858.38450266704899
20
519.76265041341412
42
-0.41421507658876178
0
LWPOLYLINE
5
161
100
AcDbEntity
8
0
100
AcDbPolyline
90
8
70
1
43
0.0
10
-732.45374999999979
20
473.30500000000023
42
0.41421356237328233
10
-733.45375000000001
20
474.30500000000023
10
-745.45375000000013
20
474.30500000000023
42
0.41421356237307422
10
-746.45375000000001
20
473.30500000000023
10
-746.45375000000001
20
461.30500000000018
42
0.41421356237307422
10
-745.45375000000024
20
460.30500000000018
10
-733.4537499999999
20
460.30500000000018
42
0.4142135623732407
10
-732.45375000000013
20
461.30500000000018
0
LWPOLYLINE
5
162
100
AcDbEntity
8
0
100
AcDbPolyline
90
8
70
1
43
0.0
10
-820.27249999999981
20
535.21750000000031
42
-0.41421356237309503
10
-819.27250000000015
20
536.21750000000054
10
-807.27250000000026
20
536.21750000000031
42
-0.41421356237332396
10
-806.27249999999992
20
535.21750000000031
10
-806.27249999999992
20
523.21750000000043
42
-0.41421356237319906
10
-807.27250000000015
20
522.21750000000043
10
-819.27249999999981
20
522.21750000000031
42
-0.41421356237288692
10
-820.27250000000004
20
523.21750000000043
0
LWPOLYLINE
5
163
100
AcDbEntity
8
0
100
AcDbPolyline
90
8
70
1
43
0.0
10
-724.01575000000003
20
475.30500000000012
42
0.41421356237307422
10
-725.01575000000003
20
476.30500000000018
10
-730.01575000000003
20
476.30500000000012
42
0.41421356237328233
10
-731.01575000000014
20
475.30500000000012
10
-731.01575000000003
20
462.30500000000006
42
0.41421356237328233
10
-730.01575000000014
20
461.30500000000012
10
-725.01575000000003
20
461.30500000000006
42
0.41421356237294937
10
-724.01575000000003
20
462.30500000000006
0
LWPOLYLINE
5
164
100
AcDbEntity
8
0
100
AcDbPolyline
90
8
70
1
43
0.0
10
-727.61200000000008
20
496.41250000000014
10
-722.61199999999974
20
496.41250000000014
42
0.41421356237315748
10
-721.61199999999997
20
497.41250000000014
10
-721.61199999999997
20
510.41250000000019
42
0.41421356237313667
10
-722.61199999999974
20
511.41250000000014
10
-727.61200000000008
20
511.41250000000019
42
0.4142135623732407
10
-728.61199999999985
20
510.41250000000019
10
-728.61199999999963
20
497.41250000000014
42
0.41421356237309503
0
LWPOLYLINE
5
165
100
AcDbEntity
8
0
100
AcDbPolyline
90
8
70
1
43
0.0
10
-731.04999999999973
20
512.41250000000025
10
-743.04999999999973
20
512.41250000000036
42
0.41421356237313667
10
-744.04999999999973
20
511.41250000000025
10
-744.04999999999973
20
499.41250000000019
42
0.41421356237301177
10
-743.04999999999973
20
498.41250000000002
10
-731.04999999999961
20
498.41250000000014
42
0.4142135623732407
10
-730.04999999999984
20
499.41250000000019
10
-730.04999999999973
20
511.41250000000025
42
0.41421356237334478
0
LWPOLYLINE
5
166
100
AcDbEntity
8
0
100
AcDbPolyline
90
8
70
1
43
0.0
10
-997.84375000000011
20
460.3125
10
-981.08124999999995
20
460.31249999999994
42
0.41421356237313667
10
-980.08125000000007
20
461.3125
10
-980.08125000000007
20
473.31250000000011
42
0.41421356237301177
10
-981.08124999999995
20
474.31250000000006
10
-997.84375000000011
20
474.31250000000011
42
0.41421356237319906
10
-998.84375
20
473.31250000000011
10
-998.84375
20
461.3125
42
0.4142135623730534
0
LWPOLYLINE
5
167
100
AcDbEntity
8
0
100
AcDbPolyline
90
8
70
1
43
0.0
10
-861.00833703637022
20
519.75811506046887
10
-861.00147433431744
20
515.05562000438749
42
-0.41464106763169034
10
-862.00147326943193
20
514.05416063129655
10
-1000.2511871010005
20
514.05416063130008
42
-0.41421356237326151
10
-1001.2511871010004
20
515.05416063129996
10
-1001.2511871010004
20
519.55561383963652
42
-0.41378768220435425
10
-1000.2526413652424
20
520.55561278219386
10
-862.00979023572688
20
520.7566546299355
42
-0.41421206602498056
0
LWPOLYLINE
5
168
100
AcDbEntity
8
0
100
AcDbPolyline
90
8
70
1
43
0.0
10
-989.34124999999995
20
442.25500000000011
42
0.41421356237307422
10
-988.34124999999995
20
441.255
10
-976.34124999999995
20
441.25500000000017
42
0.41421356237334478
10
-975.34125000000006
20
442.25500000000011
10
-975.34125000000006
20
454.25500000000022
42
0.41421356237328233
10
-976.34124999999995
20
455.25500000000022
10
-988.34124999999995
20
455.25500000000028
42
0.41421356237313667
10
-989.34124999999995
20
454.25500000000022
0
LWPOLYLINE
5
169
100
AcDbEntity
8
0
100
AcDbPolyline
90
8
70
1
43
0.0
10
-997.77925000000005
20
440.25500000000011
42
0.41421356237307422
10
-996.77925000000016
20
439.255
10
-991.77925000000016
20
439.255
42
0.41421356237334478
10
-990.77925000000005
20
440.25500000000011
10
-990.77925000000027
20
453.25500000000005
42
0.41421356237334478
10
-991.77925000000016
20
454.25500000000005
10
-996.77925000000016
20
454.25500000000011
42
0.41421356237313667
10
-997.77925000000005
20
453.25500000000005
0
LWPOLYLINE
5
170
100
AcDbEntity
8
0
100
AcDbPolyline
90
8
70
1
43
0.0
10
-672.6350000000001
20
523.21750000000043
10
-672.6350000000001
20
535.21750000000031
42
-0.41421356237294937
10
-671.63499999999999
20
536.21750000000043
10
-659.6350000000001
20
536.21750000000031
42
-0.41421356237328233
10
-658.63499999999999
20
535.21750000000031
10
-658.63499999999988
20
523.21750000000043
42
-0.41421356237319906
10
-659.63499999999976
20
522.21750000000043
10
-671.63499999999999
20
522.21750000000031
42
-0.41421356237294937
0
LWPOLYLINE
5
171
100
AcDbEntity
8
0
100
AcDbPolyline
90
8
70
1
43
0.0
10
-996.46250000000032
20
492.36250000000013
10
-996.46250000000032
20
480.36250000000001
42
0.4142135623730534
10
-995.46250000000043
20
479.36250000000001
10
-983.46250000000055
20
479.36250000000018
42
0.41421356237319906
10
-982.46250000000032
20
480.36250000000001
10
-982.46250000000032
20
492.36250000000013
42
0.41421356237319906
10
-983.46250000000043
20
493.36250000000007
10
-995.46250000000043
20
493.36250000000013
42
0.41421356237319906
0
LWPOLYLINE
5
172
100
AcDbEntity
8
0
100
AcDbPolyline
90
8
70
1
43
0.0
10
-753.63174999999967
20
454.26249999999993
10
-758.63174999999978
20
454.26249999999993
42
0.41421356237328233
10
-759.63175000000024
20
453.26249999999993
10
-759.63175000000001
20
440.2625000000001
42
0.41421356237319906
10
-758.63175000000012
20
439.2625000000001
10
-753.63174999999967
20
439.26250000000005
42
0.41421356237326151
10
-752.6317499999999
20
440.2625000000001
10
-752.6317499999999
20
453.26249999999993
42
0.41421356237307422
0
LWPOLYLINE
5
173
100
AcDbEntity
8
0
100
AcDbPolyline
90
8
70
1
43
0.0
10
-967.88075000000003
20
439.26250000000016
42
0.41421356237330315
10
-966.88075000000026
20
440.2625000000001
10
-966.88075000000015
20
453.26250000000016
42
0.41421356237330315
10
-967.88075000000003
20
454.26250000000027
10
-972.88075000000026
20
454.26250000000033
42
0.41421356237307422
10
-973.88075000000015
20
453.26250000000016
10
-973.88075000000015
20
440.2625000000001
42
0.41421356237301177
10
-972.88075000000026
20
439.26249999999993
0
CIRCLE
5
174
100
AcDbEntity
8
0
100
AcDbCircle
10
-989.94474483080012
20
416.17538256730029
30
0
40
1.5500000000000114
210
0
220
0
230
1
0
CIRCLE
5
175
100
AcDbEntity
8
0
100
AcDbCircle
10
-749.9447448308
20
416.17538256730029
30
0
40
1.5499999999999887
210
0
220
0
230
1
0
CIRCLE
5
176
100
AcDbEntity
8
0
100
AcDbCircle
10
-669.9447448308
20
416.17538256730029
30
0
40
1.5500000000000589
210
0
220
0
230
1
0
CIRCLE
5
177
100
AcDbEntity
8
0
100
AcDbCircle
10
-669.9447448308
20
542.23538256730001
30
0
40
1.549999999999977
210
0
220
0
230
1
0
CIRCLE
5
178
100
AcDbEntity
8
0
100
AcDbCircle
10
-749.9447448308
20
542.23538256730001
30
0
40
1.5500000000000547
210
0
220
0
230
1
0
CIRCLE
5
179
100
AcDbEntity
8
0
100
AcDbCircle
10
-829.94474483080012
20
542.23538256730001
30
0
40
1.5499999999999448
210
0
220
0
230
1
0
CIRCLE
5
180
100
AcDbEntity
8
0
100
AcDbCircle
10
-909.94474483080012
20
542.23538256730001
30
0
40
1.5500000000000114
210
0
220
0
230
1
0
CIRCLE
5
181
100
AcDbEntity
8
0
100
AcDbCircle
10
-989.94474483080012
20
542.23538256730001
30
0
40
1.550000000000008
210
0
220
0
230
1
0
ENDSEC
0
SECTION
2
OBJECTS
0
DICTIONARY
5
C
100
AcDbDictionary
3
ACAD_GROUP
350
D
3
ACAD_MLINESTYLE
350
17
0
DICTIONARY
5
D
100
AcDbDictionary
0
DICTIONARY
5
1A
330
C
100
AcDbDictionary
0
DICTIONARY
5
17
100
AcDbDictionary
0
ENDSEC
0
EOF
