0
SECTION
2
HEADER
9
$INSUNITS
70
4
9
$ACADVER
1
AC1014
9
$HANDSEED
5
FFFF
0
ENDSEC
0
SECTION
2
TABLES
0
TABLE
2
VPORT
5
8
100
AcDbSymbolTable
0
ENDTAB
0
TABLE
2
LTYPE
5
5
100
AcDbSymbolTable
0
LTYPE
5
14
100
AcDbSymbolTableRecord
100
AcDbLinetypeTableRecord
2
BYBLOCK
70
0
0
LTYPE
5
15
100
AcDbSymbolTableRecord
100
AcDbLinetypeTableRecord
2
BYLAYER
70
0
0
ENDTAB
0
TABLE
2
LAYER
5
2
100
AcDbSymbolTable
70
2
0
LAYER
5
50
100
AcDbSymbolTableRecord
100
AcDbLayerTableRecord
2
0
70
0
6
CONTINUOUS
0
ENDTAB
0
TABLE
2
STYLE
5
3
100
AcDbSymbolTable
70
1
0
STYLE
5
11
100
AcDbSymbolTableRecord
100
AcDbTextStyleTableRecord
2
STANDARD
70
0
0
ENDTAB
0
TABLE
2
VIEW
5
6
100
AcDbSymbolTable
70
0
0
ENDTAB
0
TABLE
2
UCS
5
7
100
AcDbSymbolTable
70
0
0
ENDTAB
0
TABLE
2
APPID
5
9
100
AcDbSymbolTable
70
2
0
APPID
5
12
100
AcDbSymbolTableRecord
100
AcDbRegAppTableRecord
2
ACAD
70
0
0
ENDTAB
0
TABLE
2
DIMSTYLE
5
A
100
AcDbSymbolTable
70
1
0
ENDTAB
0
TABLE
2
BLOCK_RECORD
5
1
100
AcDbSymbolTable
70
1
0
BLOCK_RECORD
5
1F
100
AcDbSymbolTableRecord
100
AcDbBlockTableRecord
2
*MODEL_SPACE
0
BLOCK_RECORD
5
1B
100
AcDbSymbolTableRecord
100
AcDbBlockTableRecord
2
*PAPER_SPACE
0
ENDTAB
0
ENDSEC
0
SECTION
2
BLOCKS
0
BLOCK
5
20
100
AcDbEntity
100
AcDbBlockBegin
2
*MODEL_SPACE
0
ENDBLK
5
21
100
AcDbEntity
100
AcDbBlockEnd
0
BLOCK
5
1C
100
AcDbEntity
100
AcDbBlockBegin
2
*PAPER_SPACE
0
ENDBLK
5
1D
100
AcDbEntity
100
AcDbBlockEnd
0
ENDSEC
0
SECTION
2
ENTITIES
0
LWPOLYLINE
5
100
100
AcDbEntity
8
0
100
AcDbPolyline
90
8
70
1
43
0.0
10
-873.94750000000022
20
358.40499999999986
42
0.41421356237313667
10
-872.94750000000022
20
359.40499999999992
10
-872.94750000000022
20
371.40500000000009
42
0.41421356237332396
10
-873.94749999999999
20
372.4050000000002
10
-885.94749999999999
20
372.40500000000026
42
0.41421356237307422
10
-886.94749999999999
20
371.40500000000009
10
-886.94749999999999
20
359.40499999999992
42
0.41421356237301177
10
-885.94749999999999
20
358.40499999999975
0
LWPOLYLINE
5
101
100
AcDbEntity
8
0
100
AcDbPolyline
90
8
70
1
43
0.0
10
-931.09749999999985
20
358.40499999999969
42
0.41421356237292856
10
-930.09749999999997
20
359.40499999999992
10
-930.09749999999997
20
371.40500000000009
42
0.41421356237301177
10
-931.09749999999985
20
372.40500000000026
10
-943.09750000000008
20
372.40500000000026
42
0.41421356237307422
10
-944.09750000000008
20
371.40500000000009
10
-944.09750000000008
20
359.40499999999992
42
0.41421356237301177
10
-943.09750000000008
20
358.40499999999975
0
LWPOLYLINE
5
102
100
AcDbEntity
8
0
100
AcDbPolyline
90
8
70
1
43
0.0
10
-738.28749999999991
20
296.21250000000009
10
-726.28749999999968
20
296.21250000000015
42
-0.4142135623730846
10
-725.28749999999991
20
295.21250000000009
10
-725.28749999999991
20
283.21249999999981
42
-0.41421356237286611
10
-726.28749999999968
20
282.21249999999998
10
-738.28749999999968
20
282.21249999999992
42
-0.41421356237293894
10
-739.28749999999968
20
283.21249999999992
10
-739.28749999999968
20
295.21250000000009
42
-0.4142135623730846
0
LWPOLYLINE
5
103
100
AcDbEntity
8
0
100
AcDbPolyline
90
8
70
1
43
0.0
10
-958.65000000000032
20
295.21250000000009
10
-958.65000000000032
20
283.21249999999998
42
-0.41421356237312623
10
-959.65000000000032
20
282.21249999999992
10
-971.65000000000032
20
282.2125000000002
42
-0.41421356237325113
10
-972.65000000000043
20
283.21249999999998
10
-972.65000000000055
20
295.21250000000009
42
-0.41421356237307422
10
-971.65000000000032
20
296.2125000000002
10
-959.65000000000032
20
296.21250000000026
42
-0.4142135623730846
0
LWPOLYLINE
5
104
100
AcDbEntity
8
0
100
AcDbPolyline
90
8
70
1
43
0.0
10
-858.37249999999983
20
395.21750000000031
10
-858.3725000000004
20
383.21750000000037
42
0.41421356237284529
10
-857.37249999999995
20
382.21750000000037
10
-845.37249999999972
20
382.21750000000037
42
0.41421356237328233
10
-844.37250000000006
20
383.21750000000037
10
-844.37250000000006
20
395.21750000000031
42
0.41421356237332396
10
-845.37249999999972
20
396.2175000000002
10
-857.37250000000017
20
396.21750000000054
42
0.41421356237309503
0
LWPOLYLINE
5
105
100
AcDbEntity
8
0
100
AcDbPolyline
90
8
70
1
43
0.0
10
-931.09750000000008
20
396.2175000000002
10
-943.09750000000008
20
396.21750000000054
42
0.41421356237301177
10
-944.09750000000008
20
395.21750000000031
10
-944.09750000000031
20
383.21750000000037
42
0.41421356237288692
10
-943.09750000000008
20
382.21750000000037
10
-931.09749999999985
20
382.21750000000031
42
0.41421356237313667
10
-930.09749999999997
20
383.21750000000037
10
-930.09749999999997
20
395.21750000000031
42
0.41421356237319906
0
LWPOLYLINE
5
106
100
AcDbEntity
8
0
100
AcDbPolyline
90
8
70
1
43
0.0
10
-771.64750000000026
20
372.40500000000009
10
-759.64749999999981
20
372.40500000000026
42
-0.41421356237307422
10
-758.64749999999981
20
371.40500000000009
10
-758.64749999999981
20
359.40499999999992
42
-0.41421356237301177
10
-759.64749999999981
20
358.40499999999975
10
-771.64750000000026
20
358.40499999999992
42
-0.41421356237319906
10
-772.64749999999992
20
359.40499999999992
10
-772.64749999999992
20
371.40500000000009
42
-0.41421356237319906
0
LWPOLYLINE
5
107
100
AcDbEntity
8
0
100
AcDbPolyline
90
8
70
1
43
0.0
10
-734.75574999999981
20
314.26249999999987
42
0.41421356237325113
10
-735.75574999999981
20
313.2625000000001
10
-735.75575000000003
20
300.26250000000027
42
0.41421356237321988
10
-734.75574999999981
20
299.2625000000005
10
-729.75574999999992
20
299.26250000000027
42
0.41421356237299095
10
-728.75575000000015
20
300.2625000000001
10
-728.75575000000026
20
313.26250000000027
42
0.4142135623730534
10
-729.75574999999981
20
314.26249999999999
0
LWPOLYLINE
5
108
100
AcDbEntity
8
0
100
AcDbPolyline
90
8
70
1
43
0.0
10
-758.64749999999981
20
383.21750000000037
10
-758.64750000000015
20
395.21750000000031
42
0.41421356237326151
10
-759.64749999999981
20
396.21750000000026
10
-771.64750000000026
20
396.21750000000048
42
0.41421356237299095
10
-772.64749999999992
20
395.21750000000031
10
-772.64750000000026
20
383.21750000000037
42
0.41421356237292856
10
-771.64750000000026
20
382.21750000000037
10
-759.64749999999981
20
382.21750000000031
42
0.41421356237313667
0
LWPOLYLINE
5
109
100
AcDbEntity
8
0
100
AcDbPolyline
90
8
70
1
43
0.0
10
-891.99749999999995
20
395.21750000000031
42
0.41421356237319906
10
-892.99750000000006
20
396.2175000000002
10
-904.99750000000006
20
396.21750000000054
42
0.41421356237301177
10
-905.99749999999995
20
395.21750000000031
10
-905.99749999999995
20
383.21750000000037
42
0.41421356237292856
10
-904.99750000000006
20
382.21750000000037
10
-892.99750000000017
20
382.21750000000043
42
0.41421356237342799
10
-891.99749999999995
20
383.21750000000037
0
LWPOLYLINE
5
110
100
AcDbEntity
8
0
100
AcDbPolyline
90
8
70
1
43
0.0
10
-730.04999999999984
20
371.41250000000025
10
-730.04999999999973
20
359.41250000000019
42
-0.41421356237326151
10
-731.04999999999973
20
358.41250000000014
10
-743.04999999999973
20
358.41249999999997
42
-0.41421356237292856
10
-744.04999999999973
20
359.41250000000019
10
-744.04999999999973
20
371.41250000000025
42
-0.41421356237307422
10
-743.04999999999973
20
372.41250000000036
10
-731.04999999999973
20
372.41250000000025
42
-0.41421356237334478
0
LWPOLYLINE
5
111
100
AcDbEntity
8
0
100
AcDbPolyline
90
8
70
1
43
0.0
10
-912.04750000000001
20
372.40499999999992
42
-0.41421356237330315
10
-911.04750000000013
20
371.40500000000009
10
-911.04750000000013
20
359.40499999999992
42
-0.41421356237321988
10
-912.04750000000001
20
358.40499999999986
10
-924.04750000000013
20
358.40499999999975
42
-0.41421356237307422
10
-925.04750000000001
20
359.40499999999992
10
-925.04750000000001
20
371.40500000000009
42
-0.41421356237307422
10
-924.04750000000013
20
372.4050000000002
0
LWPOLYLINE
5
112
100
AcDbEntity
8
0
100
AcDbPolyline
90
8
70
1
43
0.0
10
-690.66249999999968
20
339.36250000000018
42
-0.4142135623733656
10
-691.6624999999998
20
340.36250000000001
10
-691.66249999999991
20
352.36250000000013
42
-0.41421356237355289
10
-690.66249999999968
20
353.36250000000013
10
-678.6624999999998
20
353.36250000000018
42
-0.41421356237313667
10
-677.66249999999991
20
352.36250000000013
10
-677.66249999999991
20
340.36250000000001
42
-0.41421356237307422
10
-678.6624999999998
20
339.36249999999978
0
LWPOLYLINE
5
113
100
AcDbEntity
8
0
100
AcDbPolyline
90
8
70
1
43
0.0
10
-889.34517184179981
20
395.71750000000003
42
-0.41421356237313667
10
-888.84517184180004
20
396.21750000000026
10
-880.58219015179998
20
396.21750000000026
42
-0.41421356237301177
10
-880.08219015180021
20
395.71750000000003
10
-880.08219015179998
20
382.71749999999997
42
-0.41421356237197121
10
-880.58219015179998
20
382.21749999999992
10
-888.84517184180004
20
382.21750000000014
42
-0.41421356237367774
10
-889.34517184179992
20
382.71749999999997
0
LWPOLYLINE
5
114
100
AcDbEntity
8
0
100
AcDbPolyline
90
8
70
1
43
0.0
10
-1001.2475000000001
20
359.40499999999986
10
-1001.2475000000002
20
371.40500000000026
42
-0.41421356237307422
10
-1000.2475000000004
20
372.40499999999997
10
-988.24749999999995
20
372.4050000000002
42
-0.41421356237294937
10
-987.24749999999995
20
371.4050000000002
10
-987.24749999999995
20
359.40499999999986
42
-0.41421356237307422
10
-988.24749999999995
20
358.40499999999975
10
-1000.2475000000004
20
358.40500000000014
42
-0.41421356237303258
0
LWPOLYLINE
5
115
100
AcDbEntity
8
0
100
AcDbPolyline
90
8
70
1
43
0.0
10
-752.6317499999999
20
313.26249999999993
10
-752.6317499999999
20
300.26249999999999
42
-0.41421356237323032
10
-753.63174999999956
20
299.26249999999987
10
-758.63175000000001
20
299.26249999999993
42
-0.41421356237316787
10
-759.63175000000001
20
300.26249999999999
10
-759.63175000000001
20
313.26249999999993
42
-0.41421356237338641
10
-758.63175000000001
20
314.26249999999987
10
-753.63174999999967
20
314.26249999999993
42
-0.41421356237306384
0
LWPOLYLINE
5
116
100
AcDbEntity
8
0
100
AcDbPolyline
90
8
70
1
43
0.0
10
-752.59749999999985
20
396.21750000000014
42
0.41421356237326151
10
-753.59749999999985
20
395.21750000000031
10
-753.59750000000031
20
383.21750000000037
42
0.41421356237294937
10
-752.59749999999985
20
382.21750000000037
10
-740.59750000000008
20
382.21750000000037
42
0.41421356237332396
10
-739.59749999999985
20
383.21750000000037
10
-739.59749999999985
20
395.21750000000031
42
0.41421356237319906
10
-740.59749999999997
20
396.2175000000002
0
LWPOLYLINE
5
117
100
AcDbEntity
8
0
100
AcDbPolyline
90
8
70
1
43
0.0
10
-709.71249999999986
20
372.41250000000014
10
-697.71250000000009
20
372.41250000000002
42
-0.41421356237328233
10
-696.71249999999986
20
371.41250000000014
10
-696.71249999999986
20
359.41250000000002
42
-0.41421356237328233
10
-697.7125000000002
20
358.41250000000014
10
-709.71249999999986
20
358.41249999999997
42
-0.41421356237326151
10
-710.7125000000002
20
359.41250000000002
10
-710.71249999999986
20
371.41250000000014
42
-0.41421356237332396
0
LWPOLYLINE
5
118
100
AcDbEntity
8
0
100
AcDbPolyline
90
8
70
1
43
0.0
10
-713.18842770149695
20
372.39791063129996
42
-0.41421356237303258
10
-712.1884277014974
20
371.39791063129996
10
-712.1884277014974
20
283.19842714225888
42
-0.41421356237307422
10
-713.18842770149718
20
282.19842714225882
10
-718.18842770149729
20
282.19842714225888
42
-0.41421356237328233
10
-719.18842770149718
20
283.19842714225888
10
-719.18842770149718
20
371.39791063129996
42
-0.41421356237326151
10
-718.18842770149718
20
372.39791063129996
0
LWPOLYLINE
5
119
100
AcDbEntity
8
0
100
AcDbPolyline
90
8
70
1
43
0.0
10
-997.77925000000005
20
300.25500000000011
10
-997.77925000000005
20
313.25500000000028
42
-0.41421356237321988
10
-996.77925000000016
20
314.25500000000005
10
-991.77924999999971
20
314.25500000000028
42
-0.41421356237306384
10
-990.77925000000027
20
313.25500000000028
10
-990.77925000000005
20
300.25499999999988
42
-0.41421356237309503
10
-991.77924999999971
20
299.25500000000028
10
-996.77925000000016
20
299.25500000000005
42
-0.41421356237312623
0
LWPOLYLINE
5
120
100
AcDbEntity
8
0
100
AcDbPolyline
90
8
70
1
43
0.0
10
-891.99749999999995
20
359.40499999999992
10
-891.99749999999995
20
371.40500000000009
42
0.41421356237301177
10
-892.99749999999995
20
372.40500000000026
10
-904.99750000000006
20
372.40500000000026
42
0.41421356237307422
10
-905.99749999999995
20
371.40500000000009
10
-905.99749999999995
20
359.40499999999992
42
0.41421356237301177
10
-904.99750000000006
20
358.40499999999975
10
-892.99749999999995
20
358.40499999999969
42
0.41421356237292856
0
LWPOLYLINE
5
121
100
AcDbEntity
8
0
100
AcDbPolyline
90
8
70
1
43
0.0
10
-713.80659973859269
20
379.97510828368553
10
-713.80659973859247
20
375.05416063129996
42
0.4142135623733656
10
-712.80659973859269
20
374.05416063130008
10
-659.63868404879975
20
374.05416063130014
42
0.4142135623732407
10
-658.63868404880009
20
375.05416063129996
10
-658.63868404879997
20
380.05270019176834
42
0.41464106763169034
10
-659.6401434218908
20
381.05269912688294
10
-712.80805911168386
20
380.97510721879996
42
0.4137861863066008
0
LWPOLYLINE
5
122
100
AcDbEntity
8
0
100
AcDbPolyline
90
8
70
1
43
0.0
10
-785.91249999999968
20
282.21249999999992
42
-0.41421356237312623
10
-786.91249999999968
20
283.21249999999998
10
-786.91249999999968
20
295.21250000000009
42
-0.41421356237312623
10
-785.91249999999968
20
296.21250000000009
10
-773.91249999999991
20
296.21250000000026
42
-0.4142135623730846
10
-772.91249999999991
20
295.21250000000009
10
-772.91249999999991
20
283.21249999999998
42
-0.41421356237312623
10
-773.91249999999991
20
282.21249999999992
0
LWPOLYLINE
5
123
100
AcDbEntity
8
0
100
AcDbPolyline
90
8
70
1
43
0.0
10
-996.46250000000032
20
295.21250000000032
10
-996.46250000000032
20
283.21249999999992
42
0.41421356237298057
10
-995.46250000000043
20
282.21250000000009
10
-983.46250000000043
20
282.21250000000003
42
0.41421356237325113
10
-982.46250000000032
20
283.21249999999981
10
-982.4625000000002
20
295.2125000000002
42
0.41421356237316787
10
-983.46250000000043
20
296.21250000000009
10
-995.46250000000043
20
296.21250000000026
42
0.41421356237301177
0
LWPOLYLINE
5
124
100
AcDbEntity
8
0
100
AcDbPolyline
90
8
70
1
43
0.0
10
-803.11649999999986
20
382.21749999999997
42
-0.41421356237267881
10
-803.61649999999997
20
382.71749999999997
10
-803.61649999999997
20
395.71750000000003
42
-0.4142135623724707
10
-803.11650000000043
20
396.2175000000002
10
-794.85349999999983
20
396.21750000000077
42
-0.41421356237213769
10
-794.35349999999971
20
395.71750000000003
10
-794.35349999999983
20
382.71749999999997
42
-0.41421356237326151
10
-794.85349999999983
20
382.21749999999997
0
LWPOLYLINE
5
125
100
AcDbEntity
8
0
100
AcDbPolyline
90
133
70
1
43
0.0
10
-668.10611465650015
20
404.73537978729695
10
-671.71524098079988
20
404.73537978730172
42
0.26794919240881482
10
-673.44729178841578
20
403.73537978722243
10
-675.46801773071979
20
400.23537978713205
42
-0.26794919242041237
10
-678.93211934579313
20
398.23537978726614
10
-710.44865963479901
20
398.23537978729979
42
0.41421356237351126
10
-710.94865963479992
20
397.73537978729968
10
-710.94865963479992
20
396.21750000000162
10
-697.7349999999999
20
396.21750000000014
42
-0.4142135623732407
10
-696.73500000000013
20
395.21750000000026
10
-696.7349999999999
20
383.2175000000006
42
-0.41421356237311585
10
-697.73500000000013
20
382.21750000000037
10
-709.73500000000001
20
382.21750000000037
42
-0.41421356237284529
10
-710.7349999999999
20
383.2175000000006
10
-710.73499999999967
20
394.96041063130008
10
-711.49492941503422
20
394.96041063130008
42
0.41464106763202369
10
-711.99492888259158
20
394.45968094475461
10
-711.97869890911443
20
383.33849727005168
42
-0.4142135623736361
10
-712.47796869012632
20
382.8377681159493
10
-718.77260900407589
20
382.82858187747598
42
-0.41421356237230422
10
-719.27333815817929
20
383.32785165848748
10
-719.28958579736343
20
394.46114031784521
42
0.4137861863068088
10
-719.78958526492079
20
394.96041063129957
10
-720.54750000000013
20
394.96041063130008
10
-720.54750000000013
20
383.21750000000014
42
-0.41421356237299095
10
-721.54750000000035
20
382.21750000000037
10
-733.5474999999999
20
382.21750000000048
42
-0.41421356237338641
10
-734.54750000000013
20
383.21750000000088
10
-734.5474999999999
20
395.21750000000026
42
-0.41421356237311585
10
-733.5474999999999
20
396.21750000000054
10
-721.5474999999999
20
396.2175000000002
10
-720.3373351386
20
396.2175000000002
10
-720.33733513860034
20
397.73537978730258
42
0.41421356237188794
10
-720.83733513859772
20
398.23537978730258
10
-740.96246423179991
20
398.23537978740234
42
-0.2679491924603708
10
-744.42656584685255
20
400.23537978735732
10
-746.44729178876923
20
403.73537978737772
42
0.26794919248660232
10
-748.17934259678952
20
404.73537978773891
10
-751.71524098080022
20
404.73537978752694
42
0.26794919244646703
10
-753.44729178861087
20
403.73537978733441
10
-755.46801773066829
20
400.23537978710181
42
-0.26794919242023946
10
-758.93211934580677
20
398.2353797872064
10
-820.96246423179991
20
398.23537978735317
42
-0.26794919246695414
10
-824.4265658468953
20
400.23537978733282
10
-826.44729178876923
20
403.7353797873775
42
0.26794919248648441
10
-828.17934259678975
20
404.73537978773891
10
-831.71524098079999
20
404.73537978752717
42
0.26794919235392523
10
-833.44729178840009
20
403.73537978720037
10
-835.46801773067727
20
400.23537978708674
42
-0.26794919241957288
10
-838.93211934580006
20
398.2353797872064
10
-900.96246423179991
20
398.23537978735328
42
-0.26794919246618032
10
-904.42656584690087
20
400.23537978734197
10
-906.44729178876969
20
403.73537978737772
42
0.26794919248692645
10
-908.17934259678964
20
404.73537978773948
10
-911.71524098077612
20
404.73537978752682
42
0.26794919244991355
10
-913.44729178861144
20
403.73537978733498
10
-915.46801773066875
20
400.23537978710181
42
-0.26794919242021281
10
-918.932119345807
20
398.2353797872064
10
-980.96246423179991
20
398.23537978735322
42
-0.26794919247632937
10
-984.42656584688484
20
400.2353797873144
10
-986.44729178887133
20
403.73537978767456
42
0.2679491924623944
10
-988.17934259660001
20
404.73537978773885
10
-991.71524098100008
20
404.73537978749016
42
0.26794919238216208
10
-993.44729178836189
20
403.7353797876932
10
-995.46801784589491
20
400.23537958889733
42
-0.26794919240887727
10
-998.93211946079998
20
398.2353795892999
10
-1001.95024928511
20
398.23537958934986
42
0.19891236747776908
10
-1003.0109094569116
20
397.79603976101896
10
-1004.8393365811216
20
395.96761263582084
42
0.19891236730598133
10
-1005.2786764090581
20
394.90695246430056
10
-1005.2786764090808
20
283.50250383230002
42
0.19891236722329453
10
-1004.8393365808864
20
282.44184366051371
10
-1003.0109094567921
20
280.61341653523414
42
0.19891236731844683
10
-1001.9502492849001
20
280.1740767071002
10
-998.93279275780003
20
280.17407670706473
42
-0.2679491924628904
10
-995.46869114281367
20
278.17407670709213
10
-993.44729178892533
20
274.67291032318559
42
0.26794919249110599
10
-991.71524098080022
20
273.67291032276108
10
-988.1793425968998
20
273.6729103229992
42
0.26794919244520143
10
-986.44729178896341
20
274.67291032316172
10
-984.42589367583332
20
278.17407455746576
42
-0.26794922788322639
10
-980.96179153180003
20
280.17407455729216
10
-929.48941072330001
20
280.1740661075973
42
-0.26794914888154858
10
-928.19037286118396
20
279.42406610873087
10
-927.90169745210164
20
278.92406563415022
42
0.26794924402108089
10
-926.60265959179992
20
278.17406563517301
10
-916.90696531573531
20
278.17406457412011
42
-0.26794926165367522
10
-914.7419020799
20
276.92406404330001
10
-913.44219787393922
20
274.67291032320895
42
0.26794919245949822
10
-911.71014706581059
20
273.6729103227612
10
-908.17934236080021
20
273.67291032301011
42
0.26794919239336029
10
-906.44729155298023
20
274.67291032315529
10
-904.42589979123886
20
278.17406355792258
42
-0.26794922567111529
10
-900.96179765640022
20
280.17406357230027
10
-838.93278023150174
20
280.17406631948523
42
-0.2679505790343385
10
-835.46867829561381
20
278.17405438798806
10
-833.44729182792503
20
274.67291032318542
42
0.26794919247565657
10
-831.71524101980003
20
273.6729103227612
10
-828.17424868084913
20
273.67291032301011
42
0.26794919238894044
10
-826.44219787297266
20
274.67291032316854
10
-825.14249194541117
20
276.92406702600647
42
-0.26794918077204988
10
-822.97742854560056
20
278.17406702628324
10
-800.29192838279982
20
278.17406769589576
42
0.26794919284924523
10
-798.99289003106776
20
278.92406786400329
10
-798.70422407360843
20
279.42405263900514
42
-0.26794953878857147
10
-797.4051857700033
20
280.17405263926662
10
-758.93022618449993
20
280.17404794348931
42
-0.26794919305919973
10
-755.46612482562057
20
278.1740474846124
10
-753.4447446990747
20
274.67291333225512
42
0.2679492279176936
10
-751.71269375881025
20
273.6729131028514
10
-748.17679563880006
20
273.67291310305541
42
0.26794919237235421
10
-746.44474483112276
20
274.67291310299765
10
-744.42400126285929
20
278.17294363242405
42
-0.26794919244786641
10
-740.95989964782063
20
280.17294363229439
10
-678.92959001480006
20
280.17294363214717
42
-0.26794919236791453
10
-675.46548839999377
20
278.17294363256792
10
-673.44474483094461
20
274.67291310326311
42
0.26794919234319714
10
-671.71269402381381
20
273.67291310364885
10
-668.17679563879994
20
273.67291310327204
42
0.26794919246044402
10
-666.44474483131046
20
274.67291310310657
10
-664.42400126286441
20
278.17294363242729
42
-0.26794919242088872
10
-660.95989964780711
20
280.17294363230013
10
-657.94217195580006
20
280.17294363223021
42
0.19891236741723481
10
-656.88151178386704
20
280.61228346057425
10
-655.05308465929738
20
282.44071058599752
42
0.18380782485854916
10
-654.61629178887449
20
283.41399578589858
10
-654.6162917888696
20
394.90695266329971
42
0.1989123673502394
10
-655.05563161701616
20
395.96761283497693
10
-656.88405874137061
20
397.79603995962918
42
0.19891236758019196
10
-657.9447189138001
20
398.2353797881479
10
-660.88923629079989
20
398.23537978707981
42
-0.26794919247983756
10
-664.35333790664561
20
400.23537978707367
10
-666.37406384895189
20
403.73537978732804
42
0.2679491924258976
0
LWPOLYLINE
5
126
100
AcDbEntity
8
0
100
AcDbPolyline
90
8
70
1
43
0.0
10
-1000.2474999999998
20
382.21749999999992
10
-988.24749999999995
20
382.21750000000009
42
0.4142135623731783
10
-987.24749999999972
20
383.21750000000003
10
-987.24749999999995
20
395.21750000000009
42
0.41421356237307422
10
-988.24749999999995
20
396.21750000000026
10
-1000.2474999999999
20
396.21749999999975
42
0.41421356237326151
10
-1001.2475000000001
20
395.21749999999997
10
-1001.2474999999997
20
383.21750000000003
42
0.41421356237299095
0
LWPOLYLINE
5
127
100
AcDbEntity
8
0
100
AcDbPolyline
90
8
70
1
43
0.0
10
-690.68499999999995
20
396.21750000000054
42
0.41421356237301177
10
-691.68499999999995
20
395.21750000000031
10
-691.68500000000017
20
383.21750000000037
42
0.41421356237288692
10
-690.68499999999995
20
382.21750000000037
10
-678.68499999999983
20
382.21750000000037
42
0.4142135623733656
10
-677.68500000000017
20
383.21750000000037
10
-677.68500000000017
20
395.21750000000031
42
0.41421356237332396
10
-678.68499999999983
20
396.2175000000002
0
LWPOLYLINE
5
128
100
AcDbEntity
8
0
100
AcDbPolyline
90
8
70
1
43
0.0
10
-677.66249999999991
20
359.41249999999991
42
-0.41421356237301177
10
-678.6624999999998
20
358.41250000000002
10
-690.66249999999968
20
358.41250000000002
42
-0.41421356237303258
10
-691.6624999999998
20
359.41249999999991
10
-691.6624999999998
20
371.41250000000036
42
-0.41421356237297013
10
-690.66250000000014
20
372.41250000000014
10
-678.6624999999998
20
372.41250000000008
42
-0.41421356237292856
10
-677.66249999999991
20
371.41250000000014
0
LWPOLYLINE
5
129
100
AcDbEntity
8
0
100
AcDbPolyline
90
8
70
1
43
0.0
10
-659.61249999999961
20
301.26250000000016
10
-671.61249999999984
20
301.26250000000022
42
-0.41421356237325113
10
-672.61250000000018
20
302.26249999999999
10
-672.61250000000007
20
314.2625000000001
42
-0.41421356237321988
10
-671.61249999999984
20
315.26250000000022
10
-659.61249999999961
20
315.2625000000001
42
-0.41421356237306384
10
-658.61249999999984
20
314.2625000000001
10
-658.61249999999984
20
302.26249999999999
42
-0.41421356237310542
0
LWPOLYLINE
5
130
100
AcDbEntity
8
0
100
AcDbPolyline
90
8
70
1
43
0.0
10
-677.66249999999991
20
283.21249999999998
10
-677.66249999999991
20
295.2125000000002
42
0.41421356237312623
10
-678.6624999999998
20
296.21250000000026
10
-690.66250000000014
20
296.21250000000026
42
0.41421356237298057
10
-691.6624999999998
20
295.21250000000043
10
-691.66249999999968
20
283.21249999999992
42
0.41421356237312623
10
-690.66249999999968
20
282.21250000000009
10
-678.6624999999998
20
282.2125000000002
42
0.4142135623730534
0
LWPOLYLINE
5
131
100
AcDbEntity
8
0
100
AcDbPolyline
90
8
70
1
43
0.0
10
-975.34125000000006
20
314.25500000000045
10
-975.34125000000006
20
302.2549999999996
42
-0.41421356237301177
10
-976.34124999999983
20
301.25500000000005
10
-988.34124999999995
20
301.25499999999994
42
-0.41421356237293894
10
-989.34124999999995
20
302.25499999999988
10
-989.34124999999995
20
314.25500000000045
42
-0.41421356237301177
10
-988.34124999999995
20
315.25500000000039
10
-976.34124999999983
20
315.25500000000045
42
-0.41421356237307422
0
LWPOLYLINE
5
132
100
AcDbEntity
8
0
100
AcDbPolyline
90
8
70
1
43
0.0
10
-950.14750000000004
20
396.21750000000026
10
-962.14750000000004
20
396.21750000000054
42
0.41421356237301177
10
-963.14750000000004
20
395.21750000000031
10
-963.14750000000004
20
383.21750000000037
42
0.41421356237292856
10
-962.14750000000004
20
382.21750000000037
10
-950.14750000000004
20
382.21750000000043
42
0.41421356237334478
10
-949.14750000000015
20
383.21750000000037
10
-949.14750000000026
20
395.21750000000031
42
0.41421356237344881
0
LWPOLYLINE
5
133
100
AcDbEntity
8
0
100
AcDbPolyline
90
8
70
1
43
0.0
10
-659.61249999999961
20
296.21250000000009
42
-0.41421356237306384
10
-658.61249999999984
20
295.21250000000009
10
-658.61249999999984
20
283.21249999999998
42
-0.41421356237310542
10
-659.61249999999961
20
282.21250000000009
10
-671.61249999999995
20
282.21250000000009
42
-0.4142135623732407
10
-672.61250000000018
20
283.21249999999998
10
-672.61250000000007
20
295.21250000000009
42
-0.41421356237321988
10
-671.61249999999984
20
296.2125000000002
0
LWPOLYLINE
5
134
100
AcDbEntity
8
0
100
AcDbPolyline
90
8
70
1
43
0.0
10
-672.6350000000001
20
383.21750000000037
42
0.41421356237299095
10
-671.63499999999999
20
382.21750000000037
10
-659.63499999999976
20
382.21750000000031
42
0.41421356237313667
10
-658.63499999999988
20
383.21750000000037
10
-658.63500000000022
20
395.21750000000031
42
0.41421356237344881
10
-659.63499999999999
20
396.21750000000026
10
-671.63499999999999
20
396.21750000000043
42
0.41421356237326151
10
-672.6350000000001
20
395.21750000000031
0
LWPOLYLINE
5
135
100
AcDbEntity
8
0
100
AcDbPolyline
90
8
70
1
43
0.0
10
-672.61249999999961
20
371.41250000000036
42
-0.4142135623730534
10
-671.61250000000018
20
372.41250000000014
10
-659.6124999999995
20
372.41250000000008
42
-0.41421356237301177
10
-658.61249999999984
20
371.41250000000014
10
-658.61249999999984
20
359.41249999999991
42
-0.41421356237286611
10
-659.61249999999961
20
358.41250000000008
10
-671.61249999999995
20
358.41250000000002
42
-0.4142135623732407
10
-672.61249999999961
20
359.41249999999991
0
LWPOLYLINE
5
136
100
AcDbEntity
8
0
100
AcDbPolyline
90
8
70
1
43
0.0
10
-678.6624999999998
20
301.26249999999993
10
-690.66249999999968
20
301.26249999999993
42
-0.41421356237334478
10
-691.6624999999998
20
302.26249999999999
10
-691.6624999999998
20
314.2625000000001
42
-0.4142135623733656
10
-690.66249999999968
20
315.26250000000027
10
-678.6624999999998
20
315.26250000000033
42
-0.41421356237309503
10
-677.66249999999991
20
314.2625000000001
10
-677.66249999999991
20
302.26249999999999
42
-0.41421356237312623
0
LWPOLYLINE
5
137
100
AcDbEntity
8
0
100
AcDbPolyline
90
24
70
1
43
0.0
10
-758.42042843379932
20
318.77290452829993
42
-0.41421356237312623
10
-759.42042843379954
20
317.77290452829993
10
-762.18336353550296
20
317.77290452829999
42
0.41421356237329271
10
-763.18336353550296
20
316.77290452829993
10
-763.18336353550296
20
300.24128989212886
42
-0.41421356237313667
10
-764.18336353550274
20
299.24128989212886
10
-962.38194118980005
20
299.24128989212892
42
-0.41421356237301177
10
-963.3819411897997
20
300.24128989212886
10
-963.3819411897997
20
316.77290452829993
42
0.41421356237316787
10
-964.38194118979993
20
317.77290452830016
10
-976.58225000000016
20
317.77290452829982
42
-0.41421356237307422
10
-977.58225000000016
20
318.77290452829993
10
-977.58224999999754
20
336.334
42
0.4142135623730534
10
-978.58224999999766
20
337.33400000000029
10
-978.96369015179971
20
337.33400000000012
42
-0.41421356237294937
10
-979.96369015179971
20
338.3340000000004
10
-979.96369015179994
20
354.57743704807649
42
-0.41446236654565216
10
-978.96284075605126
20
355.57743668733991
10
-742.80915060425127
20
355.37684867458125
42
-0.41396480196508867
10
-741.80999999999983
20
354.37684903531812
10
-741.80999999999983
20
338.3340000000004
42
-0.41421356237309503
10
-742.80999999999972
20
337.33400000000017
10
-757.42042843379954
20
337.33400000000046
42
0.41421356237307422
10
-758.42042843379943
20
336.33400000000029
0
LWPOLYLINE
5
138
100
AcDbEntity
8
0
100
AcDbPolyline
90
8
70
1
43
0.0
10
-912.02262500000006
20
287.2050000000001
10
-912.02262499999983
20
291.20500000000021
42
-0.41421356237345924
10
-911.02262499999995
20
292.20500000000021
10
-871.37762499999997
20
292.20500000000021
42
-0.41421356237314705
10
-870.37762499999985
20
291.20500000000021
10
-870.37762499999985
20
287.2050000000001
42
-0.41421356237303258
10
-871.37762499999997
20
286.20499999999998
10
-911.02262499999995
20
286.20499999999998
42
-0.41421356237328233
0
LWPOLYLINE
5
139
100
AcDbEntity
8
0
100
AcDbPolyline
90
8
70
1
43
0.0
10
-967.88075000000003
20
299.2625000000001
10
-972.88075000000026
20
299.26249999999987
42
-0.41421356237295975
10
-973.88075000000015
20
300.26249999999993
10
-973.88075000000015
20
313.26250000000039
42
-0.41421356237295975
10
-972.88075000000026
20
314.26250000000039
10
-967.88075000000003
20
314.26250000000033
42
-0.41421356237300139
10
-966.88075000000015
20
313.26250000000044
10
-966.88075000000015
20
300.2624999999997
42
-0.4142135623730846
0
LWPOLYLINE
5
140
100
AcDbEntity
8
0
100
AcDbPolyline
90
8
70
1
43
0.0
10
-807.22499999999968
20
281.21250000000009
42
0.41421356237312623
10
-806.22499999999968
20
280.21250000000003
10
-801.22499999999968
20
280.21250000000003
42
0.41421356237293894
10
-800.2249999999998
20
281.21250000000003
10
-800.2249999999998
20
294.21250000000009
42
0.41421356237301177
10
-801.22499999999968
20
295.21250000000009
10
-806.22499999999968
20
295.21250000000015
42
0.41421356237300139
10
-807.22499999999968
20
294.2125000000002
0
LWPOLYLINE
5
141
100
AcDbEntity
8
0
100
AcDbPolyline
90
8
70
1
43
0.0
10
-671.61249999999973
20
353.36250000000013
10
-659.61249999999961
20
353.36250000000007
42
-0.4142135623730534
10
-658.61249999999984
20
352.36250000000013
10
-658.61249999999984
20
340.36250000000001
42
-0.41421356237338641
10
-659.61249999999961
20
339.36250000000001
10
-671.61249999999995
20
339.36250000000001
42
-0.41421356237328233
10
-672.61250000000018
20
340.36250000000001
10
-672.61250000000018
20
352.36250000000013
42
-0.41421356237328233
0
LWPOLYLINE
5
142
100
AcDbEntity
8
0
100
AcDbPolyline
90
8
70
1
43
0.0
10
-949.14750000000015
20
359.40499999999992
42
-0.41421356237321988
10
-950.14750000000004
20
358.40499999999986
10
-962.14750000000004
20
358.40499999999975
42
-0.41421356237307422
10
-963.14750000000004
20
359.40499999999992
10
-963.14750000000004
20
371.40500000000009
42
-0.41421356237307422
10
-962.14750000000004
20
372.4050000000002
10
-950.14750000000004
20
372.40499999999992
42
-0.41421356237330315
10
-949.14750000000015
20
371.40500000000009
0
LWPOLYLINE
5
143
100
AcDbEntity
8
0
100
AcDbPolyline
90
8
70
1
43
0.0
10
-725.01575000000003
20
321.30499999999972
42
0.41421356237294937
10
-724.01575000000003
20
322.30499999999972
10
-724.01575000000003
20
335.30499999999984
42
0.41421356237288692
10
-725.01575000000003
20
336.30499999999984
10
-730.01575000000059
20
336.30499999999972
42
0.41421356237328233
10
-731.01575000000014
20
335.30500000000012
10
-731.01575000000025
20
322.30499999999972
42
0.41421356237346962
10
-730.01575000000003
20
321.30499999999995
0
LWPOLYLINE
5
144
100
AcDbEntity
8
0
100
AcDbPolyline
90
8
70
1
43
0.0
10
-790.69749999999999
20
396.21750000000043
42
0.41421356237313667
10
-791.69750000000022
20
395.21750000000031
10
-791.69750000000022
20
383.21750000000037
42
0.41421356237288692
10
-790.69749999999999
20
382.21750000000037
10
-778.6975000000001
20
382.21750000000031
42
0.41421356237321988
10
-777.69750000000022
20
383.21750000000037
10
-777.69750000000022
20
395.21750000000031
42
0.41421356237338641
10
-778.6975000000001
20
396.2175000000002
0
LWPOLYLINE
5
145
100
AcDbEntity
8
0
100
AcDbPolyline
90
8
70
1
43
0.0
10
-710.7386718417996
20
335.83341673530009
42
-0.41421356237307422
10
-709.73867184179971
20
336.83341673530015
10
-659.63868404880031
20
336.83341673530009
42
-0.41421356237328233
10
-658.63868404880009
20
335.83341673530009
10
-658.63868404880009
20
318.76241673530023
42
-0.41421356237319906
10
-659.63868404880031
20
317.76241673530023
10
-709.73867184179971
20
317.76241673530018
42
-0.41421356237312623
10
-710.7386718417996
20
318.76241673530023
0
LWPOLYLINE
5
146
100
AcDbEntity
8
0
100
AcDbPolyline
90
8
70
1
43
0.0
10
-749.09999999999957
20
283.21249999999998
10
-749.09999999999968
20
295.21250000000009
42
0.41421356237312623
10
-750.0999999999998
20
296.21249999999998
10
-762.09999999999968
20
296.21250000000003
42
0.4142135623731783
10
-763.09999999999991
20
295.21250000000009
10
-763.09999999999991
20
283.21249999999998
42
0.41421356237313667
10
-762.09999999999968
20
282.21249999999992
10
-750.09999999999991
20
282.21249999999998
42
0.41421356237319906
0
LWPOLYLINE
5
147
100
AcDbEntity
8
0
100
AcDbPolyline
90
8
70
1
43
0.0
10
-732.4537499999999
20
321.30499999999984
10
-732.4537499999999
20
333.3050000000004
42
0.41421356237299095
10
-733.4537499999999
20
334.30500000000029
10
-745.45375000000024
20
334.30500000000023
42
0.41421356237309503
10
-746.45375000000001
20
333.3050000000004
10
-746.45375000000001
20
321.30500000000006
42
0.4142135623730534
10
-745.45375000000024
20
320.30500000000012
10
-733.4537499999999
20
320.30500000000018
42
0.41421356237309503
0
LWPOLYLINE
5
148
100
AcDbEntity
8
0
100
AcDbPolyline
90
8
70
1
43
0.0
10
-728.61199999999985
20
357.41250000000008
42
0.4142135623731783
10
-727.61200000000031
20
356.41250000000025
10
-722.61199999999974
20
356.41250000000014
42
0.41421356237315748
10
-721.61199999999997
20
357.41250000000014
10
-721.61199999999997
20
370.41250000000025
42
0.41421356237311585
10
-722.61199999999974
20
371.41250000000014
10
-727.61200000000031
20
371.41250000000014
42
0.41421356237319906
10
-728.61199999999985
20
370.41250000000053
0
LWPOLYLINE
5
149
100
AcDbEntity
8
0
100
AcDbPolyline
90
8
70
1
43
0.0
10
-796.74749999999995
20
359.40499999999992
10
-796.74749999999995
20
371.40500000000009
42
0.41421356237301177
10
-797.74749999999983
20
372.40500000000026
10
-809.74749999999972
20
372.40499999999997
42
0.41421356237319906
10
-810.74749999999995
20
371.40500000000009
10
-810.74749999999995
20
359.40499999999992
42
0.41421356237307422
10
-809.74749999999983
20
358.40499999999992
10
-797.74749999999983
20
358.40499999999969
42
0.41421356237292856
0
LWPOLYLINE
5
150
100
AcDbEntity
8
0
100
AcDbPolyline
90
8
70
1
43
0.0
10
-790.69749999999999
20
358.40499999999986
10
-778.69749999999954
20
358.40499999999986
42
0.41421356237309503
10
-777.69749999999999
20
359.40499999999992
10
-777.69750000000033
20
371.40500000000009
42
0.41421356237297013
10
-778.69749999999965
20
372.4050000000002
10
-790.69749999999999
20
372.4050000000002
42
0.41421356237297013
10
-791.69750000000022
20
371.40500000000009
10
-791.69750000000022
20
359.40499999999992
42
0.41421356237321988
0
LWPOLYLINE
5
151
100
AcDbEntity
8
0
100
AcDbPolyline
90
8
70
1
43
0.0
10
-997.84375000000011
20
320.31249999999994
42
-0.41421356237297013
10
-998.84375
20
321.3125
10
-998.84375
20
333.3125000000004
42
-0.41421356237309503
10
-997.84375000000011
20
334.31250000000006
10
-981.08124999999995
20
334.31250000000011
42
-0.41421356237301177
10
-980.08125000000007
20
333.31250000000017
10
-980.08125000000007
20
321.31249999999994
42
-0.41421356237292856
10
-981.08124999999995
20
320.31249999999994
0
LWPOLYLINE
5
152
100
AcDbEntity
8
0
100
AcDbPolyline
90
8
70
1
43
0.0
10
-750.19374999999968
20
315.26250000000027
10
-738.19374999999968
20
315.2625000000001
42
-0.41421356237306384
10
-737.19374999999991
20
314.2625000000001
10
-737.19374999999991
20
302.26249999999999
42
-0.41421356237310542
10
-738.19374999999968
20
301.26250000000016
10
-750.19374999999968
20
301.26249999999993
42
-0.41421356237334478
10
-751.1937499999998
20
302.26249999999999
10
-751.1937499999998
20
314.2625000000001
42
-0.4142135623733656
0
LWPOLYLINE
5
153
100
AcDbEntity
8
0
100
AcDbPolyline
90
8
70
1
43
0.0
10
-746.48799999999983
20
356.41250000000014
10
-751.48800000000051
20
356.41250000000008
42
-0.41421356237309503
10
-752.48800000000028
20
357.41250000000014
10
-752.48800000000017
20
370.41250000000014
42
-0.41421356237307422
10
-751.4880000000004
20
371.41250000000014
10
-746.48800000000051
20
371.41250000000014
42
-0.41421356237328233
10
-745.48800000000017
20
370.41250000000014
10
-745.48800000000017
20
357.41250000000014
42
-0.41421356237319906
0
LWPOLYLINE
5
154
100
AcDbEntity
8
0
100
AcDbPolyline
90
8
70
1
43
0.0
10
-697.71249999999998
20
315.26250000000005
42
-0.4142135623731783
10
-696.71249999999975
20
314.2625000000001
10
-696.71249999999975
20
302.26249999999999
42
-0.41421356237313667
10
-697.71249999999998
20
301.26249999999993
10
-709.71249999999998
20
301.26250000000027
42
-0.41421356237319906
10
-710.7125000000002
20
302.26249999999999
10
-710.71249999999986
20
314.2625000000001
42
-0.41421356237333434
10
-709.71249999999986
20
315.2625000000001
0
LWPOLYLINE
5
155
100
AcDbEntity
8
0
100
AcDbPolyline
90
8
70
1
43
0.0
10
-709.71249999999986
20
282.21250000000015
42
-0.41421356237318868
10
-710.7125000000002
20
283.21249999999998
10
-710.71249999999986
20
295.21250000000009
42
-0.41421356237333434
10
-709.71249999999986
20
296.21250000000009
10
-697.71249999999998
20
296.21250000000003
42
-0.4142135623731783
10
-696.71249999999975
20
295.21250000000009
10
-696.71249999999975
20
283.21249999999998
42
-0.41421356237313667
10
-697.71249999999998
20
282.21249999999992
0
LWPOLYLINE
5
156
100
AcDbEntity
8
0
100
AcDbPolyline
90
8
70
1
43
0.0
10
-710.7125000000002
20
340.36250000000001
10
-710.71249999999986
20
352.36250000000013
42
-0.41421356237321988
10
-709.71249999999998
20
353.36250000000013
10
-697.71249999999986
20
353.36250000000001
42
-0.4142135623732407
10
-696.71249999999986
20
352.36250000000013
10
-696.71249999999986
20
340.36250000000001
42
-0.41421356237309503
10
-697.7125000000002
20
339.36250000000001
10
-709.71249999999998
20
339.36249999999984
42
-0.41421356237299095
0
LWPOLYLINE
5
157
100
AcDbEntity
8
0
100
AcDbPolyline
90
8
70
1
43
0.0
10
-754.89175000000023
20
322.30500000000001
42
0.41421356237319906
10
-753.89175000000012
20
321.30500000000006
10
-748.89175
20
321.30499999999995
42
0.41421356237315748
10
-747.89175
20
322.30499999999984
10
-747.89175
20
335.30500000000029
42
0.41421356237282447
10
-748.89175000000012
20
336.30500000000035
10
-753.89175000000012
20
336.30499999999995
42
0.41421356237326151
10
-754.89175000000034
20
335.30500000000029
0
LWPOLYLINE
5
158
100
AcDbEntity
8
0
100
AcDbPolyline
90
8
70
1
43
0.0
10
-982.46250000000032
20
352.36250000000007
10
-982.46250000000032
20
340.3624999999999
42
-0.41421356237319906
10
-983.46250000000043
20
339.36250000000001
10
-995.46250000000043
20
339.36249999999984
42
-0.41421356237294937
10
-996.46250000000032
20
340.3624999999999
10
-996.46250000000032
20
352.36250000000013
42
-0.41421356237299095
10
-995.46250000000043
20
353.36250000000001
10
-983.46250000000032
20
353.36249999999995
42
-0.41421356237315748
0
LWPOLYLINE
5
159
100
AcDbEntity
8
0
100
AcDbPolyline
90
8
70
1
43
0.0
10
-1001.2511871009999
20
375.05416063129957
42
0.41421356237301177
10
-1000.2511871010005
20
374.05416063129996
10
-862.00147326943193
20
374.05416063129633
42
0.41464106763194036
10
-861.00147433431744
20
375.05562000438738
10
-861.00833703637022
20
379.75811506046898
42
0.41421206602498056
10
-862.00979023572688
20
380.75665462993521
10
-1000.2526413652424
20
380.55561278219386
42
0.4137876822044374
10
-1001.2511871010008
20
379.55561383963692
0
LWPOLYLINE
5
160
100
AcDbEntity
8
0
100
AcDbPolyline
90
8
70
1
43
0.0
10
-921.52500000000032
20
281.21249999999975
10
-921.52500000000032
20
294.2125000000002
42
-0.41421356237299095
10
-920.52500000000032
20
295.21250000000009
10
-915.5250000000002
20
295.21250000000009
42
-0.41421356237314705
10
-914.52499999999986
20
294.21250000000009
10
-914.52499999999998
20
281.21249999999981
42
-0.41421356237325113
10
-915.5250000000002
20
280.21249999999986
10
-920.52500000000032
20
280.21249999999998
42
-0.4142135623730534
0
LWPOLYLINE
5
161
100
AcDbEntity
8
0
100
AcDbPolyline
90
8
70
1
43
0.0
10
-718.44099556036895
20
374.05416063129991
42
0.41464106763169034
10
-717.44099662525457
20
375.05562000439107
10
-717.44816506044253
20
379.96761104912889
42
0.41421204815904961
10
-718.44961819880064
20
380.96615061868408
10
-857.38595793517811
20
380.76410872915085
42
0.41421507658874102
10
-858.38450266704911
20
379.76265041341401
10
-858.37762908667287
20
375.05270125820886
42
0.41378618630676722
10
-857.37763015155849
20
374.05416063129957
0
LWPOLYLINE
5
162
100
AcDbEntity
8
0
100
AcDbPolyline
90
8
70
1
43
0.0
10
-848.84749999999997
20
359.40499999999992
42
0.41421356237301177
10
-847.84750000000008
20
358.40499999999975
10
-835.84749999999985
20
358.40499999999969
42
0.41421356237292856
10
-834.84749999999985
20
359.40499999999992
10
-834.84749999999985
20
371.40500000000009
42
0.41421356237301177
10
-835.84749999999985
20
372.40500000000026
10
-847.84750000000008
20
372.40500000000026
42
0.41421356237307422
10
-848.84749999999997
20
371.40500000000009
0
LWPOLYLINE
5
163
100
AcDbEntity
8
0
100
AcDbPolyline
90
8
70
1
43
0.0
10
-806.27250000000004
20
395.21750000000031
42
0.4142135623732407
10
-807.27250000000026
20
396.2175000000002
10
-819.27250000000015
20
396.21750000000054
42
0.41421356237309503
10
-820.27249999999981
20
395.21750000000031
10
-820.27250000000004
20
383.21750000000037
42
0.41421356237288692
10
-819.27249999999981
20
382.21750000000037
10
-807.27250000000026
20
382.21750000000043
42
0.41421356237342799
10
-806.27250000000004
20
383.21750000000037
0
LWPOLYLINE
5
164
100
AcDbEntity
8
0
100
AcDbPolyline
90
8
70
1
43
0.0
10
-863.42250000000035
20
383.21750000000037
10
-863.42250000000035
20
395.21750000000031
42
0.41421356237326151
10
-864.42250000000001
20
396.21750000000026
10
-876.42250000000001
20
396.21750000000014
42
0.41421356237326151
10
-877.42250000000013
20
395.21750000000031
10
-877.42250000000013
20
383.21750000000037
42
0.41421356237288692
10
-876.4224999999999
20
382.21750000000037
10
-864.42250000000001
20
382.21750000000043
42
0.4142135623731783
0
LWPOLYLINE
5
165
100
AcDbEntity
8
0
100
AcDbPolyline
90
8
70
1
43
0.0
10
-839.3225000000001
20
383.21750000000037
42
0.41421356237276202
10
-838.32249999999999
20
382.21750000000037
10
-826.32249999999999
20
382.21750000000031
42
0.41421356237313667
10
-825.32249999999999
20
383.21750000000037
10
-825.32249999999999
20
395.21750000000031
42
0.41421356237313667
10
-826.32249999999999
20
396.21750000000031
10
-838.32249999999999
20
396.21750000000014
42
0.41421356237326151
10
-839.3225000000001
20
395.21750000000031
0
LWPOLYLINE
5
166
100
AcDbEntity
8
0
100
AcDbPolyline
90
8
70
1
43
0.0
10
-851.37250000000006
20
287.20499999999993
42
0.41421356237315748
10
-850.37249999999983
20
286.2050000000001
10
-810.72650000000044
20
286.20499999999993
42
0.4142135623730846
10
-809.72650000000044
20
287.2050000000001
10
-809.72650000000112
20
291.20500000000038
42
0.4142135623732407
10
-810.72650000000067
20
292.2050000000001
10
-850.37250000000029
20
292.20500000000004
42
0.4142135623730534
10
-851.37249999999995
20
291.20500000000021
0
LWPOLYLINE
5
167
100
AcDbEntity
8
0
100
AcDbPolyline
90
8
70
1
43
0.0
10
-981.1975000000001
20
372.40500000000009
10
-969.19750000000022
20
372.4050000000002
42
-0.41421356237301177
10
-968.1975000000001
20
371.40500000000009
10
-968.1975000000001
20
359.40499999999992
42
-0.41421356237334478
10
-969.19750000000022
20
358.40499999999986
10
-981.1975000000001
20
358.40499999999992
42
-0.41421356237307422
10
-982.19750000000022
20
359.40499999999992
10
-982.19750000000022
20
371.40500000000009
42
-0.41421356237307422
0
LWPOLYLINE
5
168
100
AcDbEntity
8
0
100
AcDbPolyline
90
8
70
1
43
0.0
10
-911.04750000000024
20
395.21750000000031
42
0.41421356237344881
10
-912.04750000000001
20
396.21750000000026
10
-924.04750000000013
20
396.21750000000054
42
0.41421356237301177
10
-925.04750000000001
20
395.21750000000031
10
-925.04750000000001
20
383.21750000000037
42
0.41421356237292856
10
-924.04750000000013
20
382.21750000000037
10
-912.04750000000001
20
382.21750000000043
42
0.41421356237334478
10
-911.04750000000013
20
383.21750000000037
0
LWPOLYLINE
5
169
100
AcDbEntity
8
0
100
AcDbPolyline
90
8
70
1
43
0.0
10
-967.30350000000021
20
396.21750000000026
10
-983.09150000000022
20
396.21750000000043
42
0.41421356237311585
10
-984.09150000000011
20
395.21750000000009
10
-984.09150000000011
20
383.21750000000014
42
0.41421356237297013
10
-983.09150000000022
20
382.21750000000009
10
-967.30350000000021
20
382.21749999999997
42
0.41421356237307422
10
-966.30350000000021
20
383.21750000000014
10
-966.30350000000021
20
395.21750000000009
42
0.41421356237307422
0
LWPOLYLINE
5
170
100
AcDbEntity
8
0
100
AcDbPolyline
90
8
70
1
43
0.0
10
-815.7974999999999
20
359.40499999999986
42
-0.41421356237315748
10
-816.79750000000013
20
358.40499999999969
10
-828.79750000000001
20
358.40499999999992
42
-0.41421356237292856
10
-829.7974999999999
20
359.40499999999986
10
-829.7974999999999
20
371.40500000000026
42
-0.41421356237294937
10
-828.79750000000001
20
372.4050000000002
10
-816.79750000000013
20
372.40500000000003
42
-0.41421356237299095
10
-815.7974999999999
20
371.4050000000002
0
LWPOLYLINE
5
171
100
AcDbEntity
8
0
100
AcDbPolyline
90
8
70
1
43
0.0
10
-853.87500000000023
20
283.21249999999998
10
-853.87500000000023
20
295.21249999999998
42
0.4142135623730534
10
-854.87500000000011
20
296.21249999999981
10
-866.87500000000011
20
296.21249999999964
42
0.41421356237334478
10
-867.87500000000023
20
295.21250000000009
10
-867.87500000000023
20
283.21250000000009
42
0.41421356237303258
10
-866.87500000000011
20
282.21249999999998
10
-854.87500000000011
20
282.21250000000009
42
0.41421356237299095
0
LWPOLYLINE
5
172
100
AcDbEntity
8
0
100
AcDbPolyline
90
8
70
1
43
0.0
10
-934.83750000000043
20
283.21249999999998
42
-0.41421356237312623
10
-935.83750000000032
20
282.21249999999992
10
-947.83750000000043
20
282.21250000000009
42
-0.41421356237333434
10
-948.83750000000032
20
283.21249999999998
10
-948.83750000000032
20
295.21250000000009
42
-0.41421356237323032
10
-947.83750000000043
20
296.2125000000002
10
-935.83750000000032
20
296.21250000000026
42
-0.4142135623730846
10
-934.83750000000043
20
295.21250000000009
0
LWPOLYLINE
5
173
100
AcDbEntity
8
0
100
AcDbPolyline
90
8
70
1
43
0.0
10
-854.89749999999981
20
358.40499999999969
42
0.41421356237292856
10
-853.89749999999992
20
359.40499999999992
10
-853.89749999999992
20
371.40500000000009
42
0.41421356237301177
10
-854.89749999999981
20
372.40500000000026
10
-866.89750000000004
20
372.4050000000002
42
0.41421356237297013
10
-867.89750000000026
20
371.40500000000009
10
-867.89750000000026
20
359.40499999999992
42
0.41421356237321988
10
-866.89750000000004
20
358.40499999999986
0
LWPOLYLINE
5
174
100
AcDbEntity
8
0
100
AcDbPolyline
90
8
70
1
43
0.0
10
-725.30999999999995
20
340.35500000000008
42
-0.41421356237328233
10
-726.30999999999983
20
339.35500000000002
10
-738.30999999999995
20
339.35499999999996
42
-0.41421356237313667
10
-739.30999999999983
20
340.35500000000008
10
-739.30999999999983
20
352.35500000000013
42
-0.41421356237307422
10
-738.30999999999995
20
353.35500000000025
10
-726.30999999999972
20
353.35500000000025
42
-0.41421356237313667
10
-725.30999999999972
20
352.35500000000013
0
CIRCLE
5
175
100
AcDbEntity
8
0
100
AcDbCircle
10
-989.94474483080012
20
276.17538256730029
30
0
40
1.5500000000000114
210
0
220
0
230
1
0
CIRCLE
5
176
100
AcDbEntity
8
0
100
AcDbCircle
10
-909.94474471380022
20
276.17538256730029
30
0
40
1.5499999999999559
210
0
220
0
230
1
0
CIRCLE
5
177
100
AcDbEntity
8
0
100
AcDbCircle
10
-829.94474485080013
20
276.17538256730029
30
0
40
1.5499999999999576
210
0
220
0
230
1
0
CIRCLE
5
178
100
AcDbEntity
8
0
100
AcDbCircle
10
-749.9447448308
20
276.17538256730029
30
0
40
1.5499999999999887
210
0
220
0
230
1
0
CIRCLE
5
179
100
AcDbEntity
8
0
100
AcDbCircle
10
-669.9447448308
20
276.17538256730029
30
0
40
1.5500000000000589
210
0
220
0
230
1
0
CIRCLE
5
180
100
AcDbEntity
8
0
100
AcDbCircle
10
-669.9447448308
20
402.23538256730001
30
0
40
1.549999999999977
210
0
220
0
230
1
0
CIRCLE
5
181
100
AcDbEntity
8
0
100
AcDbCircle
10
-749.9447448308
20
402.23538256730001
30
0
40
1.5500000000000547
210
0
220
0
230
1
0
CIRCLE
5
182
100
AcDbEntity
8
0
100
AcDbCircle
10
-829.94474483080012
20
402.23538256730001
30
0
40
1.5499999999999448
210
0
220
0
230
1
0
CIRCLE
5
183
100
AcDbEntity
8
0
100
AcDbCircle
10
-909.94474483080012
20
402.23538256730001
30
0
40
1.5500000000000114
210
0
220
0
230
1
0
CIRCLE
5
184
100
AcDbEntity
8
0
100
AcDbCircle
10
-989.94474483080012
20
402.23538256730001
30
0
40
1.550000000000008
210
0
220
0
230
1
0
ENDSEC
0
SECTION
2
OBJECTS
0
DICTIONARY
5
C
100
AcDbDictionary
3
ACAD_GROUP
350
D
3
ACAD_MLINESTYLE
350
17
0
DICTIONARY
5
D
100
AcDbDictionary
0
DICTIONARY
5
1A
330
C
100
AcDbDictionary
0
DICTIONARY
5
17
100
AcDbDictionary
0
ENDSEC
0
EOF
