0
SECTION
2
HEADER
9
$INSUNITS
70
4
9
$ACADVER
1
AC1014
9
$HANDSEED
5
FFFF
0
ENDSEC
0
SECTION
2
TABLES
0
TABLE
2
VPORT
5
8
100
AcDbSymbolTable
0
ENDTAB
0
TABLE
2
LTYPE
5
5
100
AcDbSymbolTable
0
LTYPE
5
14
100
AcDbSymbolTableRecord
100
AcDbLinetypeTableRecord
2
BYBLOCK
70
0
0
LTYPE
5
15
100
AcDbSymbolTableRecord
100
AcDbLinetypeTableRecord
2
BYLAYER
70
0
0
ENDTAB
0
TABLE
2
LAYER
5
2
100
AcDbSymbolTable
70
2
0
LAYER
5
50
100
AcDbSymbolTableRecord
100
AcDbLayerTableRecord
2
0
70
0
6
CONTINUOUS
0
ENDTAB
0
TABLE
2
STYLE
5
3
100
AcDbSymbolTable
70
1
0
STYLE
5
11
100
AcDbSymbolTableRecord
100
AcDbTextStyleTableRecord
2
STANDARD
70
0
0
ENDTAB
0
TABLE
2
VIEW
5
6
100
AcDbSymbolTable
70
0
0
ENDTAB
0
TABLE
2
UCS
5
7
100
AcDbSymbolTable
70
0
0
ENDTAB
0
TABLE
2
APPID
5
9
100
AcDbSymbolTable
70
2
0
APPID
5
12
100
AcDbSymbolTableRecord
100
AcDbRegAppTableRecord
2
ACAD
70
0
0
ENDTAB
0
TABLE
2
DIMSTYLE
5
A
100
AcDbSymbolTable
70
1
0
ENDTAB
0
TABLE
2
BLOCK_RECORD
5
1
100
AcDbSymbolTable
70
1
0
BLOCK_RECORD
5
1F
100
AcDbSymbolTableRecord
100
AcDbBlockTableRecord
2
*MODEL_SPACE
0
BLOCK_RECORD
5
1B
100
AcDbSymbolTableRecord
100
AcDbBlockTableRecord
2
*PAPER_SPACE
0
ENDTAB
0
ENDSEC
0
SECTION
2
BLOCKS
0
BLOCK
5
20
100
AcDbEntity
100
AcDbBlockBegin
2
*MODEL_SPACE
0
ENDBLK
5
21
100
AcDbEntity
100
AcDbBlockEnd
0
BLOCK
5
1C
100
AcDbEntity
100
AcDbBlockBegin
2
*PAPER_SPACE
0
ENDBLK
5
1D
100
AcDbEntity
100
AcDbBlockEnd
0
ENDSEC
0
SECTION
2
ENTITIES
0
LWPOLYLINE
5
100
100
AcDbEntity
8
0
100
AcDbPolyline
90
120
70
1
43
0.0
10
-90.016077328340174
20
118.56842152151209
42
0.33945430463236198
10
-90.98200331878914
20
117.82724056661451
10
-91.264977645716414
20
116.77116600128423
42
-0.33945425886340691
10
-92.230903472005537
20
116.02998504638663
10
-134.87500671386712
20
116.02998504638663
42
0.41421356237309509
10
-135.87500671386707
20
115.02998504638661
10
-135.87500671386698
20
102.03748504638654
42
-0.41421356237309509
10
-136.37500671386704
20
101.53748504638649
10
-149.37500671386701
20
101.53748504638656
42
-0.41421356237309509
10
-149.87500671386698
20
102.03748504638654
10
-149.87500671386698
20
115.02998504638661
42
0.41421356237309509
10
-150.87500671386692
20
116.02998504638663
10
-193.51950512741965
20
116.0299850463867
42
-0.33945425886337754
10
-194.48543095370866
20
116.77116600128414
10
-194.76840784969994
20
117.82725015449174
42
0.33945422483560173
10
-195.7343335539413
20
118.56843110938925
10
-244.84228052936729
20
118.56843710289755
42
-0.26794919743333018
10
-248.30638188824636
20
120.56843756177436
10
-250.32776201479251
20
124.06957171413126
42
0.2679492280111172
10
-252.05981295505694
20
125.06957194353546
10
-255.59571107506713
20
125.06957194333154
42
0.2679491923724297
10
-257.32776188274454
20
124.06957194338894
10
-259.34850545100801
20
120.56954141396261
42
-0.26794919244786713
10
-262.81260706604655
20
118.56954141409268
10
-324.84291669906713
20
118.56954141423927
42
-0.26794919240315584
10
-328.30701831387375
20
120.56954141381837
10
-330.32776188292257
20
124.06957194312369
42
0.2679491923722192
10
-332.05981269005338
20
125.06957194273753
10
-335.59571107506724
20
125.06957194311454
42
0.26794919246043164
10
-337.32776188255673
20
124.06957194328008
10
-339.34850545100232
20
120.5695414139595
42
-0.26794919242096249
10
-342.81260706606008
20
118.56954141408671
10
-345.83033475806712
20
118.56954141415699
42
0.19891236741715648
10
-346.89099493000026
20
118.13020158581267
10
-348.71942205456975
20
116.30177446038907
42
0.18380782485858915
10
-349.1562149249927
20
115.32848926048814
10
-349.15621492499736
20
3.8355323830869281
42
0.19891236735039369
10
-348.71687509685103
20
2.7748722114097291
10
-346.88844797249669
20
0.94644508675742134
42
0.19891236740986962
10
-345.8277878000672
20
0.50710525823880914
10
-342.88327042306719
20
0.50710525930696859
42
-0.26794919257739896
10
-339.41916880722118
20
-1.4928947406869497
10
-337.39844286491547
20
-4.9928947409416935
42
0.26794919243627568
10
-335.66639205736703
20
-5.9928947409100886
10
-332.0572657330672
20
-5.9928947409155597
42
0.26794919244409088
10
-330.32521492545129
20
-4.9928947408358226
10
-328.30448898314722
20
-1.4928947407451676
42
-0.26794919243223397
10
-324.84038736807395
20
0.50710525912087689
10
-294.84298962657533
20
0.50710525908868931
42
0.41421356237342805
10
-294.34298962657476
20
1.0071052590885898
10
-294.34298962657465
20
2.0249850463865471
42
0.41421356237309509
10
-294.84298962657476
20
2.5249850463865187
10
-306.53750671386706
20
2.5249850463865897
42
-0.41421356237309509
10
-307.037506713867
20
3.0249850463865613
10
-307.037506713867
20
16.024985046386533
42
-0.41421356237309509
10
-306.53750671386706
20
16.524985046386504
10
-293.53750671386706
20
16.524985046386504
42
-0.41421356237309509
10
-293.03750671386706
20
16.024985046386533
10
-293.03750671386695
20
4.2820744150865409
42
0.41421356237301177
10
-292.53750671386729
20
3.7820744150865693
10
-283.72500671386717
20
3.782074415084864
42
0.4142135623731783
10
-283.22500671386706
20
4.2820744150849066
10
-283.22500671386706
20
16.024985046386533
42
-0.41421356237309509
10
-282.72500671386706
20
16.524985046386504
10
-269.72500671386712
20
16.524985046386504
42
-0.41421356237309509
10
-269.22500671386717
20
16.024985046386533
10
-269.22500671386717
20
3.0249850463865613
42
-0.41421356237309509
10
-269.72500671386712
20
2.5249850463865897
10
-281.44141834768209
20
2.5249850463865187
42
0.41421356237309509
10
-281.94141834768203
20
2.0249850463865471
10
-281.94141834768203
20
1.0071052590767238
42
0.41421356237167983
10
-281.44141834768448
20
0.50710525907675219
10
-262.81004248206727
20
0.50710525898450509
42
-0.26794919242901122
10
-259.34594086701463
20
-1.4928947409704563
10
-257.32521492509807
20
-4.9928947409910052
42
0.26794919243749715
10
-255.59316411707769
20
-5.9928947413523304
10
-252.05726573306691
20
-5.9928947411404465
42
0.26794919241123222
10
-250.32521492525632
20
-4.9928947409481594
10
-248.30448898319887
20
-1.4928947407152304
42
-0.26794919242020104
10
-244.84038736806042
20
0.50710525918020721
10
-182.81004248206727
20
0.50710525903342818
42
-0.26794919243026055
10
-179.34594086697174
20
-1.4928947409460847
10
-177.32521492509804
20
-4.9928947409910052
42
0.26794919244416149
10
-175.59316411707755
20
-5.9928947413521882
10
-172.0572657330672
20
-5.9928947411404465
42
0.26794919247065341
10
-170.32521492546721
20
-4.9928947408135826
10
-168.30448898318991
20
-1.4928947407000257
42
-0.26794919243841764
10
-164.8403873680671
20
0.50710525918077565
10
-102.81004248206727
20
0.50710525903354431
42
-0.2679491924310326
10
-99.345940866966345
20
-1.4928947409552507
10
-97.325214925097896
20
-4.9928947409910052
42
0.26794919244391791
10
-95.593164117077549
20
-5.9928947413525435
10
-92.057265733091072
20
-5.9928947411404465
42
0.26794919240795162
10
-90.32521492525575
20
-4.9928947409481594
10
-88.304488983198453
20
-1.4928947407152164
42
-0.26794919247100074
10
-84.840387368059851
20
0.50710525918034932
10
-22.810042482067274
20
0.50710525903346482
42
-0.26794919247626559
10
-19.345940866982261
20
-1.4928947409278948
10
-17.325214924995862
20
-4.9928947412876568
42
0.26794919248175386
10
-15.593164117267122
20
-5.9928947413523304
10
-12.057265732867108
20
-5.9928947411033562
42
0.26794919237417775
10
-10.325214925505293
20
-4.992894741306344
10
-8.3044888679723332
20
-1.4928945425101561
42
-0.26794919240880705
10
-4.8403872530671777
20
0.5071054570867517
10
-1.822257428757581
20
0.50710545703665844
42
0.19891236747751531
10
-0.76159725695561065
20
0.94644528536775852
10
1.0668298672540288
20
2.7748724105656208
42
0.19891236731284159
10
1.5061696951910619
20
3.8355325820864294
10
1.5061696952132309
20
115.23998121408631
42
0.19891236736770704
10
1.0668298670194076
20
116.30064138587301
10
-0.76159725707469761
20
118.12906851115258
42
0.19891236760347455
10
-1.8222574289667648
20
118.56840833928658
10
-4.8397139560671567
20
118.56840833932154
42
-0.26794919243186727
10
-8.3038155710535477
20
120.56840833929471
10
-10.325214924941974
20
124.06957472320123
42
0.26794919244600407
10
-12.057265733066913
20
125.06957472362558
10
-15.593164116967131
20
125.06957472338769
42
0.26794919238360154
10
-17.325214924903776
20
124.06957472322489
10
-19.346613038034061
20
120.56841048892116
42
-0.26794922788307241
10
-22.810715182067156
20
118.56841048909459
0
LWPOLYLINE
5
101
100
AcDbEntity
8
0
100
AcDbPolyline
90
8
70
1
43
0.0
10
-260.71250671386707
20
116.03748504638659
10
-260.71250671386707
20
103.03748504638648
42
-0.41421356237309509
10
-261.21250671386701
20
102.53748504638651
10
-261.7125067138673
20
102.53748504638651
42
-0.41421356237309509
10
-262.21250671386724
20
103.03748504638648
10
-262.21250671386713
20
116.03748504638659
42
-0.41421356237309509
10
-261.71250671386713
20
116.53748504638656
10
-261.2125067138669
20
116.53748504638642
42
-0.41421356237309509
0
LWPOLYLINE
5
102
100
AcDbEntity
8
0
100
AcDbPolyline
90
8
70
1
43
0.0
10
-72.162506713867032
20
116.53748504638656
10
-71.662506713866776
20
116.53748504638656
42
-0.41421356237309509
10
-71.162506713866804
20
116.03748504638659
10
-71.162506713866946
20
103.03748504638648
42
-0.41421356237309509
10
-71.662506713866918
20
102.53748504638651
10
-72.162506713867174
20
102.53748504638651
42
-0.41421356237309509
10
-72.662506713867145
20
103.03748504638648
10
-72.662506713867003
20
116.03748504638659
42
-0.41421356237309509
0
LWPOLYLINE
5
103
100
AcDbEntity
8
0
100
AcDbPolyline
90
8
70
1
43
0.0
10
-29.406256713867265
20
64.937485046386456
10
-29.406256713867123
20
77.937485046386428
42
-0.41421356237309509
10
-28.906256713867151
20
78.437485046386399
10
-24.906256713867094
20
78.43748504638647
42
-0.41421356237309509
10
-24.406256713867123
20
77.937485046386499
10
-24.406256713867123
20
64.937485046386456
42
-0.41421356237309509
10
-24.906256713867094
20
64.437485046386485
10
-28.906256713867151
20
64.437485046386342
42
-0.41421356237309509
0
LWPOLYLINE
5
104
100
AcDbEntity
8
0
100
AcDbPolyline
90
8
70
1
43
0.0
10
-51.162506713866946
20
116.03748504638659
10
-51.162506713866946
20
103.03748504638662
42
-0.41421356237309509
10
-51.662506713866918
20
102.53748504638665
10
-52.162506713867174
20
102.53748504638658
42
-0.41421356237309509
10
-52.662506713867145
20
103.03748504638655
10
-52.662506713867003
20
116.03748504638659
42
-0.41421356237309509
10
-52.162506713867032
20
116.53748504638656
10
-51.662506713866776
20
116.53748504638642
42
-0.41421356237309509
0
LWPOLYLINE
5
105
100
AcDbEntity
8
0
100
AcDbPolyline
90
8
70
1
43
0.0
10
-92.550006713867106
20
110.78373504638655
10
-92.550006713867035
20
106.78373504638657
42
-0.41421356237309509
10
-93.550006713867049
20
105.78373504638655
10
-131.55000671386702
20
105.78373504638662
42
-0.41421356237309509
10
-132.55000671386696
20
106.78373504638657
10
-132.55000671386705
20
110.78373504638655
42
-0.41421356237309509
10
-131.55000671386702
20
111.78373504638657
10
-93.550006713867049
20
111.7837350463865
42
-0.41421356237309509
0
LWPOLYLINE
5
106
100
AcDbEntity
8
0
100
AcDbPolyline
90
8
70
1
43
0.0
10
-234.08750671386699
20
116.53748504638656
10
-233.58750671386673
20
116.53748504638656
42
-0.41421356237309509
10
-233.08750671386676
20
116.03748504638659
10
-233.0875067138669
20
103.03748504638648
42
-0.41421356237309509
10
-233.58750671386687
20
102.53748504638651
10
-234.08750671386713
20
102.53748504638651
42
-0.41421356237309509
10
-234.5875067138671
20
103.03748504638648
10
-234.58750671386696
20
116.03748504638659
42
-0.41421356237309509
0
LWPOLYLINE
5
107
100
AcDbEntity
8
0
100
AcDbPolyline
90
8
70
1
43
0.0
10
-281.71250671386701
20
116.53748504638656
10
-281.21250671386701
20
116.53748504638656
42
-0.41421356237309509
10
-280.71250671386707
20
116.03748504638659
10
-280.71250671386707
20
103.03748504638648
42
-0.41421356237309509
10
-281.21250671386701
20
102.53748504638651
10
-281.71250671386701
20
102.53748504638651
42
-0.41421356237309509
10
-282.21250671386701
20
103.03748504638648
10
-282.21250671386701
20
116.03748504638659
42
-0.41421356237309509
0
LWPOLYLINE
5
108
100
AcDbEntity
8
0
100
AcDbPolyline
90
8
70
1
43
0.0
10
-154.20000671386703
20
106.03373504638661
10
-192.200006713867
20
106.03373504638661
42
-0.41421356237311585
10
-193.20000671386694
20
107.03373504638662
10
-193.20000671386703
20
111.03373504638654
42
-0.41421356237311585
10
-192.200006713867
20
112.03373504638662
10
-154.20000671386703
20
112.03373504638648
42
-0.41421356237309509
10
-153.20000671386708
20
111.03373504638654
10
-153.20000671386703
20
107.03373504638662
42
-0.41421356237309509
0
LWPOLYLINE
5
109
100
AcDbEntity
8
0
100
AcDbPolyline
90
8
70
1
43
0.0
10
-24.537506713867003
20
116.53748504638656
10
-24.03750671386689
20
116.53748504638656
42
-0.41421356237309509
10
-23.537506713866918
20
116.03748504638659
10
-23.537506713866918
20
103.03748504638648
42
-0.41421356237309509
10
-24.03750671386689
20
102.53748504638651
10
-24.537506713867003
20
102.53748504638651
42
-0.41421356237309509
10
-25.037506713866975
20
103.03748504638648
10
-25.037506713866975
20
116.03748504638659
42
-0.41421356237309509
0
LWPOLYLINE
5
110
100
AcDbEntity
8
0
100
AcDbPolyline
90
8
70
1
43
0.0
10
-24.537506713867003
20
59.38748504638653
10
-24.03750671386689
20
59.38748504638653
42
-0.41421356237309509
10
-23.537506713866918
20
58.887485046386558
10
-23.537506713866918
20
45.887485046386587
42
-0.41421356237309509
10
-24.03750671386689
20
45.387485046386615
10
-24.537506713867003
20
45.387485046386544
42
-0.41421356237309509
10
-25.037506713866975
20
45.887485046386516
10
-25.037506713866975
20
58.887485046386558
42
-0.41421356237309509
0
LWPOLYLINE
5
111
100
AcDbEntity
8
0
100
AcDbPolyline
90
8
70
1
43
0.0
10
-4.0375067138670317
20
45.387485046386615
10
-4.5375067138672875
20
45.387485046386544
42
-0.41421356237309509
10
-5.0375067138672591
20
45.887485046386516
10
-5.037506713867117
20
58.887485046386558
42
-0.41421356237309509
10
-4.5375067138671454
20
59.38748504638653
10
-4.0375067138668896
20
59.38748504638653
42
-0.41421356237309509
10
-3.5375067138669181
20
58.887485046386558
10
-3.5375067138670602
20
45.887485046386587
42
-0.41421356237309509
0
LWPOLYLINE
5
112
100
AcDbEntity
8
0
100
AcDbPolyline
90
8
70
1
43
0.0
10
-4.0375067138670317
20
102.53748504638651
10
-4.5375067138672875
20
102.53748504638651
42
-0.41421356237309509
10
-5.0375067138672591
20
103.03748504638648
10
-5.037506713867117
20
116.03748504638659
42
-0.41421356237309509
10
-4.5375067138671454
20
116.53748504638656
10
-4.0375067138668896
20
116.53748504638656
42
-0.41421356237309509
10
-3.5375067138669181
20
116.03748504638659
10
-3.5375067138670602
20
103.03748504638648
42
-0.41421356237309509
0
LWPOLYLINE
5
113
100
AcDbEntity
8
0
100
AcDbPolyline
90
8
70
1
43
0.0
10
-213.0875067138669
20
116.03748504638659
10
-213.08750671386704
20
103.03748504638648
42
-0.41421356237309509
10
-213.58750671386701
20
102.53748504638651
10
-214.08750671386699
20
102.53748504638651
42
-0.41421356237309509
10
-214.58750671386696
20
103.03748504638648
10
-214.58750671386696
20
116.03748504638659
42
-0.41421356237309509
10
-214.08750671386699
20
116.53748504638656
10
-213.58750671386701
20
116.53748504638671
42
-0.41421356237309509
0
LWPOLYLINE
5
114
100
AcDbEntity
8
0
100
AcDbPolyline
90
8
70
1
43
0.0
10
-18.406256713867037
20
78.437485046386541
10
-5.4062567138670659
20
78.437485046386541
42
-0.41421356237309509
10
-4.9062567138670943
20
77.93748504638657
10
-4.9062567138670943
20
64.937485046386527
42
-0.41421356237309509
10
-5.4062567138670659
20
64.437485046386556
10
-18.406256713867037
20
64.437485046386556
42
-0.41421356237309509
10
-18.906256713867009
20
64.937485046386527
10
-18.906256713867009
20
77.93748504638657
42
-0.41421356237309509
0
LWPOLYLINE
5
115
100
AcDbEntity
8
0
100
AcDbPolyline
90
8
70
1
43
0.0
10
-21.287506713866975
20
103.03748504638655
10
-21.287506713867046
20
116.03748504638652
42
-0.41421356237309509
10
-20.787506713867003
20
116.53748504638656
10
-7.7875067138670317
20
116.53748504638649
42
-0.41421356237309509
10
-7.2875067138670602
20
116.03748504638652
10
-7.2875067138669891
20
103.03748504638655
42
-0.41421356237309509
10
-7.7875067138670317
20
102.53748504638651
10
-20.787506713867003
20
102.53748504638658
42
-0.41421356237309509
0
LWPOLYLINE
5
116
100
AcDbEntity
8
0
100
AcDbPolyline
90
8
70
1
43
0.0
10
-45.887506713867054
20
83.487485046386496
10
-58.887506713867026
20
83.487485046386567
42
-0.41421356237309509
10
-59.387506713866998
20
83.987485046386539
10
-59.387506713866998
20
96.987485046386581
42
-0.41421356237309509
10
-58.887506713867026
20
97.487485046386553
10
-45.887506713867054
20
97.487485046386553
42
-0.41421356237309509
10
-45.387506713867083
20
96.987485046386581
10
-45.387506713867012
20
83.987485046386539
42
-0.41421356237309509
0
LWPOLYLINE
5
117
100
AcDbEntity
8
0
100
AcDbPolyline
90
8
70
1
43
0.0
10
-55.41250671386706
20
102.53748504638651
10
-68.412506713867032
20
102.53748504638658
42
-0.41421356237309509
10
-68.912506713867003
20
103.03748504638655
10
-68.912506713867074
20
116.03748504638652
42
-0.41421356237309509
10
-68.412506713867032
20
116.53748504638656
10
-55.41250671386706
20
116.53748504638649
42
-0.41421356237309509
10
-54.912506713867089
20
116.03748504638652
10
-54.912506713867018
20
103.03748504638655
42
-0.41421356237309509
0
LWPOLYLINE
5
118
100
AcDbEntity
8
0
100
AcDbPolyline
90
8
70
1
43
0.0
10
-116.53750671386703
20
83.987485046386539
10
-116.53750671386703
20
96.987485046386581
42
-0.41421356237309509
10
-116.03750671386706
20
97.487485046386553
10
-103.03750671386695
20
97.487485046386553
42
-0.41421356237309509
10
-102.53750671386697
20
96.987485046386581
10
-102.5375067138669
20
83.987485046386539
42
-0.41421356237309509
10
-103.03750671386695
20
83.487485046386496
10
-116.03750671386706
20
83.487485046386567
42
-0.41421356237309509
0
LWPOLYLINE
5
119
100
AcDbEntity
8
0
100
AcDbPolyline
90
8
70
1
43
0.0
10
-169.71250671386699
20
64.437485046386556
10
-182.71250671386696
20
64.437485046386556
42
-0.41421356237309509
10
-183.21250671386693
20
64.937485046386527
10
-183.21250671386693
20
77.93748504638657
42
-0.41421356237309509
10
-182.71250671386696
20
78.437485046386541
10
-169.71250671386699
20
78.437485046386541
42
-0.41421356237309509
10
-169.21250671386701
20
77.93748504638657
10
-169.21250671386701
20
64.937485046386527
42
-0.41421356237309509
0
LWPOLYLINE
5
120
100
AcDbEntity
8
0
100
AcDbPolyline
90
8
70
1
43
0.0
10
-203.02500671386696
20
115.53748504638648
42
0.41421356237309509
10
-203.52500671386693
20
115.03748504638651
10
-203.52500671386693
20
101.03748504638652
42
0.41421356237309509
10
-203.02500671386696
20
100.53748504638655
10
-197.02500671386701
20
100.53748504638648
42
0.41421356237309509
10
-196.52500671386704
20
101.03748504638652
10
-196.52500671386704
20
115.03748504638651
42
0.41421356237309509
10
-197.02500671386701
20
115.53748504638655
0
LWPOLYLINE
5
121
100
AcDbEntity
8
0
100
AcDbPolyline
90
8
70
1
43
0.0
10
-226.86250671386702
20
64.437485046386556
10
-239.86250671386699
20
64.437485046386556
42
-0.41421356237309509
10
-240.36250671386696
20
64.937485046386527
10
-240.36250671386696
20
77.93748504638657
42
-0.41421356237309509
10
-239.86250671386699
20
78.437485046386541
10
-226.86250671386702
20
78.437485046386541
42
-0.41421356237309509
10
-226.36250671386705
20
77.93748504638657
10
-226.36250671386705
20
64.937485046386527
42
-0.41421356237309509
0
LWPOLYLINE
5
122
100
AcDbEntity
8
0
100
AcDbPolyline
90
8
70
1
43
0.0
10
-253.05625671386707
20
83.487485046386496
42
0.41421356237309509
10
-252.5562567138671
20
83.987485046386539
10
-252.5562567138671
20
96.987485046386581
42
0.41421356237309509
10
-253.05625671386707
20
97.487485046386553
10
-266.05625671386701
20
97.487485046386553
42
0.41421356237309509
10
-266.55625671386701
20
96.987485046386581
10
-266.55625671386701
20
83.987485046386539
42
0.41421356237309509
10
-266.05625671386701
20
83.487485046386496
0
LWPOLYLINE
5
123
100
AcDbEntity
8
0
100
AcDbPolyline
90
8
70
1
43
0.0
10
-331.63750671386708
20
102.53748504638651
10
-344.63750671386691
20
102.53748504638658
42
-0.41421356237309509
10
-345.13750671386686
20
103.03748504638655
10
-345.13750671386697
20
116.03748504638652
42
-0.41421356237309509
10
-344.63750671386691
20
116.53748504638656
10
-331.63750671386708
20
116.53748504638649
42
-0.41421356237309509
10
-331.13750671386708
20
116.03748504638652
10
-331.13750671386703
20
103.03748504638655
42
-0.41421356237309509
0
LWPOLYLINE
5
124
100
AcDbEntity
8
0
100
AcDbPolyline
90
8
70
1
43
0.0
10
-331.63750671386708
20
45.387485046386544
10
-344.63750671386691
20
45.387485046386544
42
-0.41421356237309509
10
-345.13750671386686
20
45.887485046386516
10
-345.13750671386686
20
58.887485046386558
42
-0.41421356237309509
10
-344.63750671386691
20
59.38748504638653
10
-331.63750671386708
20
59.38748504638653
42
-0.41421356237309509
10
-331.13750671386708
20
58.887485046386558
10
-331.13750671386708
20
45.887485046386516
42
-0.41421356237309509
0
LWPOLYLINE
5
125
100
AcDbEntity
8
0
100
AcDbPolyline
90
8
70
1
43
0.0
10
-307.037506713867
20
45.887485046386516
10
-307.037506713867
20
58.887485046386558
42
-0.41421356237309509
10
-306.53750671386706
20
59.38748504638653
10
-293.53750671386706
20
59.38748504638653
42
-0.41421356237309509
10
-293.03750671386706
20
58.887485046386558
10
-293.03750671386706
20
45.887485046386516
42
-0.41421356237309509
10
-293.53750671386706
20
45.387485046386544
10
-306.53750671386706
20
45.387485046386544
42
-0.41421356237309509
0
LWPOLYLINE
5
126
100
AcDbEntity
8
0
100
AcDbPolyline
90
8
70
1
43
0.0
10
-275.63800671386701
20
27.337485046386547
42
0.41421356237309509
10
-275.13800671386707
20
27.837485046386519
10
-275.13800671386707
20
41.837485046386576
42
0.41421356237309509
10
-275.63800671386701
20
42.337485046386547
10
-281.63800671386696
20
42.337485046386547
42
0.41421356237309509
10
-282.13800671386707
20
41.837485046386576
10
-282.13800671386696
20
27.837485046386519
42
0.41421356237309509
10
-281.63800671386696
20
27.337485046386547
0
LWPOLYLINE
5
127
100
AcDbEntity
8
0
100
AcDbPolyline
90
8
70
1
43
0.0
10
-231.62500671386709
20
26.337485046386533
10
-244.62500671386707
20
26.337485046386604
42
-0.41421356237309509
10
-245.12500671386704
20
26.837485046386576
10
-245.12500671386704
20
39.837485046386547
42
-0.41421356237309509
10
-244.62500671386707
20
40.337485046386519
10
-231.62500671386709
20
40.337485046386519
42
-0.41421356237309509
10
-231.12500671386712
20
39.837485046386547
10
-231.12500671386704
20
26.837485046386576
42
-0.41421356237309509
0
LWPOLYLINE
5
128
100
AcDbEntity
8
0
100
AcDbPolyline
90
8
70
1
43
0.0
10
-193.52500671386707
20
26.337485046386604
42
0.41421356237309509
10
-193.0250067138671
20
26.837485046386576
10
-193.0250067138671
20
39.837485046386547
42
0.41421356237309509
10
-193.52500671386707
20
40.337485046386519
10
-206.52500671386704
20
40.337485046386519
42
0.41421356237309509
10
-207.02500671386701
20
39.837485046386547
10
-207.02500671386701
20
26.837485046386576
42
0.41421356237309509
10
-206.52500671386704
20
26.337485046386533
0
LWPOLYLINE
5
129
100
AcDbEntity
8
0
100
AcDbPolyline
90
8
70
1
43
0.0
10
-168.92500671386699
20
26.837485046386576
10
-168.92500671386699
20
39.837485046386547
42
-0.41421356237309509
10
-168.42500671386702
20
40.337485046386519
10
-155.42500671386705
20
40.337485046386519
42
-0.41421356237309509
10
-154.92500671386708
20
39.837485046386547
10
-154.92500671386708
20
26.837485046386576
42
-0.41421356237309509
10
-155.42500671386705
20
26.337485046386604
10
-168.42500671386702
20
26.337485046386604
42
-0.41421356237309509
0
LWPOLYLINE
5
130
100
AcDbEntity
8
0
100
AcDbPolyline
90
8
70
1
43
0.0
10
-117.32500671386703
20
26.337485046386533
10
-130.325006713867
20
26.337485046386604
42
-0.41421356237309509
10
-130.82500671386697
20
26.837485046386576
10
-130.82500671386697
20
39.837485046386547
42
-0.41421356237309509
10
-130.325006713867
20
40.337485046386519
10
-117.32500671386703
20
40.337485046386519
42
-0.41421356237309509
10
-116.82500671386705
20
39.837485046386547
10
-116.82500671386698
20
26.837485046386576
42
-0.41421356237309509
0
LWPOLYLINE
5
131
100
AcDbEntity
8
0
100
AcDbPolyline
90
8
70
1
43
0.0
10
-79.225006713867003
20
26.337485046386533
10
-92.225006713866975
20
26.337485046386604
42
-0.41421356237309509
10
-92.725006713866946
20
26.837485046386576
10
-92.725006713866946
20
39.837485046386547
42
-0.41421356237309509
10
-92.225006713866975
20
40.337485046386519
10
-79.225006713867003
20
40.337485046386519
42
-0.41421356237309509
10
-78.725006713867032
20
39.837485046386547
10
-78.725006713866961
20
26.837485046386576
42
-0.41421356237309509
0
LWPOLYLINE
5
132
100
AcDbEntity
8
0
100
AcDbPolyline
90
8
70
1
43
0.0
10
-41.125006713866981
20
26.337485046386604
42
0.41421356237309509
10
-40.625006713867009
20
26.837485046386576
10
-40.625006713867009
20
39.837485046386547
42
0.41421356237309509
10
-41.125006713866981
20
40.337485046386519
10
-54.125006713866952
20
40.337485046386519
42
0.41421356237309509
10
-54.625006713867066
20
39.837485046386547
10
-54.625006713866924
20
26.837485046386576
42
0.41421356237309509
10
-54.125006713866952
20
26.337485046386533
0
LWPOLYLINE
5
133
100
AcDbEntity
8
0
100
AcDbPolyline
90
8
70
1
43
0.0
10
-16.525006713867043
20
26.837485046386576
10
-16.525006713867043
20
39.837485046386547
42
-0.41421356237309509
10
-16.025006713867072
20
40.337485046386519
10
-3.0250067138669579
20
40.337485046386519
42
-0.41421356237309509
10
-2.5250067138669863
20
39.837485046386547
10
-2.5250067138669863
20
26.837485046386576
42
-0.41421356237309509
10
-3.0250067138669579
20
26.337485046386604
10
-16.025006713867072
20
26.337485046386604
42
-0.41421356237309509
0
LWPOLYLINE
5
134
100
AcDbEntity
8
0
100
AcDbPolyline
90
8
70
1
43
0.0
10
-92.725006713866946
20
3.0249850463865613
10
-92.725006713866946
20
16.024985046386533
42
-0.41421356237309509
10
-92.225006713866975
20
16.524985046386504
10
-79.225006713867003
20
16.524985046386504
42
-0.41421356237309509
10
-78.725006713867032
20
16.024985046386533
10
-78.725006713867032
20
3.0249850463865613
42
-0.41421356237309509
10
-79.225006713867003
20
2.5249850463865897
10
-92.225006713866975
20
2.5249850463865897
42
-0.41421356237309509
0
LWPOLYLINE
5
135
100
AcDbEntity
8
0
100
AcDbPolyline
90
8
70
1
43
0.0
10
-164.95000671386705
20
2.5249850463865187
10
-177.95000671386703
20
2.5249850463865897
42
-0.41421356237309509
10
-178.450006713867
20
3.0249850463865613
10
-178.450006713867
20
16.024985046386533
42
-0.41421356237309509
10
-177.95000671386703
20
16.524985046386504
10
-164.95000671386705
20
16.524985046386504
42
-0.41421356237309509
10
-164.45000671386708
20
16.024985046386533
10
-164.45000671386703
20
3.0249850463865613
42
-0.41421356237309509
0
LWPOLYLINE
5
136
100
AcDbEntity
8
0
100
AcDbPolyline
90
8
70
1
43
0.0
10
-264.17500671386705
20
3.0249850463865613
10
-264.17500671386705
20
16.024985046386533
42
-0.41421356237309509
10
-263.67500671386711
20
16.524985046386504
10
-250.67500671386711
20
16.524985046386504
42
-0.41421356237309509
10
-250.17500671386713
20
16.024985046386533
10
-250.17500671386713
20
3.0249850463865613
42
-0.41421356237309509
10
-250.67500671386711
20
2.5249850463865897
10
-263.67500671386711
20
2.5249850463865897
42
-0.41421356237309509
0
LWPOLYLINE
5
137
100
AcDbEntity
8
0
100
AcDbPolyline
90
8
70
1
43
0.0
10
-331.63750671386708
20
2.5249850463865897
42
0.41421356237309509
10
-331.13750671386708
20
3.0249850463865613
10
-331.13750671386708
20
16.024985046386533
42
0.41421356237309509
10
-331.63750671386708
20
16.524985046386504
10
-344.63750671386691
20
16.524985046386504
42
0.41421356237309509
10
-345.13750671386703
20
16.024985046386533
10
-345.13750671386686
20
3.0249850463865613
42
0.41421356237309509
10
-344.63750671386691
20
2.5249850463865187
0
LWPOLYLINE
5
138
100
AcDbEntity
8
0
100
AcDbPolyline
90
8
70
1
43
0.0
10
-184.00000671386707
20
2.5249850463865187
10
-197.00000671386704
20
2.5249850463865897
42
-0.41421356237309509
10
-197.50000671386701
20
3.0249850463865613
10
-197.50000671386701
20
16.024985046386533
42
-0.41421356237309509
10
-197.00000671386704
20
16.524985046386504
10
-184.00000671386707
20
16.524985046386504
42
-0.41421356237309509
10
-183.50000671386709
20
16.024985046386533
10
-183.50000671386704
20
3.0249850463865613
42
-0.41421356237309509
0
LWPOLYLINE
5
139
100
AcDbEntity
8
0
100
AcDbPolyline
90
8
70
1
43
0.0
10
-98.275006713867015
20
2.5249850463865187
10
-111.27500671386699
20
2.5249850463865897
42
-0.41421356237309509
10
-111.77500671386696
20
3.0249850463865613
10
-111.77500671386696
20
16.024985046386533
42
-0.41421356237309509
10
-111.27500671386699
20
16.524985046386504
10
-98.275006713867015
20
16.524985046386504
42
-0.41421356237309509
10
-97.775006713867043
20
16.024985046386533
10
-97.775006713866972
20
3.0249850463865613
42
-0.41421356237309509
0
LWPOLYLINE
5
140
100
AcDbEntity
8
0
100
AcDbPolyline
90
8
70
1
43
0.0
10
-16.525006713867043
20
3.0249850463865613
10
-16.525006713867043
20
16.024985046386533
42
-0.41421356237309509
10
-16.025006713867072
20
16.524985046386504
10
-3.0250067138669579
20
16.524985046386504
42
-0.41421356237309509
10
-2.5250067138669863
20
16.024985046386533
10
-2.5250067138669863
20
3.0249850463865613
42
-0.41421356237309509
10
-3.0250067138669579
20
2.5249850463865897
10
-16.025006713867072
20
2.5249850463865897
42
-0.41421356237309509
0
LWPOLYLINE
5
141
100
AcDbEntity
8
0
100
AcDbPolyline
90
8
70
1
43
0.0
10
-31.600006713866975
20
45.387485046386544
10
-44.600006713866946
20
45.387485046386544
42
-0.41421356237309509
10
-45.100006713866918
20
45.887485046386516
10
-45.100006713866918
20
58.887485046386558
42
-0.41421356237309509
10
-44.600006713866946
20
59.38748504638653
10
-31.600006713866975
20
59.38748504638653
42
-0.41421356237309509
10
-31.100006713867003
20
58.887485046386558
10
-31.100006713867003
20
45.887485046386516
42
-0.41421356237309509
0
LWPOLYLINE
5
142
100
AcDbEntity
8
0
100
AcDbPolyline
90
8
70
1
43
0.0
10
-69.700006713866998
20
45.387485046386544
10
-82.700006713866969
20
45.387485046386544
42
-0.41421356237309509
10
-83.200006713866941
20
45.887485046386516
10
-83.200006713866941
20
58.887485046386558
42
-0.41421356237309509
10
-82.700006713866969
20
59.38748504638653
10
-69.700006713866998
20
59.38748504638653
42
-0.41421356237309509
10
-69.200006713867026
20
58.887485046386558
10
-69.200006713867026
20
45.887485046386516
42
-0.41421356237309509
0
LWPOLYLINE
5
143
100
AcDbEntity
8
0
100
AcDbPolyline
90
8
70
1
43
0.0
10
-121.30000671386696
20
45.887485046386516
10
-121.30000671386696
20
58.887485046386558
42
-0.41421356237309509
10
-120.80000671386699
20
59.38748504638653
10
-107.80000671386702
20
59.38748504638653
42
-0.41421356237309509
10
-107.30000671386705
20
58.887485046386558
10
-107.30000671386705
20
45.887485046386516
42
-0.41421356237309509
10
-107.80000671386702
20
45.387485046386544
10
-120.80000671386699
20
45.387485046386544
42
-0.41421356237309509
0
LWPOLYLINE
5
144
100
AcDbEntity
8
0
100
AcDbPolyline
90
8
70
1
43
0.0
10
-145.90000671386704
20
45.387485046386544
42
0.41421356237309509
10
-145.40000671386707
20
45.887485046386516
10
-145.40000671386707
20
58.887485046386558
42
0.41421356237309509
10
-145.90000671386704
20
59.38748504638653
10
-158.90000671386701
20
59.38748504638653
42
0.41421356237309509
10
-159.40000671386699
20
58.887485046386558
10
-159.40000671386699
20
45.887485046386516
42
0.41421356237309509
10
-158.90000671386701
20
45.387485046386544
0
LWPOLYLINE
5
145
100
AcDbEntity
8
0
100
AcDbPolyline
90
8
70
1
43
0.0
10
-184.00000671386707
20
45.387485046386544
10
-197.00000671386704
20
45.387485046386544
42
-0.41421356237309509
10
-197.50000671386701
20
45.887485046386516
10
-197.50000671386701
20
58.887485046386558
42
-0.41421356237309509
10
-197.00000671386704
20
59.38748504638653
10
-184.00000671386707
20
59.38748504638653
42
-0.41421356237309509
10
-183.50000671386709
20
58.887485046386558
10
-183.50000671386709
20
45.887485046386516
42
-0.41421356237309509
0
LWPOLYLINE
5
146
100
AcDbEntity
8
0
100
AcDbPolyline
90
8
70
1
43
0.0
10
-222.10000671386695
20
45.387485046386544
10
-235.10000671386706
20
45.387485046386544
42
-0.41421356237309509
10
-235.60000671386703
20
45.887485046386516
10
-235.60000671386703
20
58.887485046386558
42
-0.41421356237309509
10
-235.10000671386706
20
59.38748504638653
10
-222.10000671386695
20
59.38748504638653
42
-0.41421356237309509
10
-221.60000671386697
20
58.887485046386558
10
-221.60000671386697
20
45.887485046386516
42
-0.41421356237309509
0
LWPOLYLINE
5
147
100
AcDbEntity
8
0
100
AcDbPolyline
90
8
70
1
43
0.0
10
-260.20000671386697
20
26.337485046386533
10
-273.20000671386708
20
26.337485046386604
42
-0.41421356237309509
10
-273.70000671386708
20
26.837485046386576
10
-273.70000671386708
20
39.837485046386547
42
-0.41421356237309509
10
-273.20000671386708
20
40.337485046386519
10
-260.20000671386697
20
40.337485046386519
42
-0.41421356237309509
10
-259.70000671386697
20
39.837485046386547
10
-259.70000671386691
20
26.837485046386576
42
-0.41421356237309509
0
LWPOLYLINE
5
148
100
AcDbEntity
8
0
100
AcDbPolyline
90
8
70
1
43
0.0
10
-279.84375671386704
20
70.850485046386567
42
0.41421356237309509
10
-279.34375671386704
20
70.350485046386524
10
-265.34375671386698
20
70.350485046386595
42
0.41421356237309509
10
-264.84375671386704
20
70.850485046386567
10
-264.84375671386704
20
76.850485046386581
42
0.41421356237309509
10
-265.34375671386698
20
77.350485046386552
10
-279.34375671386704
20
77.350485046386552
42
0.41421356237309509
10
-279.84375671386704
20
76.850485046386581
0
LWPOLYLINE
5
149
100
AcDbEntity
8
0
100
AcDbPolyline
90
8
70
1
43
0.0
10
-312.58750671386707
20
45.387485046386544
10
-325.5875067138669
20
45.387485046386544
42
-0.41421356237309509
10
-326.0875067138669
20
45.887485046386516
10
-326.0875067138669
20
58.887485046386558
42
-0.41421356237309509
10
-325.5875067138669
20
59.38748504638653
10
-312.58750671386707
20
59.38748504638653
42
-0.41421356237309509
10
-312.08750671386713
20
58.887485046386558
10
-312.08750671386713
20
45.887485046386516
42
-0.41421356237309509
0
LWPOLYLINE
5
150
100
AcDbEntity
8
0
100
AcDbPolyline
90
8
70
1
43
0.0
10
-312.58750671386707
20
102.53748504638651
10
-325.5875067138669
20
102.53748504638658
42
-0.41421356237309509
10
-326.0875067138669
20
103.03748504638655
10
-326.08750671386696
20
116.03748504638652
42
-0.41421356237309509
10
-325.5875067138669
20
116.53748504638656
10
-312.58750671386707
20
116.53748504638649
42
-0.41421356237309509
10
-312.08750671386713
20
116.03748504638652
10
-312.08750671386701
20
103.03748504638655
42
-0.41421356237309509
0
LWPOLYLINE
5
151
100
AcDbEntity
8
0
100
AcDbPolyline
90
8
70
1
43
0.0
10
-268.49425671386712
20
84.48748504638651
10
-274.49425671386706
20
84.487485046386581
42
-0.41421356237309509
10
-274.994256713867
20
84.987485046386553
10
-274.99425671386712
20
98.987485046386539
42
-0.41421356237309509
10
-274.49425671386706
20
99.487485046386581
10
-268.49425671386712
20
99.48748504638651
42
-0.41421356237309509
10
-267.99425671386712
20
98.987485046386539
10
-267.99425671386706
20
84.987485046386553
42
-0.41421356237309509
0
LWPOLYLINE
5
152
100
AcDbEntity
8
0
100
AcDbPolyline
90
8
70
1
43
0.0
10
-245.91250671386703
20
64.437485046386556
42
0.41421356237309509
10
-245.41250671386706
20
64.937485046386527
10
-245.41250671386706
20
77.93748504638657
42
0.41421356237309509
10
-245.91250671386703
20
78.437485046386541
10
-258.912506713867
20
78.437485046386541
42
0.41421356237309509
10
-259.41250671386712
20
77.93748504638657
10
-259.41250671386695
20
64.937485046386527
42
0.41421356237309509
10
-258.912506713867
20
64.437485046386556
0
LWPOLYLINE
5
153
100
AcDbEntity
8
0
100
AcDbPolyline
90
8
70
1
43
0.0
10
-198.287506713867
20
83.487485046386496
10
-211.28750671386697
20
83.487485046386567
42
-0.41421356237309509
10
-211.78750671386695
20
83.987485046386539
10
-211.78750671386695
20
96.987485046386581
42
-0.41421356237309509
10
-211.28750671386697
20
97.487485046386553
10
-198.287506713867
20
97.487485046386553
42
-0.41421356237309509
10
-197.78750671386703
20
96.987485046386581
10
-197.78750671386695
20
83.987485046386539
42
-0.41421356237309509
0
LWPOLYLINE
5
154
100
AcDbEntity
8
0
100
AcDbPolyline
90
8
70
1
43
0.0
10
-188.762506713867
20
64.437485046386556
42
0.41421356237309509
10
-188.26250671386703
20
64.937485046386527
10
-188.26250671386703
20
77.93748504638657
42
0.41421356237309509
10
-188.762506713867
20
78.437485046386541
10
-201.76250671386697
20
78.437485046386541
42
0.41421356237309509
10
-202.26250671386708
20
77.93748504638657
10
-202.26250671386694
20
64.937485046386527
42
0.41421356237309509
10
-201.76250671386697
20
64.437485046386556
0
LWPOLYLINE
5
155
100
AcDbEntity
8
0
100
AcDbPolyline
90
8
70
1
43
0.0
10
-141.13750671386697
20
83.487485046386496
42
0.41421356237309509
10
-140.637506713867
20
83.987485046386539
10
-140.637506713867
20
96.987485046386581
42
0.41421356237309509
10
-141.13750671386697
20
97.487485046386553
10
-154.13750671386708
20
97.487485046386553
42
0.41421356237309509
10
-154.63750671386705
20
96.987485046386581
10
-154.63750671386705
20
83.987485046386539
42
0.41421356237309509
10
-154.13750671386708
20
83.487485046386496
0
LWPOLYLINE
5
156
100
AcDbEntity
8
0
100
AcDbPolyline
90
8
70
1
43
0.0
10
-126.06250671386704
20
64.937485046386527
10
-126.06250671386704
20
77.93748504638657
42
-0.41421356237309509
10
-125.56250671386707
20
78.437485046386541
10
-112.56250671386709
20
78.437485046386541
42
-0.41421356237309509
10
-112.06250671386712
20
77.93748504638657
10
-112.06250671386712
20
64.937485046386527
42
-0.41421356237309509
10
-112.56250671386709
20
64.437485046386556
10
-125.56250671386707
20
64.437485046386556
42
-0.41421356237309509
0
LWPOLYLINE
5
157
100
AcDbEntity
8
0
100
AcDbPolyline
90
8
70
1
43
0.0
10
-88.725006713867032
20
115.53748504638655
10
-82.725006713866946
20
115.53748504638648
42
-0.41421356237309509
10
-82.225006713866975
20
115.03748504638651
10
-82.225006713866904
20
101.03748504638652
42
-0.41421356237309509
10
-82.725006713866946
20
100.53748504638648
10
-88.725006713867032
20
100.53748504638655
42
-0.41421356237309509
10
-89.225006713867003
20
101.03748504638652
10
-89.225006713867074
20
115.03748504638651
42
-0.41421356237309509
0
LWPOLYLINE
5
158
100
AcDbEntity
8
0
100
AcDbPolyline
90
8
70
1
43
0.0
10
-68.912506713867003
20
64.937485046386527
10
-68.912506713867003
20
77.93748504638657
42
-0.41421356237309509
10
-68.412506713867032
20
78.437485046386541
10
-55.41250671386706
20
78.437485046386541
42
-0.41421356237309509
10
-54.912506713867089
20
77.93748504638657
10
-54.912506713867089
20
64.937485046386527
42
-0.41421356237309509
10
-55.41250671386706
20
64.437485046386556
10
-68.412506713867032
20
64.437485046386556
42
-0.41421356237309509
0
LWPOLYLINE
5
159
100
AcDbEntity
8
0
100
AcDbPolyline
90
8
70
1
43
0.0
10
-31.600006713866975
20
102.53748504638651
10
-44.600006713866946
20
102.53748504638658
42
-0.41421356237309509
10
-45.100006713866918
20
103.03748504638655
10
-45.100006713866989
20
116.03748504638652
42
-0.41421356237309509
10
-44.600006713866946
20
116.53748504638656
10
-31.600006713866975
20
116.53748504638649
42
-0.41421356237309509
10
-31.100006713867003
20
116.03748504638652
10
-31.100006713866932
20
103.03748504638655
42
-0.41421356237309509
0
LWPOLYLINE
5
160
100
AcDbEntity
8
0
100
AcDbPolyline
90
8
70
1
43
0.0
10
-18.906256713867009
20
83.987485046386539
10
-18.906256713867009
20
96.987485046386581
42
-0.41421356237309509
10
-18.406256713867037
20
97.487485046386553
10
-5.4062567138670659
20
97.487485046386553
42
-0.41421356237309509
10
-4.9062567138670943
20
96.987485046386581
10
-4.9062567138670232
20
83.987485046386539
42
-0.41421356237309509
10
-5.4062567138670659
20
83.487485046386496
10
-18.406256713867037
20
83.487485046386567
42
-0.41421356237309509
0
LWPOLYLINE
5
161
100
AcDbEntity
8
0
100
AcDbPolyline
90
8
70
1
43
0.0
10
-36.362506713867049
20
64.437485046386556
42
0.41421356237309509
10
-35.862506713867077
20
64.937485046386527
10
-35.862506713867077
20
77.93748504638657
42
0.41421356237309509
10
-36.362506713867049
20
78.437485046386541
10
-49.36250671386702
20
78.437485046386541
42
0.41421356237309509
10
-49.862506713866992
20
77.93748504638657
10
-49.862506713866992
20
64.937485046386527
42
0.41421356237309509
10
-49.36250671386702
20
64.437485046386556
0
LWPOLYLINE
5
162
100
AcDbEntity
8
0
100
AcDbPolyline
90
8
70
1
43
0.0
10
-64.937506713867066
20
83.487485046386496
10
-77.937506713867037
20
83.487485046386567
42
-0.41421356237309509
10
-78.437506713867009
20
83.987485046386539
10
-78.437506713867009
20
96.987485046386581
42
-0.41421356237309509
10
-77.937506713867037
20
97.487485046386553
10
-64.937506713867066
20
97.487485046386553
42
-0.41421356237309509
10
-64.437506713867094
20
96.987485046386581
10
-64.437506713867023
20
83.987485046386539
42
-0.41421356237309509
0
LWPOLYLINE
5
163
100
AcDbEntity
8
0
100
AcDbPolyline
90
8
70
1
43
0.0
10
-93.512506713867083
20
64.437485046386556
42
0.41421356237309509
10
-93.012506713867111
20
64.937485046386527
10
-93.012506713867111
20
77.93748504638657
42
0.41421356237309509
10
-93.512506713867083
20
78.437485046386541
10
-106.51250671386705
20
78.437485046386541
42
0.41421356237309509
10
-107.01250671386703
20
77.93748504638657
10
-107.01250671386703
20
64.937485046386527
42
0.41421356237309509
10
-106.51250671386705
20
64.437485046386556
0
LWPOLYLINE
5
164
100
AcDbEntity
8
0
100
AcDbPolyline
90
8
70
1
43
0.0
10
-122.08750671386696
20
83.487485046386496
10
-135.08750671386707
20
83.487485046386567
42
-0.41421356237309509
10
-135.58750671386704
20
83.987485046386539
10
-135.58750671386704
20
96.987485046386581
42
-0.41421356237309509
10
-135.08750671386707
20
97.487485046386553
10
-122.08750671386696
20
97.487485046386553
42
-0.41421356237309509
10
-121.58750671386699
20
96.987485046386581
10
-121.58750671386692
20
83.987485046386539
42
-0.41421356237309509
0
LWPOLYLINE
5
165
100
AcDbEntity
8
0
100
AcDbPolyline
90
8
70
1
43
0.0
10
-173.68750671386707
20
83.987485046386539
10
-173.68750671386707
20
96.987485046386581
42
-0.41421356237309509
10
-173.18750671386709
20
97.487485046386553
10
-160.18750671386698
20
97.487485046386553
42
-0.41421356237309509
10
-159.68750671386701
20
96.987485046386581
10
-159.68750671386692
20
83.987485046386539
42
-0.41421356237309509
10
-160.18750671386698
20
83.487485046386496
10
-173.18750671386709
20
83.487485046386567
42
-0.41421356237309509
0
LWPOLYLINE
5
166
100
AcDbEntity
8
0
100
AcDbPolyline
90
8
70
1
43
0.0
10
-217.33750671386701
20
102.53748504638651
10
-230.33750671386699
20
102.53748504638658
42
-0.41421356237309509
10
-230.83750671386696
20
103.03748504638655
10
-230.83750671386701
20
116.03748504638652
42
-0.41421356237309509
10
-230.33750671386699
20
116.53748504638656
10
-217.33750671386701
20
116.53748504638649
42
-0.41421356237309509
10
-216.83750671386704
20
116.03748504638652
10
-216.83750671386696
20
103.03748504638655
42
-0.41421356237309509
0
LWPOLYLINE
5
167
100
AcDbEntity
8
0
100
AcDbPolyline
90
8
70
1
43
0.0
10
-217.33750671386701
20
83.487485046386496
10
-230.33750671386699
20
83.487485046386567
42
-0.41421356237309509
10
-230.83750671386696
20
83.987485046386539
10
-230.83750671386696
20
96.987485046386581
42
-0.41421356237309509
10
-230.33750671386699
20
97.487485046386553
10
-217.33750671386701
20
97.487485046386553
42
-0.41421356237309509
10
-216.83750671386704
20
96.987485046386581
10
-216.83750671386696
20
83.987485046386539
42
-0.41421356237309509
0
LWPOLYLINE
5
168
100
AcDbEntity
8
0
100
AcDbPolyline
90
8
70
1
43
0.0
10
-251.11825671386697
20
84.987485046386553
10
-251.11825671386703
20
98.987485046386539
42
-0.41421356237309509
10
-250.618256713867
20
99.487485046386581
10
-244.61825671386705
20
99.48748504638651
42
-0.41421356237309509
10
-244.11825671386708
20
98.987485046386539
10
-244.11825671386708
20
84.987485046386553
42
-0.41421356237309509
10
-244.61825671386705
20
84.487485046386581
10
-250.618256713867
20
84.487485046386581
42
-0.41421356237309509
0
LWPOLYLINE
5
169
100
AcDbEntity
8
0
100
AcDbPolyline
90
8
70
1
43
0.0
10
-293.53750671386706
20
102.53748504638651
10
-306.53750671386706
20
102.53748504638658
42
-0.41421356237309509
10
-307.037506713867
20
103.03748504638655
10
-307.03750671386706
20
116.03748504638652
42
-0.41421356237309509
10
-306.53750671386706
20
116.53748504638656
10
-293.53750671386706
20
116.53748504638649
42
-0.41421356237309509
10
-293.03750671386706
20
116.03748504638652
10
-293.037506713867
20
103.03748504638655
42
-0.41421356237309509
0
LWPOLYLINE
5
170
100
AcDbEntity
8
0
100
AcDbPolyline
90
8
70
1
43
0.0
10
-331.63750671386708
20
26.337485046386604
42
0.41421356237309509
10
-331.13750671386708
20
26.837485046386576
10
-331.13750671386708
20
39.837485046386547
42
0.41421356237309509
10
-331.63750671386708
20
40.337485046386519
10
-344.63750671386691
20
40.337485046386519
42
0.41421356237309509
10
-345.13750671386703
20
39.837485046386547
10
-345.13750671386686
20
26.837485046386576
42
0.41421356237309509
10
-344.63750671386691
20
26.337485046386533
0
LWPOLYLINE
5
171
100
AcDbEntity
8
0
100
AcDbPolyline
90
8
70
1
43
0.0
10
-307.037506713867
20
26.837485046386576
10
-307.037506713867
20
39.837485046386547
42
-0.41421356237309509
10
-306.53750671386706
20
40.337485046386519
10
-293.53750671386706
20
40.337485046386519
42
-0.41421356237309509
10
-293.03750671386706
20
39.837485046386547
10
-293.03750671386706
20
26.837485046386576
42
-0.41421356237309509
10
-293.53750671386706
20
26.337485046386604
10
-306.53750671386706
20
26.337485046386604
42
-0.41421356237309509
0
LWPOLYLINE
5
172
100
AcDbEntity
8
0
100
AcDbPolyline
90
8
70
1
43
0.0
10
-279.84375671386704
20
46.974485046386576
10
-279.84375671386704
20
52.974485046386519
42
-0.41421356237309509
10
-279.34375671386704
20
53.474485046386491
10
-265.34375671386698
20
53.474485046386491
42
-0.41421356237309509
10
-264.84375671386704
20
52.974485046386519
10
-264.84375671386704
20
46.974485046386576
42
-0.41421356237309509
10
-265.34375671386698
20
46.474485046386604
10
-279.34375671386704
20
46.474485046386604
42
-0.41421356237309509
0
LWPOLYLINE
5
173
100
AcDbEntity
8
0
100
AcDbPolyline
90
8
70
1
43
0.0
10
-254.65000671386704
20
45.887485046386516
10
-254.65000671386704
20
58.887485046386558
42
-0.41421356237309509
10
-254.15000671386707
20
59.38748504638653
10
-241.15000671386696
20
59.38748504638653
42
-0.41421356237309509
10
-240.65000671386699
20
58.887485046386558
10
-240.65000671386699
20
45.887485046386516
42
-0.41421356237309509
10
-241.15000671386696
20
45.387485046386544
10
-254.15000671386707
20
45.387485046386544
42
-0.41421356237309509
0
LWPOLYLINE
5
174
100
AcDbEntity
8
0
100
AcDbPolyline
90
8
70
1
43
0.0
10
-203.05000671386708
20
45.387485046386544
10
-216.05000671386705
20
45.387485046386544
42
-0.41421356237309509
10
-216.55000671386702
20
45.887485046386516
10
-216.55000671386702
20
58.887485046386558
42
-0.41421356237309509
10
-216.05000671386705
20
59.38748504638653
10
-203.05000671386708
20
59.38748504638653
42
-0.41421356237309509
10
-202.55000671386711
20
58.887485046386558
10
-202.55000671386711
20
45.887485046386516
42
-0.41421356237309509
0
LWPOLYLINE
5
175
100
AcDbEntity
8
0
100
AcDbPolyline
90
8
70
1
43
0.0
10
-178.450006713867
20
45.887485046386516
10
-178.450006713867
20
58.887485046386558
42
-0.41421356237309509
10
-177.95000671386703
20
59.38748504638653
10
-164.95000671386705
20
59.38748504638653
42
-0.41421356237309509
10
-164.45000671386708
20
58.887485046386558
10
-164.45000671386708
20
45.887485046386516
42
-0.41421356237309509
10
-164.95000671386705
20
45.387485046386544
10
-177.95000671386703
20
45.387485046386544
42
-0.41421356237309509
0
LWPOLYLINE
5
176
100
AcDbEntity
8
0
100
AcDbPolyline
90
8
70
1
43
0.0
10
-126.85000671386703
20
45.387485046386544
10
-139.850006713867
20
45.387485046386544
42
-0.41421356237309509
10
-140.35000671386697
20
45.887485046386516
10
-140.35000671386697
20
58.887485046386558
42
-0.41421356237309509
10
-139.850006713867
20
59.38748504638653
10
-126.85000671386703
20
59.38748504638653
42
-0.41421356237309509
10
-126.35000671386706
20
58.887485046386558
10
-126.35000671386706
20
45.887485046386516
42
-0.41421356237309509
0
LWPOLYLINE
5
177
100
AcDbEntity
8
0
100
AcDbPolyline
90
8
70
1
43
0.0
10
-88.750006713867009
20
45.387485046386544
42
0.41421356237309509
10
-88.250006713867037
20
45.887485046386516
10
-88.250006713867037
20
58.887485046386558
42
0.41421356237309509
10
-88.750006713867009
20
59.38748504638653
10
-101.75000671386698
20
59.38748504638653
42
0.41421356237309509
10
-102.25000671386709
20
58.887485046386558
10
-102.25000671386695
20
45.887485046386516
42
0.41421356237309509
10
-101.75000671386698
20
45.387485046386544
0
LWPOLYLINE
5
178
100
AcDbEntity
8
0
100
AcDbPolyline
90
8
70
1
43
0.0
10
-50.650006713866986
20
45.387485046386544
10
-63.650006713866958
20
45.387485046386544
42
-0.41421356237309509
10
-64.150006713866929
20
45.887485046386516
10
-64.150006713866929
20
58.887485046386558
42
-0.41421356237309509
10
-63.650006713866958
20
59.38748504638653
10
-50.650006713866986
20
59.38748504638653
42
-0.41421356237309509
10
-50.150006713867015
20
58.887485046386558
10
-50.150006713867015
20
45.887485046386516
42
-0.41421356237309509
0
LWPOLYLINE
5
179
100
AcDbEntity
8
0
100
AcDbPolyline
90
8
70
1
43
0.0
10
-21.287506713866975
20
45.887485046386516
10
-21.287506713866975
20
58.887485046386558
42
-0.41421356237309509
10
-20.787506713867003
20
59.38748504638653
10
-7.7875067138670317
20
59.38748504638653
42
-0.41421356237309509
10
-7.2875067138670602
20
58.887485046386558
10
-7.2875067138670602
20
45.887485046386516
42
-0.41421356237309509
10
-7.7875067138670317
20
45.387485046386544
10
-20.787506713867003
20
45.387485046386544
42
-0.41421356237309509
0
LWPOLYLINE
5
180
100
AcDbEntity
8
0
100
AcDbPolyline
90
8
70
1
43
0.0
10
-60.175006713866992
20
2.5249850463865897
42
0.41421356237309509
10
-59.67500671386702
20
3.0249850463865613
10
-59.67500671386702
20
16.024985046386533
42
0.41421356237309509
10
-60.175006713866992
20
16.524985046386576
10
-73.175006713866964
20
16.524985046386504
42
0.41421356237309509
10
-73.675006713866935
20
16.024985046386533
10
-73.675006713866935
20
3.0249850463865613
42
0.41421356237309509
10
-73.175006713866964
20
2.5249850463865187
0
LWPOLYLINE
5
181
100
AcDbEntity
8
0
100
AcDbPolyline
90
8
70
1
43
0.0
10
-145.90000671386704
20
2.5249850463865187
10
-158.90000671386701
20
2.5249850463865897
42
-0.41421356237309509
10
-159.40000671386699
20
3.0249850463865613
10
-159.40000671386699
20
16.024985046386533
42
-0.41421356237309509
10
-158.90000671386701
20
16.524985046386504
10
-145.90000671386704
20
16.524985046386504
42
-0.41421356237309509
10
-145.40000671386707
20
16.024985046386533
10
-145.40000671386701
20
3.0249850463865613
42
-0.41421356237309509
0
LWPOLYLINE
5
182
100
AcDbEntity
8
0
100
AcDbPolyline
90
8
70
1
43
0.0
10
-231.62500671386709
20
2.5249850463865897
42
0.41421356237309509
10
-231.12500671386712
20
3.0249850463865613
10
-231.12500671386712
20
16.024985046386533
42
0.41421356237309509
10
-231.62500671386709
20
16.524985046386576
10
-244.62500671386707
20
16.524985046386504
42
0.41421356237309509
10
-245.12500671386704
20
16.024985046386533
10
-245.12500671386704
20
3.0249850463865613
42
0.41421356237309509
10
-244.62500671386707
20
2.5249850463865187
0
LWPOLYLINE
5
183
100
AcDbEntity
8
0
100
AcDbPolyline
90
8
70
1
43
0.0
10
-312.58750671386707
20
2.5249850463865187
10
-325.5875067138669
20
2.5249850463865897
42
-0.41421356237309509
10
-326.0875067138669
20
3.0249850463865613
10
-326.0875067138669
20
16.024985046386533
42
-0.41421356237309509
10
-325.5875067138669
20
16.524985046386504
10
-312.58750671386707
20
16.524985046386504
42
-0.41421356237309509
10
-312.08750671386713
20
16.024985046386533
10
-312.08750671386701
20
3.0249850463865613
42
-0.41421356237309509
0
LWPOLYLINE
5
184
100
AcDbEntity
8
0
100
AcDbPolyline
90
8
70
1
43
0.0
10
-212.57500671386708
20
2.5249850463865187
10
-225.57500671386705
20
2.5249850463865897
42
-0.41421356237309509
10
-226.07500671386703
20
3.0249850463865613
10
-226.07500671386703
20
16.024985046386533
42
-0.41421356237309509
10
-225.57500671386705
20
16.524985046386504
10
-212.57500671386708
20
16.524985046386504
42
-0.41421356237309509
10
-212.07500671386711
20
16.024985046386533
10
-212.07500671386703
20
3.0249850463865613
42
-0.41421356237309509
0
LWPOLYLINE
5
185
100
AcDbEntity
8
0
100
AcDbPolyline
90
8
70
1
43
0.0
10
-126.85000671386703
20
2.5249850463865187
10
-139.850006713867
20
2.5249850463865897
42
-0.41421356237309509
10
-140.35000671386697
20
3.0249850463865613
10
-140.35000671386697
20
16.024985046386533
42
-0.41421356237309509
10
-139.850006713867
20
16.524985046386504
10
-126.85000671386703
20
16.524985046386504
42
-0.41421356237309509
10
-126.35000671386706
20
16.024985046386533
10
-126.35000671386699
20
3.0249850463865613
42
-0.41421356237309509
0
LWPOLYLINE
5
186
100
AcDbEntity
8
0
100
AcDbPolyline
90
8
70
1
43
0.0
10
-41.125006713866981
20
2.5249850463865187
10
-54.125006713866952
20
2.5249850463865897
42
-0.41421356237309509
10
-54.625006713866924
20
3.0249850463865613
10
-54.625006713866924
20
16.024985046386533
42
-0.41421356237309509
10
-54.125006713866952
20
16.524985046386504
10
-41.125006713866981
20
16.524985046386504
42
-0.41421356237309509
10
-40.625006713867009
20
16.024985046386533
10
-40.625006713866938
20
3.0249850463865613
42
-0.41421356237309509
0
LWPOLYLINE
5
187
100
AcDbEntity
8
0
100
AcDbPolyline
90
8
70
1
43
0.0
10
-22.075006713866969
20
26.337485046386533
10
-35.075006713867083
20
26.337485046386604
42
-0.41421356237309509
10
-35.575006713867054
20
26.837485046386576
10
-35.575006713867054
20
39.837485046386547
42
-0.41421356237309509
10
-35.075006713867083
20
40.337485046386519
10
-22.075006713866969
20
40.337485046386519
42
-0.41421356237309509
10
-21.575006713866998
20
39.837485046386547
10
-21.575006713866927
20
26.837485046386576
42
-0.41421356237309509
0
LWPOLYLINE
5
188
100
AcDbEntity
8
0
100
AcDbPolyline
90
8
70
1
43
0.0
10
-73.675006713866935
20
26.837485046386576
10
-73.675006713866935
20
39.837485046386547
42
-0.41421356237309509
10
-73.175006713866964
20
40.337485046386519
10
-60.175006713866992
20
40.337485046386519
42
-0.41421356237309509
10
-59.67500671386702
20
39.837485046386547
10
-59.67500671386702
20
26.837485046386576
42
-0.41421356237309509
10
-60.175006713866992
20
26.337485046386604
10
-73.175006713866964
20
26.337485046386604
42
-0.41421356237309509
0
LWPOLYLINE
5
189
100
AcDbEntity
8
0
100
AcDbPolyline
90
8
70
1
43
0.0
10
-98.275006713867015
20
26.337485046386533
10
-111.27500671386699
20
26.337485046386604
42
-0.41421356237309509
10
-111.77500671386696
20
26.837485046386576
10
-111.77500671386696
20
39.837485046386547
42
-0.41421356237309509
10
-111.27500671386699
20
40.337485046386519
10
-98.275006713867015
20
40.337485046386519
42
-0.41421356237309509
10
-97.775006713867043
20
39.837485046386547
10
-97.775006713866972
20
26.837485046386576
42
-0.41421356237309509
0
LWPOLYLINE
5
190
100
AcDbEntity
8
0
100
AcDbPolyline
90
8
70
1
43
0.0
10
-136.37500671386704
20
26.337485046386604
42
0.41421356237309509
10
-135.87500671386707
20
26.837485046386576
10
-135.87500671386707
20
39.837485046386547
42
0.41421356237309509
10
-136.37500671386704
20
40.337485046386519
10
-149.37500671386701
20
40.337485046386519
42
0.41421356237309509
10
-149.87500671386698
20
39.837485046386547
10
-149.87500671386698
20
26.837485046386576
42
0.41421356237309509
10
-149.37500671386701
20
26.337485046386533
0
LWPOLYLINE
5
191
100
AcDbEntity
8
0
100
AcDbPolyline
90
8
70
1
43
0.0
10
-174.47500671386706
20
26.337485046386533
10
-187.47500671386703
20
26.337485046386604
42
-0.41421356237309509
10
-187.975006713867
20
26.837485046386576
10
-187.975006713867
20
39.837485046386547
42
-0.41421356237309509
10
-187.47500671386703
20
40.337485046386519
10
-174.47500671386706
20
40.337485046386519
42
-0.41421356237309509
10
-173.97500671386709
20
39.837485046386547
10
-173.975006713867
20
26.837485046386576
42
-0.41421356237309509
0
LWPOLYLINE
5
192
100
AcDbEntity
8
0
100
AcDbPolyline
90
8
70
1
43
0.0
10
-226.07500671386703
20
26.837485046386576
10
-226.07500671386703
20
39.837485046386547
42
-0.41421356237309509
10
-225.57500671386705
20
40.337485046386519
10
-212.57500671386708
20
40.337485046386519
42
-0.41421356237309509
10
-212.07500671386711
20
39.837485046386547
10
-212.07500671386711
20
26.837485046386576
42
-0.41421356237309509
10
-212.57500671386708
20
26.337485046386604
10
-225.57500671386705
20
26.337485046386604
42
-0.41421356237309509
0
LWPOLYLINE
5
193
100
AcDbEntity
8
0
100
AcDbPolyline
90
8
70
1
43
0.0
10
-251.76200671386709
20
27.337485046386547
10
-257.76200671386704
20
27.337485046386547
42
-0.41421356237309509
10
-258.26200671386698
20
27.837485046386519
10
-258.26200671386698
20
41.837485046386576
42
-0.41421356237309509
10
-257.76200671386704
20
42.337485046386547
10
-251.76200671386709
20
42.337485046386547
42
-0.41421356237309509
10
-251.26200671386712
20
41.837485046386576
10
-251.26200671386712
20
27.837485046386519
42
-0.41421356237309509
0
LWPOLYLINE
5
194
100
AcDbEntity
8
0
100
AcDbPolyline
90
8
70
1
43
0.0
10
-280.84375671386709
20
55.412485046386522
10
-280.84375671386692
20
68.412485046386564
42
-0.41421356237309509
10
-280.34375671386698
20
68.912485046386536
10
-267.34375671386704
20
68.912485046386536
42
-0.41421356237309509
10
-266.84375671386704
20
68.412485046386564
10
-266.84375671386704
20
55.412485046386522
42
-0.41421356237309509
10
-267.34375671386704
20
54.91248504638655
10
-280.34375671386698
20
54.912485046386408
42
-0.41421356237309509
0
LWPOLYLINE
5
195
100
AcDbEntity
8
0
100
AcDbPolyline
90
8
70
1
43
0.0
10
-312.58750671386707
20
26.337485046386533
10
-325.5875067138669
20
26.337485046386604
42
-0.41421356237309509
10
-326.0875067138669
20
26.837485046386576
10
-326.0875067138669
20
39.837485046386547
42
-0.41421356237309509
10
-325.5875067138669
20
40.337485046386519
10
-312.58750671386707
20
40.337485046386519
42
-0.41421356237309509
10
-312.08750671386713
20
39.837485046386547
10
-312.08750671386701
20
26.837485046386576
42
-0.41421356237309509
0
LWPOLYLINE
5
196
100
AcDbEntity
8
0
100
AcDbPolyline
90
8
70
1
43
0.0
10
-312.58750671386707
20
83.487485046386496
42
0.41421356237309509
10
-312.08750671386713
20
83.987485046386539
10
-312.08750671386713
20
96.987485046386581
42
0.41421356237309509
10
-312.58750671386707
20
97.487485046386553
10
-325.5875067138669
20
97.487485046386553
42
0.41421356237309509
10
-326.08750671386701
20
96.987485046386581
10
-326.0875067138669
20
83.987485046386539
42
0.41421356237309509
10
-325.5875067138669
20
83.487485046386496
0
LWPOLYLINE
5
197
100
AcDbEntity
8
0
100
AcDbPolyline
90
8
70
1
43
0.0
10
-264.96250671386701
20
102.53748504638651
10
-277.96250671386701
20
102.53748504638658
42
-0.41421356237309509
10
-278.46250671386701
20
103.03748504638655
10
-278.46250671386707
20
116.03748504638652
42
-0.41421356237309509
10
-277.96250671386701
20
116.53748504638656
10
-264.96250671386701
20
116.53748504638649
42
-0.41421356237309509
10
-264.46250671386707
20
116.03748504638652
10
-264.46250671386701
20
103.03748504638655
42
-0.41421356237309509
0
LWPOLYLINE
5
198
100
AcDbEntity
8
0
100
AcDbPolyline
90
8
70
1
43
0.0
10
-241.15000671386696
20
102.53748504638651
42
0.41421356237309509
10
-240.65000671386699
20
103.03748504638655
10
-240.65000671386699
20
116.03748504638652
42
0.41421356237309509
10
-241.15000671386696
20
116.53748504638656
10
-254.15000671386707
20
116.53748504638656
42
0.41421356237309509
10
-254.65000671386704
20
116.03748504638652
10
-254.65000671386704
20
103.03748504638655
42
0.41421356237309509
10
-254.15000671386707
20
102.53748504638651
0
LWPOLYLINE
5
199
100
AcDbEntity
8
0
100
AcDbPolyline
90
8
70
1
43
0.0
10
-221.31250671386709
20
64.937485046386527
10
-221.31250671386695
20
77.93748504638657
42
-0.41421356237309509
10
-220.81250671386698
20
78.437485046386541
10
-207.81250671386701
20
78.437485046386541
42
-0.41421356237309509
10
-207.31250671386704
20
77.93748504638657
10
-207.31250671386704
20
64.937485046386527
42
-0.41421356237309509
10
-207.81250671386701
20
64.437485046386556
10
-220.81250671386698
20
64.437485046386414
42
-0.41421356237309509
0
LWPOLYLINE
5
200
100
AcDbEntity
8
0
100
AcDbPolyline
90
8
70
1
43
0.0
10
-179.23750671386699
20
83.487485046386496
10
-192.23750671386711
20
83.487485046386567
42
-0.41421356237309509
10
-192.73750671386708
20
83.987485046386539
10
-192.73750671386708
20
96.987485046386581
42
-0.41421356237309509
10
-192.23750671386711
20
97.487485046386553
10
-179.23750671386699
20
97.487485046386553
42
-0.41421356237309509
10
-178.73750671386702
20
96.987485046386581
10
-178.73750671386694
20
83.987485046386539
42
-0.41421356237309509
0
LWPOLYLINE
5
201
100
AcDbEntity
8
0
100
AcDbPolyline
90
8
70
1
43
0.0
10
-150.66250671386697
20
64.437485046386556
10
-163.66250671386695
20
64.437485046386556
42
-0.41421356237309509
10
-164.16250671386692
20
64.937485046386527
10
-164.16250671386692
20
77.93748504638657
42
-0.41421356237309509
10
-163.66250671386695
20
78.437485046386541
10
-150.66250671386697
20
78.437485046386541
42
-0.41421356237309509
10
-150.162506713867
20
77.93748504638657
10
-150.162506713867
20
64.937485046386527
42
-0.41421356237309509
0
LWPOLYLINE
5
202
100
AcDbEntity
8
0
100
AcDbPolyline
90
8
70
1
43
0.0
10
-131.61250671386711
20
64.437485046386556
10
-144.61250671386708
20
64.437485046386556
42
-0.41421356237309509
10
-145.11250671386705
20
64.937485046386527
10
-145.11250671386705
20
77.93748504638657
42
-0.41421356237309509
10
-144.61250671386708
20
78.437485046386541
10
-131.61250671386711
20
78.437485046386541
42
-0.41421356237309509
10
-131.11250671386713
20
77.93748504638657
10
-131.11250671386713
20
64.937485046386527
42
-0.41421356237309509
0
LWPOLYLINE
5
203
100
AcDbEntity
8
0
100
AcDbPolyline
90
8
70
1
43
0.0
10
-83.987506713866935
20
83.487485046386496
42
0.41421356237309509
10
-83.487506713866964
20
83.987485046386539
10
-83.487506713866964
20
96.987485046386581
42
0.41421356237309509
10
-83.987506713866935
20
97.487485046386553
10
-96.987506713867049
20
97.487485046386553
42
0.41421356237309509
10
-97.48750671386702
20
96.987485046386581
10
-97.48750671386702
20
83.987485046386539
42
0.41421356237309509
10
-96.987506713867049
20
83.487485046386496
0
LWPOLYLINE
5
204
100
AcDbEntity
8
0
100
AcDbPolyline
90
8
70
1
43
0.0
10
-74.462506713867072
20
64.437485046386556
10
-87.462506713867043
20
64.437485046386556
42
-0.41421356237309509
10
-87.962506713867015
20
64.937485046386527
10
-87.962506713867015
20
77.93748504638657
42
-0.41421356237309509
10
-87.462506713867043
20
78.437485046386541
10
-74.462506713867072
20
78.437485046386541
42
-0.41421356237309509
10
-73.9625067138671
20
77.93748504638657
10
-73.9625067138671
20
64.937485046386527
42
-0.41421356237309509
0
LWPOLYLINE
5
205
100
AcDbEntity
8
0
100
AcDbPolyline
90
8
70
1
43
0.0
10
-26.837506713867043
20
83.487485046386496
10
-39.837506713867015
20
83.487485046386567
42
-0.41421356237309509
10
-40.337506713866986
20
83.987485046386539
10
-40.337506713866986
20
96.987485046386581
42
-0.41421356237309509
10
-39.837506713867015
20
97.487485046386553
10
-26.837506713867043
20
97.487485046386553
42
-0.41421356237309509
10
-26.337506713867072
20
96.987485046386581
10
-26.337506713867
20
83.987485046386539
42
-0.41421356237309509
0
LWPOLYLINE
5
206
100
AcDbEntity
8
0
100
AcDbPolyline
90
8
70
1
43
0.0
10
-294.06000671386732
20
83.479985046386389
10
-306.06000671386738
20
83.479985046386531
42
-0.4142135623733656
10
-307.06000671386732
20
84.479985046386545
10
-307.06000671386732
20
96.479985046386716
42
-0.4142135623733656
10
-306.06000671386681
20
97.479985046386446
10
-294.06000671386732
20
97.479985046386801
42
-0.41421356237313667
10
-293.06000671386687
20
96.479985046386716
10
-293.06000671386676
20
84.479985046386545
42
-0.41421356237288692
0
LWPOLYLINE
5
207
100
AcDbEntity
8
0
100
AcDbPolyline
90
8
70
1
43
0.0
10
-345.16000671386746
20
84.479985046386545
42
0.41421356237315754
10
-344.16000671386769
20
83.479985046386531
10
-332.16000671386723
20
83.479985046386531
42
0.41421356237328233
10
-331.16000671386701
20
84.479985046386545
10
-331.16000671386701
20
96.479985046386716
42
0.41421356237326157
10
-332.16000671386735
20
97.479985046386801
10
-344.16000671386769
20
97.47998504638673
42
0.41421356237309509
10
-345.16000671386735
20
96.479985046386716
0
LWPOLYLINE
5
208
100
AcDbEntity
8
0
100
AcDbPolyline
90
8
70
1
43
0.0
10
-293.03383487206759
20
78.430068311086316
10
-293.03383487206747
20
64.430068311086544
42
-0.41421356237309509
10
-294.03383487206753
20
63.430068311086458
10
-344.13382266506716
20
63.430068311086742
42
-0.41421356237309509
10
-345.1338226650671
20
64.430068311086686
10
-345.13382266506721
20
78.430068311086671
42
-0.41421356237309509
10
-344.13382266506744
20
79.430068311086472
10
-294.03383487206781
20
79.430068311086544
42
-0.41421356237309509
0
LWPOLYLINE
5
209
100
AcDbEntity
8
0
100
AcDbPolyline
90
8
70
1
43
0.0
10
-240.0562567138671
20
83.487485046386496
10
-241.05625671386719
20
83.487485046386496
42
-0.41421356237309509
10
-241.55625671386716
20
83.987485046386468
10
-241.55625671386716
20
96.987485046386439
42
-0.41421356237309509
10
-241.05625671386719
20
97.487485046386411
10
-240.0562567138671
20
97.487485046386482
42
-0.41421356237309509
10
-239.55625671386713
20
96.98748504638651
10
-239.55625671386713
20
83.987485046386468
42
-0.41421356237309509
0
LWPOLYLINE
5
210
100
AcDbEntity
8
0
100
AcDbPolyline
90
8
70
1
43
0.0
10
-279.05625671386701
20
97.487485046386411
10
-278.0562567138669
20
97.487485046386411
42
-0.41421356237309509
10
-277.55625671386696
20
96.987485046386439
10
-277.55625671386696
20
83.987485046386468
42
-0.41421356237309509
10
-278.0562567138669
20
83.487485046386496
10
-279.05625671386701
20
83.487485046386425
42
-0.41421356237309509
10
-279.55625671386701
20
83.987485046386396
10
-279.55625671386701
20
96.987485046386439
42
-0.41421356237309509
0
CIRCLE
5
211
100
AcDbEntity
8
0
100
AcDbCircle
10
-93.827761883067069
20
-3.4928975209133029
30
-9.5367430619219817e-08
40
1.5500000000000114
210
-4.286382748533332e-29
220
-2.2746164293015943e-29
230
1
0
CIRCLE
5
212
100
AcDbEntity
8
0
100
AcDbCircle
10
-253.82776188306721
20
-3.4928975209133029
30
-9.5367430619219817e-08
40
1.5500000000000114
210
-4.286382748533332e-29
220
-2.2746164293015943e-29
230
1
0
CIRCLE
5
213
100
AcDbEntity
8
0
100
AcDbCircle
10
-173.82776188306707
20
-3.4928975209133029
30
-9.5367430619219817e-08
40
1.5500000000000114
210
-4.286382748533332e-29
220
-2.2746164293015943e-29
230
1
0
CIRCLE
5
214
100
AcDbEntity
8
0
100
AcDbCircle
10
-253.82776188306721
20
122.5671024790865
30
-9.5367430619219817e-08
40
1.5500000000000114
210
-4.286382748533332e-29
220
-2.2746164293015943e-29
230
1
0
CIRCLE
5
215
100
AcDbEntity
8
0
100
AcDbCircle
10
-333.82776188306718
20
-3.4928975209133029
30
-9.5367430619219817e-08
40
1.5500000000000114
210
-4.286382748533332e-29
220
-2.2746164293015943e-29
230
1
0
CIRCLE
5
216
100
AcDbEntity
8
0
100
AcDbCircle
10
-13.827761883067069
20
-3.4928975209133029
30
-9.5367430619219817e-08
40
1.5500000000000114
210
-4.286382748533332e-29
220
-2.2746164293015943e-29
230
1
0
CIRCLE
5
217
100
AcDbEntity
8
0
100
AcDbCircle
10
-13.827761883067069
20
122.5671024790865
30
-9.5367430619219817e-08
40
1.5500000000000114
210
-4.286382748533332e-29
220
-2.2746164293015943e-29
230
1
0
CIRCLE
5
218
100
AcDbEntity
8
0
100
AcDbCircle
10
-333.82776188306718
20
122.5671024790865
30
-9.5367430619219817e-08
40
1.5500000000000114
210
-4.286382748533332e-29
220
-2.2746164293015943e-29
230
1
0
ENDSEC
0
SECTION
2
OBJECTS
0
DICTIONARY
5
C
100
AcDbDictionary
3
ACAD_GROUP
350
D
3
ACAD_MLINESTYLE
350
17
0
DICTIONARY
5
D
100
AcDbDictionary
0
DICTIONARY
5
1A
330
C
100
AcDbDictionary
0
DICTIONARY
5
17
100
AcDbDictionary
0
ENDSEC
0
EOF
